M48
;Layer_Color=9474304
;FILE_FORMAT=2:4
INCH,LZ
;TYPE=PLATED
T1F00S00C0.0120
T3F00S00C0.0280
T4F00S00C0.0300
T5F00S00C0.0315
T6F00S00C0.0320
T7F00S00C0.0323
T8F00S00C0.0346
T9F00S00C0.0350
T10F00S00C0.0354
T11F00S00C0.0394
T12F00S00C0.0433
T13F00S00C0.0472
T14F00S00C0.1181
T15F00S00C0.1183
;TYPE=NON_PLATED
T16F00S00C0.0197
%
T01
X00351Y00186
Y00222
Y00254
X00403
X004159Y00295
X004909
X0049Y00405
X005475Y004075
X005625Y004372
X00665Y0029
X0063Y00185
X005925
X00555
X0118Y00195
X01215
X01255
Y0044
X01715Y0042
Y00355
X00265Y00335
X0025Y0055
X00375Y00605
X0066Y00635
X00725Y0065
X0067Y0084
X0072Y0101
X0076
X008
Y0097
X00535Y0113
X00505
X00465
Y01095
X0038Y0108
X00455Y01495
X00495
X00555
X00671Y01486
X00715
X00759
X00799
X00455Y01566
X01335Y0146
X016Y0138
X0163Y0135
X01655Y01325
X0164Y01745
X01655Y0188
X017165Y019085
X0177Y01935
X0179Y0189
X017656Y020045
X01965Y02025
X0208Y0205
X022161Y019911
X0208Y01855
X02325Y01735
X0238Y01445
X02055
X0226Y00605
X022716Y0053
X0294Y01695
X030445Y02454
X030725Y02742
X03099Y02778
X03215Y02625
X0275Y0252
X027126Y02515
X0267
X0263Y025159
X02575Y025
X02565Y02735
X02437Y02782
X0241Y0269
X0238Y02935
X0228Y029369
X0223Y02935
X02185Y0308
X0233Y0306
X0246Y03065
X0248Y0326
X0243
X0238
X025992Y03238
X0284Y0328
X03035Y0329
X03073
X03111
X03103Y0341
X03139
X03175
X025595Y0291
X02125Y02645
X0218Y0246
Y02395
X02225Y0239
X02275Y0238
X02295Y02355
X023Y023125
X0229Y0225
X02315Y02215
X02335Y0219
X022628Y021672
X022077Y021405
X021101Y021049
X0201Y02155
X019Y0209
X01935Y02495
X0208Y0242
X022Y02275
X02235
X0243Y0232
X0186Y0265
X01865Y0294
Y03295
X01815Y03265
X01765Y03135
X01715
X01665
X01625Y0306
X01545
X01565Y02935
X01515
X01344Y02973
X01344Y03098
X0134Y03285
X0112Y0329
X0103Y03165
X01025Y0304
X0103Y02915
Y02784
X0085Y028335
X008Y028285
X00515Y02725
X00615Y02545
X00565Y0238
Y02255
X00715Y0218
X0091Y02185
X0091Y02295
X015144Y022391
X01525Y024
X017525Y023845
Y025425
X0177Y02225
X017917Y021682
X01825Y0294
X0173
X01615Y03265
X01565
X0135Y03625
X01095Y0362
X006Y03615
X0075Y03235
X008Y0324
X0085
X0041Y032515
X004715Y0299
X01349Y02848
X01344Y02718
X0136Y0262
X0027Y03725
X03095Y03718
Y03682
X03151
Y03718
T03
X02125Y0059
X02165Y0093
X02085
X01995
X01915
X02395Y0071
X0248
X031Y0241
X032
X033584Y026116
X03045Y02885
X028Y0289
X007Y0325
X006
X00375Y03285
X00455Y0365
T04
X00855Y00385
Y00585
X01565Y02005
Y02205
T05
X01215Y0115
X01315
X01415
X01515
X01615
X01715
Y0125
X01615
X01515
X01415
X01315
X01215
X01815
Y0115
X01915
X02015
Y0125
X02115
X02215
X02315
X02415
X02515
X02615
Y0115
X02515
X02415
X02315
X02215
X02115
X01915Y0125
X02715
Y0115
T06
X01025Y00295
X01125
X01695Y007
Y008
X01745Y01705
Y01805
X0299Y0144
Y0134
X03715Y0273
Y030292
X0338Y02955
X0328
X03115Y02205
Y02105
X02985Y02115
Y02215
X008916Y0251
Y0261
X00815Y0343
Y0353
T07
X03695Y0128
Y0138
Y0148
X03795
X03795Y0138
Y0128
X03795Y0158
Y0168
X03695Y0168
Y0158
X03695Y0178
X03795
X03795Y0188
X03695
Y0198
X03795
X03795Y0208
X03695
Y0218
X03795
T08
X03405Y0044
X03565Y0043
X03815
X03155Y0044
X01085Y0114
Y0124
Y0134
Y0144
Y0154
Y0164
Y0174
Y0184
Y0194
Y0204
X0286Y02045
Y01945
Y01845
Y01745
Y01645
Y01545
Y01445
Y01345
Y01245
Y01145
X03155Y0099
Y0079
Y0064
X03405
Y0079
X0356Y00795
X03565Y0063
X03815
X0381Y00795
Y00995
X0356
X03405Y0099
X0286Y02145
Y02245
Y02345
Y02445
Y02545
Y02645
X01085Y0264
Y0254
Y0244
Y0234
Y0224
Y0214
T09
X018358Y003933
X01945Y003933
X020542
X021633Y003933
X0013Y0037
Y0047
Y0027
Y0057
Y0086
Y0096
Y0106
X00255
Y0096
Y0086
Y0152
Y0162
Y0172
X0013
Y0162
Y0152
X008916Y0187
Y0197
X017808Y00505
X0189
X019992Y00505
X021083Y00505
X022175
X02205Y02855
X02305
X02405
X02665Y0308
X02765
X02865
X0301Y03085
X0311
X0321
X03025Y02775
X02925
X02825
X02985Y02645
Y02545
Y02445
Y02345
X018Y02855
X017
X016
X00955Y0284
Y0294
Y0304
Y0314
X0041Y0319
Y0309
Y0299
Y0289
X0028
Y0299
Y0309
Y0319
X008916Y0207
X0014Y0289
Y0299
Y0309
Y0319
Y0334
X0024
Y0344
Y0354
X0014
Y0344
Y0364
X0024
T10
X036523Y03605
T11
X001193Y011936
Y01292
Y013904
X0036Y0139
X0036Y012916
Y011932
X0185Y0337
X0195
X0205
X0215
X0225
X0175
Y0377
X0185Y0377
X0195Y0377
X0205
X0215
X0225Y0377
T12
X003668Y0211
X003642Y0258
X001674
X0017Y0211
T13
X03359Y03605
T14
X038119Y001181
X001181
X001181Y038219
X038119Y038219
T15
X024917Y004492
X015075
T16
X003874Y001383
X005449
X010107Y001433
X011681
M30
