G04*
G04 #@! TF.GenerationSoftware,Altium Limited,Altium Designer,20.0.2 (26)*
G04*
G04 Layer_Color=2752767*
%FSLAX24Y24*%
%MOIN*%
G70*
G01*
G75*
%ADD10C,0.0100*%
%ADD104C,0.0020*%
%ADD105C,0.0027*%
%ADD106C,0.0013*%
D10*
X394Y39400D02*
X38976Y39400D01*
X-0Y38976D02*
X0Y394D01*
X394Y0D02*
X38976D01*
X39300Y394D02*
X39300Y38976D01*
X-0Y73800D02*
X350D01*
X85250Y0D02*
X85300Y50D01*
D104*
X37070Y30212D02*
Y30372D01*
X37230D01*
Y30212D01*
X37070D01*
Y27220D02*
Y27380D01*
X37230D01*
Y27220D01*
X37070D01*
X36523Y35970D02*
X36443Y36130D01*
X36603D01*
X36523Y35970D01*
X3600Y12836D02*
X3640Y12876D01*
X3680D01*
X3640Y12916D01*
X3680Y12956D01*
X3640D01*
X3600Y12996D01*
X3560Y12956D01*
X3520D01*
X3560Y12916D01*
X3520Y12876D01*
X3560D01*
X3600Y12836D01*
X1193Y13824D02*
X1233Y13864D01*
X1273D01*
X1233Y13904D01*
X1273Y13944D01*
X1233D01*
X1193Y13984D01*
X1153Y13944D01*
X1113D01*
X1153Y13904D01*
X1113Y13864D01*
X1153D01*
X1193Y13824D01*
Y12840D02*
X1233Y12880D01*
X1273D01*
X1233Y12920D01*
X1273Y12960D01*
X1233D01*
X1193Y13000D01*
X1153Y12960D01*
X1113D01*
X1153Y12920D01*
X1113Y12880D01*
X1153D01*
X1193Y12840D01*
Y11856D02*
X1233Y11896D01*
X1273D01*
X1233Y11936D01*
X1273Y11976D01*
X1233D01*
X1193Y12016D01*
X1153Y11976D01*
X1113D01*
X1153Y11936D01*
X1113Y11896D01*
X1153D01*
X1193Y11856D01*
X3600Y11852D02*
X3640Y11892D01*
X3680D01*
X3640Y11932D01*
X3680Y11972D01*
X3640D01*
X3600Y12012D01*
X3560Y11972D01*
X3520D01*
X3560Y11932D01*
X3520Y11892D01*
X3560D01*
X3600Y11852D01*
X3600Y13820D02*
X3640Y13860D01*
X3680D01*
X3640Y13900D01*
X3680Y13940D01*
X3640D01*
X3600Y13980D01*
X3560Y13940D01*
X3520D01*
X3560Y13900D01*
X3520Y13860D01*
X3560D01*
X3600Y13820D01*
X2470Y10520D02*
X2510Y10600D01*
X2470Y10680D01*
X2550Y10640D01*
X2630Y10680D01*
X2590Y10600D01*
X2630Y10520D01*
X2550Y10560D01*
X2470Y10520D01*
Y9520D02*
X2510Y9600D01*
X2470Y9680D01*
X2550Y9640D01*
X2630Y9680D01*
X2590Y9600D01*
X2630Y9520D01*
X2550Y9560D01*
X2470Y9520D01*
Y8520D02*
X2510Y8600D01*
X2470Y8680D01*
X2550Y8640D01*
X2630Y8680D01*
X2590Y8600D01*
X2630Y8520D01*
X2550Y8560D01*
X2470Y8520D01*
X1220Y10520D02*
X1260Y10600D01*
X1220Y10680D01*
X1300Y10640D01*
X1380Y10680D01*
X1340Y10600D01*
X1380Y10520D01*
X1300Y10560D01*
X1220Y10520D01*
Y9520D02*
X1260Y9600D01*
X1220Y9680D01*
X1300Y9640D01*
X1380Y9680D01*
X1340Y9600D01*
X1380Y9520D01*
X1300Y9560D01*
X1220Y9520D01*
Y8520D02*
X1260Y8600D01*
X1220Y8680D01*
X1300Y8640D01*
X1380Y8680D01*
X1340Y8600D01*
X1380Y8520D01*
X1300Y8560D01*
X1220Y8520D01*
Y17120D02*
X1260Y17200D01*
X1220Y17280D01*
X1300Y17240D01*
X1380Y17280D01*
X1340Y17200D01*
X1380Y17120D01*
X1300Y17160D01*
X1220Y17120D01*
Y16120D02*
X1260Y16200D01*
X1220Y16280D01*
X1300Y16240D01*
X1380Y16280D01*
X1340Y16200D01*
X1380Y16120D01*
X1300Y16160D01*
X1220Y16120D01*
Y15120D02*
X1260Y15200D01*
X1220Y15280D01*
X1300Y15240D01*
X1380Y15280D01*
X1340Y15200D01*
X1380Y15120D01*
X1300Y15160D01*
X1220Y15120D01*
X2470Y17120D02*
X2510Y17200D01*
X2470Y17280D01*
X2550Y17240D01*
X2630Y17280D01*
X2590Y17200D01*
X2630Y17120D01*
X2550Y17160D01*
X2470Y17120D01*
Y16120D02*
X2510Y16200D01*
X2470Y16280D01*
X2550Y16240D01*
X2630Y16280D01*
X2590Y16200D01*
X2630Y16120D01*
X2550Y16160D01*
X2470Y16120D01*
Y15120D02*
X2510Y15200D01*
X2470Y15280D01*
X2550Y15240D01*
X2630Y15280D01*
X2590Y15200D01*
X2630Y15120D01*
X2550Y15160D01*
X2470Y15120D01*
X1660Y21060D02*
Y21020D01*
X1740D01*
Y21060D01*
X1780D01*
Y21140D01*
X1740D01*
Y21180D01*
X1660D01*
Y21140D01*
X1620D01*
Y21060D01*
X1660D01*
X3629D02*
Y21020D01*
X3708D01*
Y21060D01*
X3749D01*
Y21140D01*
X3708D01*
Y21180D01*
X3629D01*
Y21140D01*
X3589D01*
Y21060D01*
X3629D01*
X4020Y30820D02*
X4060Y30900D01*
X4020Y30980D01*
X4100Y30940D01*
X4180Y30980D01*
X4140Y30900D01*
X4180Y30820D01*
X4100Y30860D01*
X4020Y30820D01*
Y28820D02*
X4060Y28900D01*
X4020Y28980D01*
X4100Y28940D01*
X4180Y28980D01*
X4140Y28900D01*
X4180Y28820D01*
X4100Y28860D01*
X4020Y28820D01*
Y31820D02*
X4060Y31900D01*
X4020Y31980D01*
X4100Y31940D01*
X4180Y31980D01*
X4140Y31900D01*
X4180Y31820D01*
X4100Y31860D01*
X4020Y31820D01*
Y29820D02*
X4060Y29900D01*
X4020Y29980D01*
X4100Y29940D01*
X4180Y29980D01*
X4140Y29900D01*
X4180Y29820D01*
X4100Y29860D01*
X4020Y29820D01*
X2720Y30820D02*
X2760Y30900D01*
X2720Y30980D01*
X2800Y30940D01*
X2880Y30980D01*
X2840Y30900D01*
X2880Y30820D01*
X2800Y30860D01*
X2720Y30820D01*
Y28820D02*
X2760Y28900D01*
X2720Y28980D01*
X2800Y28940D01*
X2880Y28980D01*
X2840Y28900D01*
X2880Y28820D01*
X2800Y28860D01*
X2720Y28820D01*
Y31820D02*
X2760Y31900D01*
X2720Y31980D01*
X2800Y31940D01*
X2880Y31980D01*
X2840Y31900D01*
X2880Y31820D01*
X2800Y31860D01*
X2720Y31820D01*
Y29820D02*
X2760Y29900D01*
X2720Y29980D01*
X2800Y29940D01*
X2880Y29980D01*
X2840Y29900D01*
X2880Y29820D01*
X2800Y29860D01*
X2720Y29820D01*
X1320D02*
X1360Y29900D01*
X1320Y29980D01*
X1400Y29940D01*
X1480Y29980D01*
X1440Y29900D01*
X1480Y29820D01*
X1400Y29860D01*
X1320Y29820D01*
Y31820D02*
X1360Y31900D01*
X1320Y31980D01*
X1400Y31940D01*
X1480Y31980D01*
X1440Y31900D01*
X1480Y31820D01*
X1400Y31860D01*
X1320Y31820D01*
Y28820D02*
X1360Y28900D01*
X1320Y28980D01*
X1400Y28940D01*
X1480Y28980D01*
X1440Y28900D01*
X1480Y28820D01*
X1400Y28860D01*
X1320Y28820D01*
Y30820D02*
X1360Y30900D01*
X1320Y30980D01*
X1400Y30940D01*
X1480Y30980D01*
X1440Y30900D01*
X1480Y30820D01*
X1400Y30860D01*
X1320Y30820D01*
X2320Y35320D02*
X2360Y35400D01*
X2320Y35480D01*
X2400Y35440D01*
X2480Y35480D01*
X2440Y35400D01*
X2480Y35320D01*
X2400Y35360D01*
X2320Y35320D01*
Y33320D02*
X2360Y33400D01*
X2320Y33480D01*
X2400Y33440D01*
X2480Y33480D01*
X2440Y33400D01*
X2480Y33320D01*
X2400Y33360D01*
X2320Y33320D01*
Y36320D02*
X2360Y36400D01*
X2320Y36480D01*
X2400Y36440D01*
X2480Y36480D01*
X2440Y36400D01*
X2480Y36320D01*
X2400Y36360D01*
X2320Y36320D01*
Y34320D02*
X2360Y34400D01*
X2320Y34480D01*
X2400Y34440D01*
X2480Y34480D01*
X2440Y34400D01*
X2480Y34320D01*
X2400Y34360D01*
X2320Y34320D01*
X1320Y35320D02*
X1360Y35400D01*
X1320Y35480D01*
X1400Y35440D01*
X1480Y35480D01*
X1440Y35400D01*
X1480Y35320D01*
X1400Y35360D01*
X1320Y35320D01*
Y33320D02*
X1360Y33400D01*
X1320Y33480D01*
X1400Y33440D01*
X1480Y33480D01*
X1440Y33400D01*
X1480Y33320D01*
X1400Y33360D01*
X1320Y33320D01*
Y36320D02*
X1360Y36400D01*
X1320Y36480D01*
X1400Y36440D01*
X1480Y36480D01*
X1440Y36400D01*
X1480Y36320D01*
X1400Y36360D01*
X1320Y36320D01*
Y34320D02*
X1360Y34400D01*
X1320Y34480D01*
X1400Y34440D01*
X1480Y34480D01*
X1440Y34400D01*
X1480Y34320D01*
X1400Y34360D01*
X1320Y34320D01*
X8070Y34220D02*
Y34380D01*
X8230D01*
Y34220D01*
X8070D01*
Y35220D02*
Y35380D01*
X8230D01*
Y35220D01*
X8070D01*
X9470Y30320D02*
X9510Y30400D01*
X9470Y30480D01*
X9550Y30440D01*
X9630Y30480D01*
X9590Y30400D01*
X9630Y30320D01*
X9550Y30360D01*
X9470Y30320D01*
Y28320D02*
X9510Y28400D01*
X9470Y28480D01*
X9550Y28440D01*
X9630Y28480D01*
X9590Y28400D01*
X9630Y28320D01*
X9550Y28360D01*
X9470Y28320D01*
Y31320D02*
X9510Y31400D01*
X9470Y31480D01*
X9550Y31440D01*
X9630Y31480D01*
X9590Y31400D01*
X9630Y31320D01*
X9550Y31360D01*
X9470Y31320D01*
Y29320D02*
X9510Y29400D01*
X9470Y29480D01*
X9550Y29440D01*
X9630Y29480D01*
X9590Y29400D01*
X9630Y29320D01*
X9550Y29360D01*
X9470Y29320D01*
X17920Y28470D02*
X17960Y28550D01*
X17920Y28630D01*
X18000Y28590D01*
X18080Y28630D01*
X18040Y28550D01*
X18080Y28470D01*
X18000Y28510D01*
X17920Y28470D01*
X16920D02*
X16960Y28550D01*
X16920Y28630D01*
X17000Y28590D01*
X17080Y28630D01*
X17040Y28550D01*
X17080Y28470D01*
X17000Y28510D01*
X16920Y28470D01*
X15920D02*
X15960Y28550D01*
X15920Y28630D01*
X16000Y28590D01*
X16080Y28630D01*
X16040Y28550D01*
X16080Y28470D01*
X16000Y28510D01*
X15920Y28470D01*
X23970D02*
X24010Y28550D01*
X23970Y28630D01*
X24050Y28590D01*
X24130Y28630D01*
X24090Y28550D01*
X24130Y28470D01*
X24050Y28510D01*
X23970Y28470D01*
X22970D02*
X23010Y28550D01*
X22970Y28630D01*
X23050Y28590D01*
X23130Y28630D01*
X23090Y28550D01*
X23130Y28470D01*
X23050Y28510D01*
X22970Y28470D01*
X21970D02*
X22010Y28550D01*
X21970Y28630D01*
X22050Y28590D01*
X22130Y28630D01*
X22090Y28550D01*
X22130Y28470D01*
X22050Y28510D01*
X21970Y28470D01*
X22500Y33620D02*
X22540Y33660D01*
X22580D01*
X22540Y33700D01*
X22580Y33740D01*
X22540D01*
X22500Y33780D01*
X22460Y33740D01*
X22420D01*
X22460Y33700D01*
X22420Y33660D01*
X22460D01*
X22500Y33620D01*
X21500D02*
X21540Y33660D01*
X21580D01*
X21540Y33700D01*
X21580Y33740D01*
X21540D01*
X21500Y33780D01*
X21460Y33740D01*
X21420D01*
X21460Y33700D01*
X21420Y33660D01*
X21460D01*
X21500Y33620D01*
X20500D02*
X20540Y33660D01*
X20580D01*
X20540Y33700D01*
X20580Y33740D01*
X20540D01*
X20500Y33780D01*
X20460Y33740D01*
X20420D01*
X20460Y33700D01*
X20420Y33660D01*
X20460D01*
X20500Y33620D01*
X19500D02*
X19540Y33660D01*
X19580D01*
X19540Y33700D01*
X19580Y33740D01*
X19540D01*
X19500Y33780D01*
X19460Y33740D01*
X19420D01*
X19460Y33700D01*
X19420Y33660D01*
X19460D01*
X19500Y33620D01*
X18500D02*
X18540Y33660D01*
X18580D01*
X18540Y33700D01*
X18580Y33740D01*
X18540D01*
X18500Y33780D01*
X18460Y33740D01*
X18420D01*
X18460Y33700D01*
X18420Y33660D01*
X18460D01*
X18500Y33620D01*
X17500D02*
X17540Y33660D01*
X17580D01*
X17540Y33700D01*
X17580Y33740D01*
X17540D01*
X17500Y33780D01*
X17460Y33740D01*
X17420D01*
X17460Y33700D01*
X17420Y33660D01*
X17460D01*
X17500Y33620D01*
Y37620D02*
X17540Y37660D01*
X17580D01*
X17540Y37700D01*
X17580Y37740D01*
X17540D01*
X17500Y37780D01*
X17460Y37740D01*
X17420D01*
X17460Y37700D01*
X17420Y37660D01*
X17460D01*
X17500Y37620D01*
X18500Y37620D02*
X18540Y37660D01*
X18580D01*
X18540Y37700D01*
X18580Y37740D01*
X18540D01*
X18500Y37780D01*
X18460Y37740D01*
X18420D01*
X18460Y37700D01*
X18420Y37660D01*
X18460D01*
X18500Y37620D01*
X19500Y37620D02*
X19540Y37660D01*
X19580D01*
X19540Y37700D01*
X19580Y37740D01*
X19540D01*
X19500Y37780D01*
X19460Y37740D01*
X19420D01*
X19460Y37700D01*
X19420Y37660D01*
X19460D01*
X19500Y37620D01*
X20500D02*
X20540Y37660D01*
X20580D01*
X20540Y37700D01*
X20580Y37740D01*
X20540D01*
X20500Y37780D01*
X20460Y37740D01*
X20420D01*
X20460Y37700D01*
X20420Y37660D01*
X20460D01*
X20500Y37620D01*
X21500D02*
X21540Y37660D01*
X21580D01*
X21540Y37700D01*
X21580Y37740D01*
X21540D01*
X21500Y37780D01*
X21460Y37740D01*
X21420D01*
X21460Y37700D01*
X21420Y37660D01*
X21460D01*
X21500Y37620D01*
X22500Y37620D02*
X22540Y37660D01*
X22580D01*
X22540Y37700D01*
X22580Y37740D01*
X22540D01*
X22500Y37780D01*
X22460Y37740D01*
X22420D01*
X22460Y37700D01*
X22420Y37660D01*
X22460D01*
X22500Y37620D01*
X30020Y30770D02*
X30060Y30850D01*
X30020Y30930D01*
X30100Y30890D01*
X30180Y30930D01*
X30140Y30850D01*
X30180Y30770D01*
X30100Y30810D01*
X30020Y30770D01*
X31020D02*
X31060Y30850D01*
X31020Y30930D01*
X31100Y30890D01*
X31180Y30930D01*
X31140Y30850D01*
X31180Y30770D01*
X31100Y30810D01*
X31020Y30770D01*
X32020D02*
X32060Y30850D01*
X32020Y30930D01*
X32100Y30890D01*
X32180Y30930D01*
X32140Y30850D01*
X32180Y30770D01*
X32100Y30810D01*
X32020Y30770D01*
X26570Y30720D02*
X26610Y30800D01*
X26570Y30880D01*
X26650Y30840D01*
X26730Y30880D01*
X26690Y30800D01*
X26730Y30720D01*
X26650Y30760D01*
X26570Y30720D01*
X27570D02*
X27610Y30800D01*
X27570Y30880D01*
X27650Y30840D01*
X27730Y30880D01*
X27690Y30800D01*
X27730Y30720D01*
X27650Y30760D01*
X27570Y30720D01*
X28570D02*
X28610Y30800D01*
X28570Y30880D01*
X28650Y30840D01*
X28730Y30880D01*
X28690Y30800D01*
X28730Y30720D01*
X28650Y30760D01*
X28570Y30720D01*
X32720Y29470D02*
Y29630D01*
X32880D01*
Y29470D01*
X32720D01*
X33720D02*
Y29630D01*
X33880D01*
Y29470D01*
X33720D01*
X30170Y27670D02*
X30210Y27750D01*
X30170Y27830D01*
X30250Y27790D01*
X30330Y27830D01*
X30290Y27750D01*
X30330Y27670D01*
X30250Y27710D01*
X30170Y27670D01*
X29170D02*
X29210Y27750D01*
X29170Y27830D01*
X29250Y27790D01*
X29330Y27830D01*
X29290Y27750D01*
X29330Y27670D01*
X29250Y27710D01*
X29170Y27670D01*
X28170D02*
X28210Y27750D01*
X28170Y27830D01*
X28250Y27790D01*
X28330Y27830D01*
X28290Y27750D01*
X28330Y27670D01*
X28250Y27710D01*
X28170Y27670D01*
X29770Y25370D02*
X29810Y25450D01*
X29770Y25530D01*
X29850Y25490D01*
X29930Y25530D01*
X29890Y25450D01*
X29930Y25370D01*
X29850Y25410D01*
X29770Y25370D01*
Y23370D02*
X29810Y23450D01*
X29770Y23530D01*
X29850Y23490D01*
X29930Y23530D01*
X29890Y23450D01*
X29930Y23370D01*
X29850Y23410D01*
X29770Y23370D01*
Y26370D02*
X29810Y26450D01*
X29770Y26530D01*
X29850Y26490D01*
X29930Y26530D01*
X29890Y26450D01*
X29930Y26370D01*
X29850Y26410D01*
X29770Y26370D01*
Y24370D02*
X29810Y24450D01*
X29770Y24530D01*
X29850Y24490D01*
X29930Y24530D01*
X29890Y24450D01*
X29930Y24370D01*
X29850Y24410D01*
X29770Y24370D01*
Y21070D02*
Y21230D01*
X29930D01*
Y21070D01*
X29770D01*
Y22070D02*
Y22230D01*
X29930D01*
Y22070D01*
X29770D01*
X31070Y21970D02*
Y22130D01*
X31230D01*
Y21970D01*
X31070D01*
Y20970D02*
Y21130D01*
X31230D01*
Y20970D01*
X31070D01*
X37870Y12720D02*
X37910D01*
X37950Y12760D01*
X37990Y12720D01*
X38030D01*
Y12760D01*
X37990Y12800D01*
X38030Y12840D01*
Y12880D01*
X37990D01*
X37950Y12840D01*
X37910Y12880D01*
X37870D01*
Y12840D01*
X37910Y12800D01*
X37870Y12760D01*
Y12720D01*
X36870Y12720D02*
X36910D01*
X36950Y12760D01*
X36990Y12720D01*
X37030D01*
Y12760D01*
X36990Y12800D01*
X37030Y12840D01*
Y12880D01*
X36990D01*
X36950Y12840D01*
X36910Y12880D01*
X36870D01*
Y12840D01*
X36910Y12800D01*
X36870Y12760D01*
Y12720D01*
X37870Y13720D02*
X37910D01*
X37950Y13760D01*
X37990Y13720D01*
X38030D01*
Y13760D01*
X37990Y13800D01*
X38030Y13840D01*
Y13880D01*
X37990D01*
X37950Y13840D01*
X37910Y13880D01*
X37870D01*
Y13840D01*
X37910Y13800D01*
X37870Y13760D01*
Y13720D01*
X36870Y13720D02*
X36910D01*
X36950Y13760D01*
X36990Y13720D01*
X37030D01*
Y13760D01*
X36990Y13800D01*
X37030Y13840D01*
Y13880D01*
X36990D01*
X36950Y13840D01*
X36910Y13880D01*
X36870D01*
Y13840D01*
X36910Y13800D01*
X36870Y13760D01*
Y13720D01*
X37870Y14720D02*
X37910D01*
X37950Y14760D01*
X37990Y14720D01*
X38030D01*
Y14760D01*
X37990Y14800D01*
X38030Y14840D01*
Y14880D01*
X37990D01*
X37950Y14840D01*
X37910Y14880D01*
X37870D01*
Y14840D01*
X37910Y14800D01*
X37870Y14760D01*
Y14720D01*
X36870D02*
X36910D01*
X36950Y14760D01*
X36990Y14720D01*
X37030D01*
Y14760D01*
X36990Y14800D01*
X37030Y14840D01*
Y14880D01*
X36990D01*
X36950Y14840D01*
X36910Y14880D01*
X36870D01*
Y14840D01*
X36910Y14800D01*
X36870Y14760D01*
Y14720D01*
X37870Y15720D02*
X37910D01*
X37950Y15760D01*
X37990Y15720D01*
X38030D01*
Y15760D01*
X37990Y15800D01*
X38030Y15840D01*
Y15880D01*
X37990D01*
X37950Y15840D01*
X37910Y15880D01*
X37870D01*
Y15840D01*
X37910Y15800D01*
X37870Y15760D01*
Y15720D01*
X36870D02*
X36910D01*
X36950Y15760D01*
X36990Y15720D01*
X37030D01*
Y15760D01*
X36990Y15800D01*
X37030Y15840D01*
Y15880D01*
X36990D01*
X36950Y15840D01*
X36910Y15880D01*
X36870D01*
Y15840D01*
X36910Y15800D01*
X36870Y15760D01*
Y15720D01*
X37870Y16720D02*
X37910D01*
X37950Y16760D01*
X37990Y16720D01*
X38030D01*
Y16760D01*
X37990Y16800D01*
X38030Y16840D01*
Y16880D01*
X37990D01*
X37950Y16840D01*
X37910Y16880D01*
X37870D01*
Y16840D01*
X37910Y16800D01*
X37870Y16760D01*
Y16720D01*
X36870Y16720D02*
X36910D01*
X36950Y16760D01*
X36990Y16720D01*
X37030D01*
Y16760D01*
X36990Y16800D01*
X37030Y16840D01*
Y16880D01*
X36990D01*
X36950Y16840D01*
X36910Y16880D01*
X36870D01*
Y16840D01*
X36910Y16800D01*
X36870Y16760D01*
Y16720D01*
X37870Y17720D02*
X37910D01*
X37950Y17760D01*
X37990Y17720D01*
X38030D01*
Y17760D01*
X37990Y17800D01*
X38030Y17840D01*
Y17880D01*
X37990D01*
X37950Y17840D01*
X37910Y17880D01*
X37870D01*
Y17840D01*
X37910Y17800D01*
X37870Y17760D01*
Y17720D01*
X36870D02*
X36910D01*
X36950Y17760D01*
X36990Y17720D01*
X37030D01*
Y17760D01*
X36990Y17800D01*
X37030Y17840D01*
Y17880D01*
X36990D01*
X36950Y17840D01*
X36910Y17880D01*
X36870D01*
Y17840D01*
X36910Y17800D01*
X36870Y17760D01*
Y17720D01*
X37870Y18720D02*
X37910D01*
X37950Y18760D01*
X37990Y18720D01*
X38030D01*
Y18760D01*
X37990Y18800D01*
X38030Y18840D01*
Y18880D01*
X37990D01*
X37950Y18840D01*
X37910Y18880D01*
X37870D01*
Y18840D01*
X37910Y18800D01*
X37870Y18760D01*
Y18720D01*
X36870D02*
X36910D01*
X36950Y18760D01*
X36990Y18720D01*
X37030D01*
Y18760D01*
X36990Y18800D01*
X37030Y18840D01*
Y18880D01*
X36990D01*
X36950Y18840D01*
X36910Y18880D01*
X36870D01*
Y18840D01*
X36910Y18800D01*
X36870Y18760D01*
Y18720D01*
X37870Y19720D02*
X37910D01*
X37950Y19760D01*
X37990Y19720D01*
X38030D01*
Y19760D01*
X37990Y19800D01*
X38030Y19840D01*
Y19880D01*
X37990D01*
X37950Y19840D01*
X37910Y19880D01*
X37870D01*
Y19840D01*
X37910Y19800D01*
X37870Y19760D01*
Y19720D01*
X36870D02*
X36910D01*
X36950Y19760D01*
X36990Y19720D01*
X37030D01*
Y19760D01*
X36990Y19800D01*
X37030Y19840D01*
Y19880D01*
X36990D01*
X36950Y19840D01*
X36910Y19880D01*
X36870D01*
Y19840D01*
X36910Y19800D01*
X36870Y19760D01*
Y19720D01*
X37870Y20720D02*
X37910D01*
X37950Y20760D01*
X37990Y20720D01*
X38030D01*
Y20760D01*
X37990Y20800D01*
X38030Y20840D01*
Y20880D01*
X37990D01*
X37950Y20840D01*
X37910Y20880D01*
X37870D01*
Y20840D01*
X37910Y20800D01*
X37870Y20760D01*
Y20720D01*
X36870D02*
X36910D01*
X36950Y20760D01*
X36990Y20720D01*
X37030D01*
Y20760D01*
X36990Y20800D01*
X37030Y20840D01*
Y20880D01*
X36990D01*
X36950Y20840D01*
X36910Y20880D01*
X36870D01*
Y20840D01*
X36910Y20800D01*
X36870Y20760D01*
Y20720D01*
Y21720D02*
X36910D01*
X36950Y21760D01*
X36990Y21720D01*
X37030D01*
Y21760D01*
X36990Y21800D01*
X37030Y21840D01*
Y21880D01*
X36990D01*
X36950Y21840D01*
X36910Y21880D01*
X36870D01*
Y21840D01*
X36910Y21800D01*
X36870Y21760D01*
Y21720D01*
X37870D02*
X37910D01*
X37950Y21760D01*
X37990Y21720D01*
X38030D01*
Y21760D01*
X37990Y21800D01*
X38030Y21840D01*
Y21880D01*
X37990D01*
X37950Y21840D01*
X37910Y21880D01*
X37870D01*
Y21840D01*
X37910Y21800D01*
X37870Y21760D01*
Y21720D01*
X35520Y7950D02*
X35600Y8030D01*
X35680Y7950D01*
X35600Y7870D01*
X35520Y7950D01*
Y9950D02*
X35600Y10030D01*
X35680Y9950D01*
X35600Y9870D01*
X35520Y9950D01*
X38020Y7950D02*
X38100Y8030D01*
X38180Y7950D01*
X38100Y7870D01*
X38020Y7950D01*
Y9950D02*
X38100Y10030D01*
X38180Y9950D01*
X38100Y9870D01*
X38020Y9950D01*
X35570Y4300D02*
X35650Y4380D01*
X35730Y4300D01*
X35650Y4220D01*
X35570Y4300D01*
Y6300D02*
X35650Y6380D01*
X35730Y6300D01*
X35650Y6220D01*
X35570Y6300D01*
X38070Y4300D02*
X38150Y4380D01*
X38230Y4300D01*
X38150Y4220D01*
X38070Y4300D01*
Y6300D02*
X38150Y6380D01*
X38230Y6300D01*
X38150Y6220D01*
X38070Y6300D01*
X31470Y4400D02*
X31550Y4480D01*
X31630Y4400D01*
X31550Y4320D01*
X31470Y4400D01*
Y6400D02*
X31550Y6480D01*
X31630Y6400D01*
X31550Y6320D01*
X31470Y6400D01*
X33970Y4400D02*
X34050Y4480D01*
X34130Y4400D01*
X34050Y4320D01*
X33970Y4400D01*
Y6400D02*
X34050Y6480D01*
X34130Y6400D01*
X34050Y6320D01*
X33970Y6400D01*
X31470Y7900D02*
X31550Y7980D01*
X31630Y7900D01*
X31550Y7820D01*
X31470Y7900D01*
Y9900D02*
X31550Y9980D01*
X31630Y9900D01*
X31550Y9820D01*
X31470Y9900D01*
X33970Y7900D02*
X34050Y7980D01*
X34130Y7900D01*
X34050Y7820D01*
X33970Y7900D01*
Y9900D02*
X34050Y9980D01*
X34130Y9900D01*
X34050Y9820D01*
X33970Y9900D01*
X27070Y11420D02*
Y11580D01*
X27230D01*
Y11420D01*
X27070D01*
X27110Y11460D02*
Y11540D01*
X27190D01*
Y11460D01*
X27110D01*
X27070Y12420D02*
Y12580D01*
X27230D01*
Y12420D01*
X27070D01*
X27110Y12460D02*
Y12540D01*
X27190D01*
Y12460D01*
X27110D01*
X26070Y11420D02*
Y11580D01*
X26230D01*
Y11420D01*
X26070D01*
X26110Y11460D02*
Y11540D01*
X26190D01*
Y11460D01*
X26110D01*
X26070Y12420D02*
Y12580D01*
X26230D01*
Y12420D01*
X26070D01*
X26110Y12460D02*
Y12540D01*
X26190D01*
Y12460D01*
X26110D01*
X25070Y11420D02*
Y11580D01*
X25230D01*
Y11420D01*
X25070D01*
X25110Y11460D02*
Y11540D01*
X25190D01*
Y11460D01*
X25110D01*
X25070Y12420D02*
Y12580D01*
X25230D01*
Y12420D01*
X25070D01*
X25110Y12460D02*
Y12540D01*
X25190D01*
Y12460D01*
X25110D01*
X24070Y11420D02*
Y11580D01*
X24230D01*
Y11420D01*
X24070D01*
X24110Y11460D02*
Y11540D01*
X24190D01*
Y11460D01*
X24110D01*
X24070Y12420D02*
Y12580D01*
X24230D01*
Y12420D01*
X24070D01*
X24110Y12460D02*
Y12540D01*
X24190D01*
Y12460D01*
X24110D01*
X23070Y11420D02*
Y11580D01*
X23230D01*
Y11420D01*
X23070D01*
X23110Y11460D02*
Y11540D01*
X23190D01*
Y11460D01*
X23110D01*
X23070Y12420D02*
Y12580D01*
X23230D01*
Y12420D01*
X23070D01*
X23110Y12460D02*
Y12540D01*
X23190D01*
Y12460D01*
X23110D01*
X22070Y11420D02*
Y11580D01*
X22230D01*
Y11420D01*
X22070D01*
X22110Y11460D02*
Y11540D01*
X22190D01*
Y11460D01*
X22110D01*
X22070Y12420D02*
Y12580D01*
X22230D01*
Y12420D01*
X22070D01*
X22110Y12460D02*
Y12540D01*
X22190D01*
Y12460D01*
X22110D01*
X21070Y11420D02*
Y11580D01*
X21230D01*
Y11420D01*
X21070D01*
X21110Y11460D02*
Y11540D01*
X21190D01*
Y11460D01*
X21110D01*
X21070Y12420D02*
Y12580D01*
X21230D01*
Y12420D01*
X21070D01*
X21110Y12460D02*
Y12540D01*
X21190D01*
Y12460D01*
X21110D01*
X20070Y11420D02*
Y11580D01*
X20230D01*
Y11420D01*
X20070D01*
X20110Y11460D02*
Y11540D01*
X20190D01*
Y11460D01*
X20110D01*
X20070Y12420D02*
Y12580D01*
X20230D01*
Y12420D01*
X20070D01*
X20110Y12460D02*
Y12540D01*
X20190D01*
Y12460D01*
X20110D01*
X19070Y11420D02*
Y11580D01*
X19230D01*
Y11420D01*
X19070D01*
X19110Y11460D02*
Y11540D01*
X19190D01*
Y11460D01*
X19110D01*
X19070Y12420D02*
Y12580D01*
X19230D01*
Y12420D01*
X19070D01*
X19110Y12460D02*
Y12540D01*
X19190D01*
Y12460D01*
X19110D01*
X18070Y11420D02*
Y11580D01*
X18230D01*
Y11420D01*
X18070D01*
X18110Y11460D02*
Y11540D01*
X18190D01*
Y11460D01*
X18110D01*
X18070Y12420D02*
Y12580D01*
X18230D01*
Y12420D01*
X18070D01*
X18110Y12460D02*
Y12540D01*
X18190D01*
Y12460D01*
X18110D01*
X17070Y11420D02*
Y11580D01*
X17230D01*
Y11420D01*
X17070D01*
X17110Y11460D02*
Y11540D01*
X17190D01*
Y11460D01*
X17110D01*
X17070Y12420D02*
Y12580D01*
X17230D01*
Y12420D01*
X17070D01*
X17110Y12460D02*
Y12540D01*
X17190D01*
Y12460D01*
X17110D01*
X16070Y11420D02*
Y11580D01*
X16230D01*
Y11420D01*
X16070D01*
X16110Y11460D02*
Y11540D01*
X16190D01*
Y11460D01*
X16110D01*
X16070Y12420D02*
Y12580D01*
X16230D01*
Y12420D01*
X16070D01*
X16110Y12460D02*
Y12540D01*
X16190D01*
Y12460D01*
X16110D01*
X15070Y11420D02*
Y11580D01*
X15230D01*
Y11420D01*
X15070D01*
X15110Y11460D02*
Y11540D01*
X15190D01*
Y11460D01*
X15110D01*
X15070Y12420D02*
Y12580D01*
X15230D01*
Y12420D01*
X15070D01*
X15110Y12460D02*
Y12540D01*
X15190D01*
Y12460D01*
X15110D01*
X14070Y11420D02*
Y11580D01*
X14230D01*
Y11420D01*
X14070D01*
X14110Y11460D02*
Y11540D01*
X14190D01*
Y11460D01*
X14110D01*
X14070Y12420D02*
Y12580D01*
X14230D01*
Y12420D01*
X14070D01*
X14110Y12460D02*
Y12540D01*
X14190D01*
Y12460D01*
X14110D01*
X13070Y11420D02*
Y11580D01*
X13230D01*
Y11420D01*
X13070D01*
X13110Y11460D02*
Y11540D01*
X13190D01*
Y11460D01*
X13110D01*
X13070Y12420D02*
Y12580D01*
X13230D01*
Y12420D01*
X13070D01*
X13110Y12460D02*
Y12540D01*
X13190D01*
Y12460D01*
X13110D01*
X12070Y11420D02*
Y11580D01*
X12230D01*
Y11420D01*
X12070D01*
X12110Y11460D02*
Y11540D01*
X12190D01*
Y11460D01*
X12110D01*
X12070Y12420D02*
Y12580D01*
X12230D01*
Y12420D01*
X12070D01*
X12110Y12460D02*
Y12540D01*
X12190D01*
Y12460D01*
X12110D01*
X16870Y7920D02*
Y8080D01*
X17030D01*
Y7920D01*
X16870D01*
Y6920D02*
Y7080D01*
X17030D01*
Y6920D01*
X16870D01*
X11170Y2870D02*
Y3030D01*
X11330D01*
Y2870D01*
X11170D01*
X10170D02*
Y3030D01*
X10330D01*
Y2870D01*
X10170D01*
X9782Y507D02*
X9702Y667D01*
X9862D01*
X9782Y507D01*
Y547D02*
X9742Y627D01*
X9822D01*
X9782Y547D01*
X12006Y507D02*
X11926Y667D01*
X12086D01*
X12006Y507D01*
Y547D02*
X11966Y627D01*
X12046D01*
X12006Y547D01*
X5774Y457D02*
X5694Y617D01*
X5854D01*
X5774Y457D01*
Y497D02*
X5734Y577D01*
X5814D01*
X5774Y497D01*
X3550Y457D02*
X3470Y617D01*
X3630D01*
X3550Y457D01*
Y497D02*
X3510Y577D01*
X3590D01*
X3550Y497D01*
X8550Y5770D02*
X8590Y5810D01*
X8630D01*
X8590Y5850D01*
X8630Y5890D01*
X8590D01*
X8550Y5930D01*
X8510Y5890D01*
X8470D01*
X8510Y5850D01*
X8470Y5810D01*
X8510D01*
X8550Y5770D01*
Y5810D02*
X8570Y5830D01*
X8590D01*
X8570Y5850D01*
X8590Y5870D01*
X8570D01*
X8550Y5890D01*
X8530Y5870D01*
X8510D01*
X8530Y5850D01*
X8510Y5830D01*
X8530D01*
X8550Y5810D01*
Y3770D02*
X8590Y3810D01*
X8630D01*
X8590Y3850D01*
X8630Y3890D01*
X8590D01*
X8550Y3930D01*
X8510Y3890D01*
X8470D01*
X8510Y3850D01*
X8470Y3810D01*
X8510D01*
X8550Y3770D01*
Y3810D02*
X8570Y3830D01*
X8590D01*
X8570Y3850D01*
X8590Y3870D01*
X8570D01*
X8550Y3890D01*
X8530Y3870D01*
X8510D01*
X8530Y3850D01*
X8510Y3830D01*
X8530D01*
X8550Y3810D01*
X1220Y4620D02*
X1260Y4700D01*
X1220Y4780D01*
X1300Y4740D01*
X1380Y4780D01*
X1340Y4700D01*
X1380Y4620D01*
X1300Y4660D01*
X1220Y4620D01*
Y2620D02*
X1260Y2700D01*
X1220Y2780D01*
X1300Y2740D01*
X1380Y2780D01*
X1340Y2700D01*
X1380Y2620D01*
X1300Y2660D01*
X1220Y2620D01*
Y5620D02*
X1260Y5700D01*
X1220Y5780D01*
X1300Y5740D01*
X1380Y5780D01*
X1340Y5700D01*
X1380Y5620D01*
X1300Y5660D01*
X1220Y5620D01*
Y3620D02*
X1260Y3700D01*
X1220Y3780D01*
X1300Y3740D01*
X1380Y3780D01*
X1340Y3700D01*
X1380Y3620D01*
X1300Y3660D01*
X1220Y3620D01*
X8836Y20620D02*
X8876Y20700D01*
X8836Y20780D01*
X8916Y20740D01*
X8996Y20780D01*
X8956Y20700D01*
X8996Y20620D01*
X8916Y20660D01*
X8836Y20620D01*
Y19620D02*
X8876Y19700D01*
X8836Y19780D01*
X8916Y19740D01*
X8996Y19780D01*
X8956Y19700D01*
X8996Y19620D01*
X8916Y19660D01*
X8836Y19620D01*
Y18620D02*
X8876Y18700D01*
X8836Y18780D01*
X8916Y18740D01*
X8996Y18780D01*
X8956Y18700D01*
X8996Y18620D01*
X8916Y18660D01*
X8836Y18620D01*
Y26020D02*
Y26180D01*
X8996D01*
Y26020D01*
X8836D01*
Y25020D02*
Y25180D01*
X8996D01*
Y25020D01*
X8836D01*
X1634Y25760D02*
Y25720D01*
X1714D01*
Y25760D01*
X1754D01*
Y25840D01*
X1714D01*
Y25880D01*
X1634D01*
Y25840D01*
X1594D01*
Y25760D01*
X1634D01*
X3602D02*
Y25720D01*
X3682D01*
Y25760D01*
X3722D01*
Y25840D01*
X3682D01*
Y25880D01*
X3602D01*
Y25840D01*
X3562D01*
Y25760D01*
X3602D01*
X14995Y4412D02*
X15035Y4492D01*
X14995Y4572D01*
X15075Y4532D01*
X15155Y4572D01*
X15115Y4492D01*
X15155Y4412D01*
X15075Y4452D01*
X14995Y4412D01*
X15035Y4452D02*
X15055Y4492D01*
X15035Y4532D01*
X15075Y4512D01*
X15115Y4532D01*
X15095Y4492D01*
X15115Y4452D01*
X15075Y4472D01*
X15035Y4452D01*
X24837Y4412D02*
X24877Y4492D01*
X24837Y4572D01*
X24917Y4532D01*
X24997Y4572D01*
X24957Y4492D01*
X24997Y4412D01*
X24917Y4452D01*
X24837Y4412D01*
X24877Y4452D02*
X24897Y4492D01*
X24877Y4532D01*
X24917Y4512D01*
X24957Y4532D01*
X24937Y4492D01*
X24957Y4452D01*
X24917Y4472D01*
X24877Y4452D01*
X21553Y3853D02*
X21593Y3933D01*
X21553Y4013D01*
X21633Y3973D01*
X21713Y4013D01*
X21673Y3933D01*
X21713Y3853D01*
X21633Y3893D01*
X21553Y3853D01*
X20462Y3853D02*
X20502Y3933D01*
X20462Y4013D01*
X20542Y3973D01*
X20622Y4013D01*
X20582Y3933D01*
X20622Y3853D01*
X20542Y3893D01*
X20462Y3853D01*
X19370D02*
X19410Y3933D01*
X19370Y4013D01*
X19450Y3973D01*
X19530Y4013D01*
X19490Y3933D01*
X19530Y3853D01*
X19450Y3893D01*
X19370Y3853D01*
X18278Y3853D02*
X18318Y3933D01*
X18278Y4013D01*
X18358Y3973D01*
X18438Y4013D01*
X18398Y3933D01*
X18438Y3853D01*
X18358Y3893D01*
X18278Y3853D01*
X22095Y4970D02*
X22135Y5050D01*
X22095Y5130D01*
X22175Y5090D01*
X22255Y5130D01*
X22215Y5050D01*
X22255Y4970D01*
X22175Y5010D01*
X22095Y4970D01*
X21003D02*
X21043Y5050D01*
X21003Y5130D01*
X21083Y5090D01*
X21163Y5130D01*
X21123Y5050D01*
X21163Y4970D01*
X21083Y5010D01*
X21003Y4970D01*
X19912Y4970D02*
X19952Y5050D01*
X19912Y5130D01*
X19992Y5090D01*
X20072Y5130D01*
X20032Y5050D01*
X20072Y4970D01*
X19992Y5010D01*
X19912Y4970D01*
X18820Y4970D02*
X18860Y5050D01*
X18820Y5130D01*
X18900Y5090D01*
X18980Y5130D01*
X18940Y5050D01*
X18980Y4970D01*
X18900Y5010D01*
X18820Y4970D01*
X17728D02*
X17768Y5050D01*
X17728Y5130D01*
X17808Y5090D01*
X17888Y5130D01*
X17848Y5050D01*
X17888Y4970D01*
X17808Y5010D01*
X17728Y4970D01*
X17370Y17970D02*
Y18130D01*
X17530D01*
Y17970D01*
X17370D01*
Y16970D02*
Y17130D01*
X17530D01*
Y16970D01*
X17370D01*
X29820Y14320D02*
Y14480D01*
X29980D01*
Y14320D01*
X29820D01*
Y13320D02*
Y13480D01*
X29980D01*
Y13320D01*
X29820D01*
X10770Y18400D02*
X10850Y18480D01*
X10930Y18400D01*
X10850Y18320D01*
X10770Y18400D01*
Y17400D02*
X10850Y17480D01*
X10930Y17400D01*
X10850Y17320D01*
X10770Y17400D01*
Y13400D02*
X10850Y13480D01*
X10930Y13400D01*
X10850Y13320D01*
X10770Y13400D01*
Y11400D02*
X10850Y11480D01*
X10930Y11400D01*
X10850Y11320D01*
X10770Y11400D01*
Y15400D02*
X10850Y15480D01*
X10930Y15400D01*
X10850Y15320D01*
X10770Y15400D01*
Y14400D02*
X10850Y14480D01*
X10930Y14400D01*
X10850Y14320D01*
X10770Y14400D01*
Y16400D02*
X10850Y16480D01*
X10930Y16400D01*
X10850Y16320D01*
X10770Y16400D01*
Y12400D02*
X10850Y12480D01*
X10930Y12400D01*
X10850Y12320D01*
X10770Y12400D01*
Y19400D02*
X10850Y19480D01*
X10930Y19400D01*
X10850Y19320D01*
X10770Y19400D01*
Y20400D02*
X10850Y20480D01*
X10930Y20400D01*
X10850Y20320D01*
X10770Y20400D01*
Y21400D02*
X10850Y21480D01*
X10930Y21400D01*
X10850Y21320D01*
X10770Y21400D01*
Y22400D02*
X10850Y22480D01*
X10930Y22400D01*
X10850Y22320D01*
X10770Y22400D01*
Y23400D02*
X10850Y23480D01*
X10930Y23400D01*
X10850Y23320D01*
X10770Y23400D01*
Y24400D02*
X10850Y24480D01*
X10930Y24400D01*
X10850Y24320D01*
X10770Y24400D01*
Y25400D02*
X10850Y25480D01*
X10930Y25400D01*
X10850Y25320D01*
X10770Y25400D01*
Y26400D02*
X10850Y26480D01*
X10930Y26400D01*
X10850Y26320D01*
X10770Y26400D01*
X15650Y19970D02*
X15690Y20010D01*
X15730D01*
X15690Y20050D01*
X15730Y20090D01*
X15690D01*
X15650Y20130D01*
X15610Y20090D01*
X15570D01*
X15610Y20050D01*
X15570Y20010D01*
X15610D01*
X15650Y19970D01*
Y20010D02*
X15670Y20030D01*
X15690D01*
X15670Y20050D01*
X15690Y20070D01*
X15670D01*
X15650Y20090D01*
X15630Y20070D01*
X15610D01*
X15630Y20050D01*
X15610Y20030D01*
X15630D01*
X15650Y20010D01*
Y21970D02*
X15690Y22010D01*
X15730D01*
X15690Y22050D01*
X15730Y22090D01*
X15690D01*
X15650Y22130D01*
X15610Y22090D01*
X15570D01*
X15610Y22050D01*
X15570Y22010D01*
X15610D01*
X15650Y21970D01*
Y22010D02*
X15670Y22030D01*
X15690D01*
X15670Y22050D01*
X15690Y22070D01*
X15670D01*
X15650Y22090D01*
X15630Y22070D01*
X15610D01*
X15630Y22050D01*
X15610Y22030D01*
X15630D01*
X15650Y22010D01*
X28520Y26450D02*
X28600Y26530D01*
X28680Y26450D01*
X28600Y26370D01*
X28520Y26450D01*
Y25450D02*
X28600Y25530D01*
X28680Y25450D01*
X28600Y25370D01*
X28520Y25450D01*
Y24450D02*
X28600Y24530D01*
X28680Y24450D01*
X28600Y24370D01*
X28520Y24450D01*
Y23450D02*
X28600Y23530D01*
X28680Y23450D01*
X28600Y23370D01*
X28520Y23450D01*
Y22450D02*
X28600Y22530D01*
X28680Y22450D01*
X28600Y22370D01*
X28520Y22450D01*
Y21450D02*
X28600Y21530D01*
X28680Y21450D01*
X28600Y21370D01*
X28520Y21450D01*
Y20450D02*
X28600Y20530D01*
X28680Y20450D01*
X28600Y20370D01*
X28520Y20450D01*
Y19450D02*
X28600Y19530D01*
X28680Y19450D01*
X28600Y19370D01*
X28520Y19450D01*
Y12450D02*
X28600Y12530D01*
X28680Y12450D01*
X28600Y12370D01*
X28520Y12450D01*
Y16450D02*
X28600Y16530D01*
X28680Y16450D01*
X28600Y16370D01*
X28520Y16450D01*
Y14450D02*
X28600Y14530D01*
X28680Y14450D01*
X28600Y14370D01*
X28520Y14450D01*
Y15450D02*
X28600Y15530D01*
X28680Y15450D01*
X28600Y15370D01*
X28520Y15450D01*
Y11450D02*
X28600Y11530D01*
X28680Y11450D01*
X28600Y11370D01*
X28520Y11450D01*
Y13450D02*
X28600Y13530D01*
X28680Y13450D01*
X28600Y13370D01*
X28520Y13450D01*
Y17450D02*
X28600Y17530D01*
X28680Y17450D01*
X28600Y17370D01*
X28520Y17450D01*
Y18450D02*
X28600Y18530D01*
X28680Y18450D01*
X28600Y18370D01*
X28520Y18450D01*
X25952Y32340D02*
Y32300D01*
X26032D01*
Y32340D01*
X26072D01*
Y32420D01*
X26032D01*
Y32460D01*
X25952D01*
Y32420D01*
X25912D01*
Y32340D01*
X25952D01*
X25972Y32360D02*
Y32340D01*
X26012D01*
Y32360D01*
X26032D01*
Y32400D01*
X26012D01*
Y32420D01*
X25972D01*
Y32400D01*
X25952D01*
Y32360D01*
X25972D01*
X25555Y29060D02*
Y29020D01*
X25635D01*
Y29060D01*
X25675D01*
Y29140D01*
X25635D01*
Y29180D01*
X25555D01*
Y29140D01*
X25515D01*
Y29060D01*
X25555D01*
X25575Y29080D02*
Y29060D01*
X25615D01*
Y29080D01*
X25635D01*
Y29120D01*
X25615D01*
Y29140D01*
X25575D01*
Y29120D01*
X25555D01*
Y29080D01*
X25575D01*
X24330Y27780D02*
Y27740D01*
X24410D01*
Y27780D01*
X24450D01*
Y27860D01*
X24410D01*
Y27900D01*
X24330D01*
Y27860D01*
X24290D01*
Y27780D01*
X24330D01*
X24350Y27800D02*
Y27780D01*
X24390D01*
Y27800D01*
X24410D01*
Y27840D01*
X24390D01*
Y27860D01*
X24350D01*
Y27840D01*
X24330D01*
Y27800D01*
X24350D01*
X25610Y27310D02*
Y27270D01*
X25690D01*
Y27310D01*
X25730D01*
Y27390D01*
X25690D01*
Y27430D01*
X25610D01*
Y27390D01*
X25570D01*
Y27310D01*
X25610D01*
X25630Y27330D02*
Y27310D01*
X25670D01*
Y27330D01*
X25690D01*
Y27370D01*
X25670D01*
Y27390D01*
X25630D01*
Y27370D01*
X25610D01*
Y27330D01*
X25630D01*
X24060Y26860D02*
Y26820D01*
X24140D01*
Y26860D01*
X24180D01*
Y26940D01*
X24140D01*
Y26980D01*
X24060D01*
Y26940D01*
X24020D01*
Y26860D01*
X24060D01*
X24080Y26880D02*
Y26860D01*
X24120D01*
Y26880D01*
X24140D01*
Y26920D01*
X24120D01*
Y26940D01*
X24080D01*
Y26920D01*
X24060D01*
Y26880D01*
X24080D01*
X24260Y23160D02*
Y23120D01*
X24340D01*
Y23160D01*
X24380D01*
Y23240D01*
X24340D01*
Y23280D01*
X24260D01*
Y23240D01*
X24220D01*
Y23160D01*
X24260D01*
X24280Y23180D02*
Y23160D01*
X24320D01*
Y23180D01*
X24340D01*
Y23220D01*
X24320D01*
Y23240D01*
X24280D01*
Y23220D01*
X24260D01*
Y23180D01*
X24280D01*
X30950Y27740D02*
Y27700D01*
X31030D01*
Y27740D01*
X31070D01*
Y27820D01*
X31030D01*
Y27860D01*
X30950D01*
Y27820D01*
X30910D01*
Y27740D01*
X30950D01*
X30970Y27760D02*
Y27740D01*
X31010D01*
Y27760D01*
X31030D01*
Y27800D01*
X31010D01*
Y27820D01*
X30970D01*
Y27800D01*
X30950D01*
Y27760D01*
X30970D01*
X30685Y27380D02*
Y27340D01*
X30765D01*
Y27380D01*
X30805D01*
Y27460D01*
X30765D01*
Y27500D01*
X30685D01*
Y27460D01*
X30645D01*
Y27380D01*
X30685D01*
X30705Y27400D02*
Y27380D01*
X30745D01*
Y27400D01*
X30765D01*
Y27440D01*
X30745D01*
Y27460D01*
X30705D01*
Y27440D01*
X30685D01*
Y27400D01*
X30705D01*
X30405Y24500D02*
Y24460D01*
X30485D01*
Y24500D01*
X30525D01*
Y24580D01*
X30485D01*
Y24620D01*
X30405D01*
Y24580D01*
X30365D01*
Y24500D01*
X30405D01*
X30425Y24520D02*
Y24500D01*
X30465D01*
Y24520D01*
X30485D01*
Y24560D01*
X30465D01*
Y24580D01*
X30425D01*
Y24560D01*
X30405D01*
Y24520D01*
X30425D01*
X15210Y23960D02*
Y23920D01*
X15290D01*
Y23960D01*
X15330D01*
Y24040D01*
X15290D01*
Y24080D01*
X15210D01*
Y24040D01*
X15170D01*
Y23960D01*
X15210D01*
X15230Y23980D02*
Y23960D01*
X15270D01*
Y23980D01*
X15290D01*
Y24020D01*
X15270D01*
Y24040D01*
X15230D01*
Y24020D01*
X15210D01*
Y23980D01*
X15230D01*
X13560Y26160D02*
Y26120D01*
X13640D01*
Y26160D01*
X13680D01*
Y26240D01*
X13640D01*
Y26280D01*
X13560D01*
Y26240D01*
X13520D01*
Y26160D01*
X13560D01*
X13580Y26180D02*
Y26160D01*
X13620D01*
Y26180D01*
X13640D01*
Y26220D01*
X13620D01*
Y26240D01*
X13580D01*
Y26220D01*
X13560D01*
Y26180D01*
X13580D01*
X22676Y5260D02*
Y5220D01*
X22756D01*
Y5260D01*
X22796D01*
Y5340D01*
X22756D01*
Y5380D01*
X22676D01*
Y5340D01*
X22636D01*
Y5260D01*
X22676D01*
X22696Y5280D02*
Y5260D01*
X22736D01*
Y5280D01*
X22756D01*
Y5320D01*
X22736D01*
Y5340D01*
X22696D01*
Y5320D01*
X22676D01*
Y5280D01*
X22696D01*
X22560Y6010D02*
Y5970D01*
X22640D01*
Y6010D01*
X22680D01*
Y6090D01*
X22640D01*
Y6130D01*
X22560D01*
Y6090D01*
X22520D01*
Y6010D01*
X22560D01*
X22580Y6030D02*
Y6010D01*
X22620D01*
Y6030D01*
X22640D01*
Y6070D01*
X22620D01*
Y6090D01*
X22580D01*
Y6070D01*
X22560D01*
Y6030D01*
X22580D01*
X17110Y3510D02*
Y3470D01*
X17190D01*
Y3510D01*
X17230D01*
Y3590D01*
X17190D01*
Y3630D01*
X17110D01*
Y3590D01*
X17070D01*
Y3510D01*
X17110D01*
X17130Y3530D02*
Y3510D01*
X17170D01*
Y3530D01*
X17190D01*
Y3570D01*
X17170D01*
Y3590D01*
X17130D01*
Y3570D01*
X17110D01*
Y3530D01*
X17130D01*
X17110Y4160D02*
Y4120D01*
X17190D01*
Y4160D01*
X17230D01*
Y4240D01*
X17190D01*
Y4280D01*
X17110D01*
Y4240D01*
X17070D01*
Y4160D01*
X17110D01*
X17130Y4180D02*
Y4160D01*
X17170D01*
Y4180D01*
X17190D01*
Y4220D01*
X17170D01*
Y4240D01*
X17130D01*
Y4220D01*
X17110D01*
Y4180D01*
X17130D01*
X12510Y1910D02*
Y1870D01*
X12590D01*
Y1910D01*
X12630D01*
Y1990D01*
X12590D01*
Y2030D01*
X12510D01*
Y1990D01*
X12470D01*
Y1910D01*
X12510D01*
X12530Y1930D02*
Y1910D01*
X12570D01*
Y1930D01*
X12590D01*
Y1970D01*
X12570D01*
Y1990D01*
X12530D01*
Y1970D01*
X12510D01*
Y1930D01*
X12530D01*
X12110Y1910D02*
Y1870D01*
X12190D01*
Y1910D01*
X12230D01*
Y1990D01*
X12190D01*
Y2030D01*
X12110D01*
Y1990D01*
X12070D01*
Y1910D01*
X12110D01*
X12130Y1930D02*
Y1910D01*
X12170D01*
Y1930D01*
X12190D01*
Y1970D01*
X12170D01*
Y1990D01*
X12130D01*
Y1970D01*
X12110D01*
Y1930D01*
X12130D01*
X6260Y1810D02*
Y1770D01*
X6340D01*
Y1810D01*
X6380D01*
Y1890D01*
X6340D01*
Y1930D01*
X6260D01*
Y1890D01*
X6220D01*
Y1810D01*
X6260D01*
X6280Y1830D02*
Y1810D01*
X6320D01*
Y1830D01*
X6340D01*
Y1870D01*
X6320D01*
Y1890D01*
X6280D01*
Y1870D01*
X6260D01*
Y1830D01*
X6280D01*
X5885Y1810D02*
Y1770D01*
X5965D01*
Y1810D01*
X6005D01*
Y1890D01*
X5965D01*
Y1930D01*
X5885D01*
Y1890D01*
X5845D01*
Y1810D01*
X5885D01*
X5905Y1830D02*
Y1810D01*
X5945D01*
Y1830D01*
X5965D01*
Y1870D01*
X5945D01*
Y1890D01*
X5905D01*
Y1870D01*
X5885D01*
Y1830D01*
X5905D01*
X11760Y1910D02*
Y1870D01*
X11840D01*
Y1910D01*
X11880D01*
Y1990D01*
X11840D01*
Y2030D01*
X11760D01*
Y1990D01*
X11720D01*
Y1910D01*
X11760D01*
X11780Y1930D02*
Y1910D01*
X11820D01*
Y1930D01*
X11840D01*
Y1970D01*
X11820D01*
Y1990D01*
X11780D01*
Y1970D01*
X11760D01*
Y1930D01*
X11780D01*
X5510Y1810D02*
Y1770D01*
X5590D01*
Y1810D01*
X5630D01*
Y1890D01*
X5590D01*
Y1930D01*
X5510D01*
Y1890D01*
X5470D01*
Y1810D01*
X5510D01*
X5530Y1830D02*
Y1810D01*
X5570D01*
Y1830D01*
X5590D01*
Y1870D01*
X5570D01*
Y1890D01*
X5530D01*
Y1870D01*
X5510D01*
Y1830D01*
X5530D01*
X2610Y3310D02*
Y3270D01*
X2690D01*
Y3310D01*
X2730D01*
Y3390D01*
X2690D01*
Y3430D01*
X2610D01*
Y3390D01*
X2570D01*
Y3310D01*
X2610D01*
X2630Y3330D02*
Y3310D01*
X2670D01*
Y3330D01*
X2690D01*
Y3370D01*
X2670D01*
Y3390D01*
X2630D01*
Y3370D01*
X2610D01*
Y3330D01*
X2630D01*
X5960Y36110D02*
Y36070D01*
X6040D01*
Y36110D01*
X6080D01*
Y36190D01*
X6040D01*
Y36230D01*
X5960D01*
Y36190D01*
X5920D01*
Y36110D01*
X5960D01*
X5980Y36130D02*
Y36110D01*
X6020D01*
Y36130D01*
X6040D01*
Y36170D01*
X6020D01*
Y36190D01*
X5980D01*
Y36170D01*
X5960D01*
Y36130D01*
X5980D01*
X2660Y37210D02*
Y37170D01*
X2740D01*
Y37210D01*
X2780D01*
Y37290D01*
X2740D01*
Y37330D01*
X2660D01*
Y37290D01*
X2620D01*
Y37210D01*
X2660D01*
X2680Y37230D02*
Y37210D01*
X2720D01*
Y37230D01*
X2740D01*
Y37270D01*
X2720D01*
Y37290D01*
X2680D01*
Y37270D01*
X2660D01*
Y37230D01*
X2680D01*
X4119Y2910D02*
Y2870D01*
X4199D01*
Y2910D01*
X4239D01*
Y2990D01*
X4199D01*
Y3030D01*
X4119D01*
Y2990D01*
X4079D01*
Y2910D01*
X4119D01*
X4139Y2930D02*
Y2910D01*
X4179D01*
Y2930D01*
X4199D01*
Y2970D01*
X4179D01*
Y2990D01*
X4139D01*
Y2970D01*
X4119D01*
Y2930D01*
X4139D01*
X3990Y2500D02*
Y2460D01*
X4070D01*
Y2500D01*
X4110D01*
Y2580D01*
X4070D01*
Y2620D01*
X3990D01*
Y2580D01*
X3950D01*
Y2500D01*
X3990D01*
X4010Y2520D02*
Y2500D01*
X4050D01*
Y2520D01*
X4070D01*
Y2560D01*
X4050D01*
Y2580D01*
X4010D01*
Y2560D01*
X3990D01*
Y2520D01*
X4010D01*
X4869Y2910D02*
Y2870D01*
X4949D01*
Y2910D01*
X4989D01*
Y2990D01*
X4949D01*
Y3030D01*
X4869D01*
Y2990D01*
X4829D01*
Y2910D01*
X4869D01*
X4889Y2930D02*
Y2910D01*
X4929D01*
Y2930D01*
X4949D01*
Y2970D01*
X4929D01*
Y2990D01*
X4889D01*
Y2970D01*
X4869D01*
Y2930D01*
X4889D01*
X20760Y24160D02*
Y24120D01*
X20840D01*
Y24160D01*
X20880D01*
Y24240D01*
X20840D01*
Y24280D01*
X20760D01*
Y24240D01*
X20720D01*
Y24160D01*
X20760D01*
X20780Y24180D02*
Y24160D01*
X20820D01*
Y24180D01*
X20840D01*
Y24220D01*
X20820D01*
Y24240D01*
X20780D01*
Y24220D01*
X20760D01*
Y24180D01*
X20780D01*
X22588Y21632D02*
Y21592D01*
X22668D01*
Y21632D01*
X22708D01*
Y21712D01*
X22668D01*
Y21752D01*
X22588D01*
Y21712D01*
X22548D01*
Y21632D01*
X22588D01*
X22608Y21652D02*
Y21632D01*
X22648D01*
Y21652D01*
X22668D01*
Y21692D01*
X22648D01*
Y21712D01*
X22608D01*
Y21692D01*
X22588D01*
Y21652D01*
X22608D01*
X23110Y22110D02*
Y22070D01*
X23190D01*
Y22110D01*
X23230D01*
Y22190D01*
X23190D01*
Y22230D01*
X23110D01*
Y22190D01*
X23070D01*
Y22110D01*
X23110D01*
X23130Y22130D02*
Y22110D01*
X23170D01*
Y22130D01*
X23190D01*
Y22170D01*
X23170D01*
Y22190D01*
X23130D01*
Y22170D01*
X23110D01*
Y22130D01*
X23130D01*
X23310Y21860D02*
Y21820D01*
X23390D01*
Y21860D01*
X23430D01*
Y21940D01*
X23390D01*
Y21980D01*
X23310D01*
Y21940D01*
X23270D01*
Y21860D01*
X23310D01*
X23330Y21880D02*
Y21860D01*
X23370D01*
Y21880D01*
X23390D01*
Y21920D01*
X23370D01*
Y21940D01*
X23330D01*
Y21920D01*
X23310D01*
Y21880D01*
X23330D01*
X22860Y22460D02*
Y22420D01*
X22940D01*
Y22460D01*
X22980D01*
Y22540D01*
X22940D01*
Y22580D01*
X22860D01*
Y22540D01*
X22820D01*
Y22460D01*
X22860D01*
X22880Y22480D02*
Y22460D01*
X22920D01*
Y22480D01*
X22940D01*
Y22520D01*
X22920D01*
Y22540D01*
X22880D01*
Y22520D01*
X22860D01*
Y22480D01*
X22880D01*
X23210Y17310D02*
Y17270D01*
X23290D01*
Y17310D01*
X23330D01*
Y17390D01*
X23290D01*
Y17430D01*
X23210D01*
Y17390D01*
X23170D01*
Y17310D01*
X23210D01*
X23230Y17330D02*
Y17310D01*
X23270D01*
Y17330D01*
X23290D01*
Y17370D01*
X23270D01*
Y17390D01*
X23230D01*
Y17370D01*
X23210D01*
Y17330D01*
X23230D01*
X23760Y14410D02*
Y14370D01*
X23840D01*
Y14410D01*
X23880D01*
Y14490D01*
X23840D01*
Y14530D01*
X23760D01*
Y14490D01*
X23720D01*
Y14410D01*
X23760D01*
X23780Y14430D02*
Y14410D01*
X23820D01*
Y14430D01*
X23840D01*
Y14470D01*
X23820D01*
Y14490D01*
X23780D01*
Y14470D01*
X23760D01*
Y14430D01*
X23780D01*
X20760Y20460D02*
Y20420D01*
X20840D01*
Y20460D01*
X20880D01*
Y20540D01*
X20840D01*
Y20580D01*
X20760D01*
Y20540D01*
X20720D01*
Y20460D01*
X20760D01*
X20780Y20480D02*
Y20460D01*
X20820D01*
Y20480D01*
X20840D01*
Y20520D01*
X20820D01*
Y20540D01*
X20780D01*
Y20520D01*
X20760D01*
Y20480D01*
X20780D01*
X21061Y21009D02*
Y20969D01*
X21141D01*
Y21009D01*
X21181D01*
Y21089D01*
X21141D01*
Y21129D01*
X21061D01*
Y21089D01*
X21021D01*
Y21009D01*
X21061D01*
X21081Y21029D02*
Y21009D01*
X21121D01*
Y21029D01*
X21141D01*
Y21069D01*
X21121D01*
Y21089D01*
X21081D01*
Y21069D01*
X21061D01*
Y21029D01*
X21081D01*
X21760Y24560D02*
Y24520D01*
X21840D01*
Y24560D01*
X21880D01*
Y24640D01*
X21840D01*
Y24680D01*
X21760D01*
Y24640D01*
X21720D01*
Y24560D01*
X21760D01*
X21780Y24580D02*
Y24560D01*
X21820D01*
Y24580D01*
X21840D01*
Y24620D01*
X21820D01*
Y24640D01*
X21780D01*
Y24620D01*
X21760D01*
Y24580D01*
X21780D01*
X21760Y23910D02*
Y23870D01*
X21840D01*
Y23910D01*
X21880D01*
Y23990D01*
X21840D01*
Y24030D01*
X21760D01*
Y23990D01*
X21720D01*
Y23910D01*
X21760D01*
X21780Y23930D02*
Y23910D01*
X21820D01*
Y23930D01*
X21840D01*
Y23970D01*
X21820D01*
Y23990D01*
X21780D01*
Y23970D01*
X21760D01*
Y23930D01*
X21780D01*
X22210Y23860D02*
Y23820D01*
X22290D01*
Y23860D01*
X22330D01*
Y23940D01*
X22290D01*
Y23980D01*
X22210D01*
Y23940D01*
X22170D01*
Y23860D01*
X22210D01*
X22230Y23880D02*
Y23860D01*
X22270D01*
Y23880D01*
X22290D01*
Y23920D01*
X22270D01*
Y23940D01*
X22230D01*
Y23920D01*
X22210D01*
Y23880D01*
X22230D01*
X3470Y1820D02*
Y1780D01*
X3550D01*
Y1820D01*
X3590D01*
Y1900D01*
X3550D01*
Y1940D01*
X3470D01*
Y1900D01*
X3430D01*
Y1820D01*
X3470D01*
X3490Y1840D02*
Y1820D01*
X3530D01*
Y1840D01*
X3550D01*
Y1880D01*
X3530D01*
Y1900D01*
X3490D01*
Y1880D01*
X3470D01*
Y1840D01*
X3490D01*
X3470Y2180D02*
Y2140D01*
X3550D01*
Y2180D01*
X3590D01*
Y2260D01*
X3550D01*
Y2300D01*
X3470D01*
Y2260D01*
X3430D01*
Y2180D01*
X3470D01*
X3490Y2200D02*
Y2180D01*
X3530D01*
Y2200D01*
X3550D01*
Y2240D01*
X3530D01*
Y2260D01*
X3490D01*
Y2240D01*
X3470D01*
Y2200D01*
X3490D01*
X3470Y2500D02*
Y2460D01*
X3550D01*
Y2500D01*
X3590D01*
Y2580D01*
X3550D01*
Y2620D01*
X3470D01*
Y2580D01*
X3430D01*
Y2500D01*
X3470D01*
X3490Y2520D02*
Y2500D01*
X3530D01*
Y2520D01*
X3550D01*
Y2560D01*
X3530D01*
Y2580D01*
X3490D01*
Y2560D01*
X3470D01*
Y2520D01*
X3490D01*
X7950Y14820D02*
Y14780D01*
X8030D01*
Y14820D01*
X8070D01*
Y14900D01*
X8030D01*
Y14940D01*
X7950D01*
Y14900D01*
X7910D01*
Y14820D01*
X7950D01*
X7970Y14840D02*
Y14820D01*
X8010D01*
Y14840D01*
X8030D01*
Y14880D01*
X8010D01*
Y14900D01*
X7970D01*
Y14880D01*
X7950D01*
Y14840D01*
X7970D01*
X7550Y14820D02*
Y14780D01*
X7630D01*
Y14820D01*
X7670D01*
Y14900D01*
X7630D01*
Y14940D01*
X7550D01*
Y14900D01*
X7510D01*
Y14820D01*
X7550D01*
X7570Y14840D02*
Y14820D01*
X7610D01*
Y14840D01*
X7630D01*
Y14880D01*
X7610D01*
Y14900D01*
X7570D01*
Y14880D01*
X7550D01*
Y14840D01*
X7570D01*
X7110Y14820D02*
Y14780D01*
X7190D01*
Y14820D01*
X7230D01*
Y14900D01*
X7190D01*
Y14940D01*
X7110D01*
Y14900D01*
X7070D01*
Y14820D01*
X7110D01*
X7130Y14840D02*
Y14820D01*
X7170D01*
Y14840D01*
X7190D01*
Y14880D01*
X7170D01*
Y14900D01*
X7130D01*
Y14880D01*
X7110D01*
Y14840D01*
X7130D01*
X6670Y14820D02*
Y14780D01*
X6750D01*
Y14820D01*
X6790D01*
Y14900D01*
X6750D01*
Y14940D01*
X6670D01*
Y14900D01*
X6630D01*
Y14820D01*
X6670D01*
X6690Y14840D02*
Y14820D01*
X6730D01*
Y14840D01*
X6750D01*
Y14880D01*
X6730D01*
Y14900D01*
X6690D01*
Y14880D01*
X6670D01*
Y14840D01*
X6690D01*
X19610Y20210D02*
Y20170D01*
X19690D01*
Y20210D01*
X19730D01*
Y20290D01*
X19690D01*
Y20330D01*
X19610D01*
Y20290D01*
X19570D01*
Y20210D01*
X19610D01*
X19630Y20230D02*
Y20210D01*
X19670D01*
Y20230D01*
X19690D01*
Y20270D01*
X19670D01*
Y20290D01*
X19630D01*
Y20270D01*
X19610D01*
Y20230D01*
X19630D01*
X18960Y20860D02*
Y20820D01*
X19040D01*
Y20860D01*
X19080D01*
Y20940D01*
X19040D01*
Y20980D01*
X18960D01*
Y20940D01*
X18920D01*
Y20860D01*
X18960D01*
X18980Y20880D02*
Y20860D01*
X19020D01*
Y20880D01*
X19040D01*
Y20920D01*
X19020D01*
Y20940D01*
X18980D01*
Y20920D01*
X18960D01*
Y20880D01*
X18980D01*
X17860Y18860D02*
Y18820D01*
X17940D01*
Y18860D01*
X17980D01*
Y18940D01*
X17940D01*
Y18980D01*
X17860D01*
Y18940D01*
X17820D01*
Y18860D01*
X17860D01*
X17880Y18880D02*
Y18860D01*
X17920D01*
Y18880D01*
X17940D01*
Y18920D01*
X17920D01*
Y18940D01*
X17880D01*
Y18920D01*
X17860D01*
Y18880D01*
X17880D01*
X17125Y19045D02*
Y19005D01*
X17205D01*
Y19045D01*
X17245D01*
Y19125D01*
X17205D01*
Y19165D01*
X17125D01*
Y19125D01*
X17085D01*
Y19045D01*
X17125D01*
X17145Y19065D02*
Y19045D01*
X17185D01*
Y19065D01*
X17205D01*
Y19105D01*
X17185D01*
Y19125D01*
X17145D01*
Y19105D01*
X17125D01*
Y19065D01*
X17145D01*
X17616Y20005D02*
Y19965D01*
X17696D01*
Y20005D01*
X17736D01*
Y20085D01*
X17696D01*
Y20125D01*
X17616D01*
Y20085D01*
X17576D01*
Y20005D01*
X17616D01*
X17636Y20025D02*
Y20005D01*
X17676D01*
Y20025D01*
X17696D01*
Y20065D01*
X17676D01*
Y20085D01*
X17636D01*
Y20065D01*
X17616D01*
Y20025D01*
X17636D01*
X17660Y19310D02*
Y19270D01*
X17740D01*
Y19310D01*
X17780D01*
Y19390D01*
X17740D01*
Y19430D01*
X17660D01*
Y19390D01*
X17620D01*
Y19310D01*
X17660D01*
X17680Y19330D02*
Y19310D01*
X17720D01*
Y19330D01*
X17740D01*
Y19370D01*
X17720D01*
Y19390D01*
X17680D01*
Y19370D01*
X17660D01*
Y19330D01*
X17680D01*
X16510Y18760D02*
Y18720D01*
X16590D01*
Y18760D01*
X16630D01*
Y18840D01*
X16590D01*
Y18880D01*
X16510D01*
Y18840D01*
X16470D01*
Y18760D01*
X16510D01*
X16530Y18780D02*
Y18760D01*
X16570D01*
Y18780D01*
X16590D01*
Y18820D01*
X16570D01*
Y18840D01*
X16530D01*
Y18820D01*
X16510D01*
Y18780D01*
X16530D01*
X7210Y6460D02*
Y6420D01*
X7290D01*
Y6460D01*
X7330D01*
Y6540D01*
X7290D01*
Y6580D01*
X7210D01*
Y6540D01*
X7170D01*
Y6460D01*
X7210D01*
X7230Y6480D02*
Y6460D01*
X7270D01*
Y6480D01*
X7290D01*
Y6520D01*
X7270D01*
Y6540D01*
X7230D01*
Y6520D01*
X7210D01*
Y6480D01*
X7230D01*
X30910Y36780D02*
Y36740D01*
X30990D01*
Y36780D01*
X31030D01*
Y36860D01*
X30990D01*
Y36900D01*
X30910D01*
Y36860D01*
X30870D01*
Y36780D01*
X30910D01*
X30930Y36800D02*
Y36780D01*
X30970D01*
Y36800D01*
X30990D01*
Y36840D01*
X30970D01*
Y36860D01*
X30930D01*
Y36840D01*
X30910D01*
Y36800D01*
X30930D01*
X31470Y36780D02*
Y36740D01*
X31550D01*
Y36780D01*
X31590D01*
Y36860D01*
X31550D01*
Y36900D01*
X31470D01*
Y36860D01*
X31430D01*
Y36780D01*
X31470D01*
X31490Y36800D02*
Y36780D01*
X31530D01*
Y36800D01*
X31550D01*
Y36840D01*
X31530D01*
Y36860D01*
X31490D01*
Y36840D01*
X31470D01*
Y36800D01*
X31490D01*
X31470Y37140D02*
Y37100D01*
X31550D01*
Y37140D01*
X31590D01*
Y37220D01*
X31550D01*
Y37260D01*
X31470D01*
Y37220D01*
X31430D01*
Y37140D01*
X31470D01*
X31490Y37160D02*
Y37140D01*
X31530D01*
Y37160D01*
X31550D01*
Y37200D01*
X31530D01*
Y37220D01*
X31490D01*
Y37200D01*
X31470D01*
Y37160D01*
X31490D01*
X30910Y37140D02*
Y37100D01*
X30990D01*
Y37140D01*
X31030D01*
Y37220D01*
X30990D01*
Y37260D01*
X30910D01*
Y37220D01*
X30870D01*
Y37140D01*
X30910D01*
X30930Y37160D02*
Y37140D01*
X30970D01*
Y37160D01*
X30990D01*
Y37200D01*
X30970D01*
Y37220D01*
X30930D01*
Y37200D01*
X30910D01*
Y37160D01*
X30930D01*
X31070Y32860D02*
Y32820D01*
X31150D01*
Y32860D01*
X31190D01*
Y32940D01*
X31150D01*
Y32980D01*
X31070D01*
Y32940D01*
X31030D01*
Y32860D01*
X31070D01*
X31090Y32880D02*
Y32860D01*
X31130D01*
Y32880D01*
X31150D01*
Y32920D01*
X31130D01*
Y32940D01*
X31090D01*
Y32920D01*
X31070D01*
Y32880D01*
X31090D01*
X30690Y32860D02*
Y32820D01*
X30770D01*
Y32860D01*
X30810D01*
Y32940D01*
X30770D01*
Y32980D01*
X30690D01*
Y32940D01*
X30650D01*
Y32860D01*
X30690D01*
X30710Y32880D02*
Y32860D01*
X30750D01*
Y32880D01*
X30770D01*
Y32920D01*
X30750D01*
Y32940D01*
X30710D01*
Y32920D01*
X30690D01*
Y32880D01*
X30710D01*
X30310Y32860D02*
Y32820D01*
X30390D01*
Y32860D01*
X30430D01*
Y32940D01*
X30390D01*
Y32980D01*
X30310D01*
Y32940D01*
X30270D01*
Y32860D01*
X30310D01*
X30330Y32880D02*
Y32860D01*
X30370D01*
Y32880D01*
X30390D01*
Y32920D01*
X30370D01*
Y32940D01*
X30330D01*
Y32920D01*
X30310D01*
Y32880D01*
X30330D01*
X31710Y34060D02*
Y34020D01*
X31790D01*
Y34060D01*
X31830D01*
Y34140D01*
X31790D01*
Y34180D01*
X31710D01*
Y34140D01*
X31670D01*
Y34060D01*
X31710D01*
X31730Y34080D02*
Y34060D01*
X31770D01*
Y34080D01*
X31790D01*
Y34120D01*
X31770D01*
Y34140D01*
X31730D01*
Y34120D01*
X31710D01*
Y34080D01*
X31730D01*
X31350Y34060D02*
Y34020D01*
X31430D01*
Y34060D01*
X31470D01*
Y34140D01*
X31430D01*
Y34180D01*
X31350D01*
Y34140D01*
X31310D01*
Y34060D01*
X31350D01*
X31370Y34080D02*
Y34060D01*
X31410D01*
Y34080D01*
X31430D01*
Y34120D01*
X31410D01*
Y34140D01*
X31370D01*
Y34120D01*
X31350D01*
Y34080D01*
X31370D01*
X30990Y34060D02*
Y34020D01*
X31070D01*
Y34060D01*
X31110D01*
Y34140D01*
X31070D01*
Y34180D01*
X30990D01*
Y34140D01*
X30950D01*
Y34060D01*
X30990D01*
X31010Y34080D02*
Y34060D01*
X31050D01*
Y34080D01*
X31070D01*
Y34120D01*
X31050D01*
Y34140D01*
X31010D01*
Y34120D01*
X30990D01*
Y34080D01*
X31010D01*
X6110Y25410D02*
Y25370D01*
X6190D01*
Y25410D01*
X6230D01*
Y25490D01*
X6190D01*
Y25530D01*
X6110D01*
Y25490D01*
X6070D01*
Y25410D01*
X6110D01*
X6130Y25430D02*
Y25410D01*
X6170D01*
Y25430D01*
X6190D01*
Y25470D01*
X6170D01*
Y25490D01*
X6130D01*
Y25470D01*
X6110D01*
Y25430D01*
X6130D01*
X29360Y16910D02*
Y16870D01*
X29440D01*
Y16910D01*
X29480D01*
Y16990D01*
X29440D01*
Y17030D01*
X29360D01*
Y16990D01*
X29320D01*
Y16910D01*
X29360D01*
X29380Y16930D02*
Y16910D01*
X29420D01*
Y16930D01*
X29440D01*
Y16970D01*
X29420D01*
Y16990D01*
X29380D01*
Y16970D01*
X29360D01*
Y16930D01*
X29380D01*
X16360Y17410D02*
Y17370D01*
X16440D01*
Y17410D01*
X16480D01*
Y17490D01*
X16440D01*
Y17530D01*
X16360D01*
Y17490D01*
X16320D01*
Y17410D01*
X16360D01*
X16380Y17430D02*
Y17410D01*
X16420D01*
Y17430D01*
X16440D01*
Y17470D01*
X16420D01*
Y17490D01*
X16380D01*
Y17470D01*
X16360D01*
Y17430D01*
X16380D01*
X16260Y13460D02*
Y13420D01*
X16340D01*
Y13460D01*
X16380D01*
Y13540D01*
X16340D01*
Y13580D01*
X16260D01*
Y13540D01*
X16220D01*
Y13460D01*
X16260D01*
X16280Y13480D02*
Y13460D01*
X16320D01*
Y13480D01*
X16340D01*
Y13520D01*
X16320D01*
Y13540D01*
X16280D01*
Y13520D01*
X16260D01*
Y13480D01*
X16280D01*
X15960Y13760D02*
Y13720D01*
X16040D01*
Y13760D01*
X16080D01*
Y13840D01*
X16040D01*
Y13880D01*
X15960D01*
Y13840D01*
X15920D01*
Y13760D01*
X15960D01*
X15980Y13780D02*
Y13760D01*
X16020D01*
Y13780D01*
X16040D01*
Y13820D01*
X16020D01*
Y13840D01*
X15980D01*
Y13820D01*
X15960D01*
Y13780D01*
X15980D01*
X16510Y13210D02*
Y13170D01*
X16590D01*
Y13210D01*
X16630D01*
Y13290D01*
X16590D01*
Y13330D01*
X16510D01*
Y13290D01*
X16470D01*
Y13210D01*
X16510D01*
X16530Y13230D02*
Y13210D01*
X16570D01*
Y13230D01*
X16590D01*
Y13270D01*
X16570D01*
Y13290D01*
X16530D01*
Y13270D01*
X16510D01*
Y13230D01*
X16530D01*
X22037Y21365D02*
Y21325D01*
X22117D01*
Y21365D01*
X22157D01*
Y21445D01*
X22117D01*
Y21485D01*
X22037D01*
Y21445D01*
X21997D01*
Y21365D01*
X22037D01*
X22057Y21385D02*
Y21365D01*
X22097D01*
Y21385D01*
X22117D01*
Y21425D01*
X22097D01*
Y21445D01*
X22057D01*
Y21425D01*
X22037D01*
Y21385D01*
X22057D01*
X20510Y14410D02*
Y14370D01*
X20590D01*
Y14410D01*
X20630D01*
Y14490D01*
X20590D01*
Y14530D01*
X20510D01*
Y14490D01*
X20470D01*
Y14410D01*
X20510D01*
X20530Y14430D02*
Y14410D01*
X20570D01*
Y14430D01*
X20590D01*
Y14470D01*
X20570D01*
Y14490D01*
X20530D01*
Y14470D01*
X20510D01*
Y14430D01*
X20530D01*
X20060Y21510D02*
Y21470D01*
X20140D01*
Y21510D01*
X20180D01*
Y21590D01*
X20140D01*
Y21630D01*
X20060D01*
Y21590D01*
X20020D01*
Y21510D01*
X20060D01*
X20080Y21530D02*
Y21510D01*
X20120D01*
Y21530D01*
X20140D01*
Y21570D01*
X20120D01*
Y21590D01*
X20080D01*
Y21570D01*
X20060D01*
Y21530D01*
X20080D01*
X26260Y25119D02*
Y25079D01*
X26340D01*
Y25119D01*
X26380D01*
Y25199D01*
X26340D01*
Y25239D01*
X26260D01*
Y25199D01*
X26220D01*
Y25119D01*
X26260D01*
X26280Y25139D02*
Y25119D01*
X26320D01*
Y25139D01*
X26340D01*
Y25179D01*
X26320D01*
Y25199D01*
X26280D01*
Y25179D01*
X26260D01*
Y25139D01*
X26280D01*
X21960Y22710D02*
Y22670D01*
X22040D01*
Y22710D01*
X22080D01*
Y22790D01*
X22040D01*
Y22830D01*
X21960D01*
Y22790D01*
X21920D01*
Y22710D01*
X21960D01*
X21980Y22730D02*
Y22710D01*
X22020D01*
Y22730D01*
X22040D01*
Y22770D01*
X22020D01*
Y22790D01*
X21980D01*
Y22770D01*
X21960D01*
Y22730D01*
X21980D01*
X22310Y22710D02*
Y22670D01*
X22390D01*
Y22710D01*
X22430D01*
Y22790D01*
X22390D01*
Y22830D01*
X22310D01*
Y22790D01*
X22270D01*
Y22710D01*
X22310D01*
X22330Y22730D02*
Y22710D01*
X22370D01*
Y22730D01*
X22390D01*
Y22770D01*
X22370D01*
Y22790D01*
X22330D01*
Y22770D01*
X22310D01*
Y22730D01*
X22330D01*
X22121Y19871D02*
Y19831D01*
X22201D01*
Y19871D01*
X22241D01*
Y19951D01*
X22201D01*
Y19991D01*
X22121D01*
Y19951D01*
X22081D01*
Y19871D01*
X22121D01*
X22141Y19891D02*
Y19871D01*
X22181D01*
Y19891D01*
X22201D01*
Y19931D01*
X22181D01*
Y19951D01*
X22141D01*
Y19931D01*
X22121D01*
Y19891D01*
X22141D01*
X22960Y23085D02*
Y23045D01*
X23040D01*
Y23085D01*
X23080D01*
Y23165D01*
X23040D01*
Y23205D01*
X22960D01*
Y23165D01*
X22920D01*
Y23085D01*
X22960D01*
X22980Y23105D02*
Y23085D01*
X23020D01*
Y23105D01*
X23040D01*
Y23145D01*
X23020D01*
Y23165D01*
X22980D01*
Y23145D01*
X22960D01*
Y23105D01*
X22980D01*
X22910Y23510D02*
Y23470D01*
X22990D01*
Y23510D01*
X23030D01*
Y23590D01*
X22990D01*
Y23630D01*
X22910D01*
Y23590D01*
X22870D01*
Y23510D01*
X22910D01*
X22930Y23530D02*
Y23510D01*
X22970D01*
Y23530D01*
X22990D01*
Y23570D01*
X22970D01*
Y23590D01*
X22930D01*
Y23570D01*
X22910D01*
Y23530D01*
X22930D01*
X10910Y36160D02*
Y36120D01*
X10990D01*
Y36160D01*
X11030D01*
Y36240D01*
X10990D01*
Y36280D01*
X10910D01*
Y36240D01*
X10870D01*
Y36160D01*
X10910D01*
X10930Y36180D02*
Y36160D01*
X10970D01*
Y36180D01*
X10990D01*
Y36220D01*
X10970D01*
Y36240D01*
X10930D01*
Y36220D01*
X10910D01*
Y36180D01*
X10930D01*
X11160Y32860D02*
Y32820D01*
X11240D01*
Y32860D01*
X11280D01*
Y32940D01*
X11240D01*
Y32980D01*
X11160D01*
Y32940D01*
X11120D01*
Y32860D01*
X11160D01*
X11180Y32880D02*
Y32860D01*
X11220D01*
Y32880D01*
X11240D01*
Y32920D01*
X11220D01*
Y32940D01*
X11180D01*
Y32920D01*
X11160D01*
Y32880D01*
X11180D01*
X18610Y32910D02*
Y32870D01*
X18690D01*
Y32910D01*
X18730D01*
Y32990D01*
X18690D01*
Y33030D01*
X18610D01*
Y32990D01*
X18570D01*
Y32910D01*
X18610D01*
X18630Y32930D02*
Y32910D01*
X18670D01*
Y32930D01*
X18690D01*
Y32970D01*
X18670D01*
Y32990D01*
X18630D01*
Y32970D01*
X18610D01*
Y32930D01*
X18630D01*
X17610Y31310D02*
Y31270D01*
X17690D01*
Y31310D01*
X17730D01*
Y31390D01*
X17690D01*
Y31430D01*
X17610D01*
Y31390D01*
X17570D01*
Y31310D01*
X17610D01*
X17630Y31330D02*
Y31310D01*
X17670D01*
Y31330D01*
X17690D01*
Y31370D01*
X17670D01*
Y31390D01*
X17630D01*
Y31370D01*
X17610D01*
Y31330D01*
X17630D01*
X24760Y32560D02*
Y32520D01*
X24840D01*
Y32560D01*
X24880D01*
Y32640D01*
X24840D01*
Y32680D01*
X24760D01*
Y32640D01*
X24720D01*
Y32560D01*
X24760D01*
X24780Y32580D02*
Y32560D01*
X24820D01*
Y32580D01*
X24840D01*
Y32620D01*
X24820D01*
Y32640D01*
X24780D01*
Y32620D01*
X24760D01*
Y32580D01*
X24780D01*
X24260Y32560D02*
Y32520D01*
X24340D01*
Y32560D01*
X24380D01*
Y32640D01*
X24340D01*
Y32680D01*
X24260D01*
Y32640D01*
X24220D01*
Y32560D01*
X24260D01*
X24280Y32580D02*
Y32560D01*
X24320D01*
Y32580D01*
X24340D01*
Y32620D01*
X24320D01*
Y32640D01*
X24280D01*
Y32620D01*
X24260D01*
Y32580D01*
X24280D01*
X23760Y32560D02*
Y32520D01*
X23840D01*
Y32560D01*
X23880D01*
Y32640D01*
X23840D01*
Y32680D01*
X23760D01*
Y32640D01*
X23720D01*
Y32560D01*
X23760D01*
X23780Y32580D02*
Y32560D01*
X23820D01*
Y32580D01*
X23840D01*
Y32620D01*
X23820D01*
Y32640D01*
X23780D01*
Y32620D01*
X23760D01*
Y32580D01*
X23780D01*
X18110Y32610D02*
Y32570D01*
X18190D01*
Y32610D01*
X18230D01*
Y32690D01*
X18190D01*
Y32730D01*
X18110D01*
Y32690D01*
X18070D01*
Y32610D01*
X18110D01*
X18130Y32630D02*
Y32610D01*
X18170D01*
Y32630D01*
X18190D01*
Y32670D01*
X18170D01*
Y32690D01*
X18130D01*
Y32670D01*
X18110D01*
Y32630D01*
X18130D01*
X17110Y31310D02*
Y31270D01*
X17190D01*
Y31310D01*
X17230D01*
Y31390D01*
X17190D01*
Y31430D01*
X17110D01*
Y31390D01*
X17070D01*
Y31310D01*
X17110D01*
X17130Y31330D02*
Y31310D01*
X17170D01*
Y31330D01*
X17190D01*
Y31370D01*
X17170D01*
Y31390D01*
X17130D01*
Y31370D01*
X17110D01*
Y31330D01*
X17130D01*
X16610Y31310D02*
Y31270D01*
X16690D01*
Y31310D01*
X16730D01*
Y31390D01*
X16690D01*
Y31430D01*
X16610D01*
Y31390D01*
X16570D01*
Y31310D01*
X16610D01*
X16630Y31330D02*
Y31310D01*
X16670D01*
Y31330D01*
X16690D01*
Y31370D01*
X16670D01*
Y31390D01*
X16630D01*
Y31370D01*
X16610D01*
Y31330D01*
X16630D01*
X16110Y32610D02*
Y32570D01*
X16190D01*
Y32610D01*
X16230D01*
Y32690D01*
X16190D01*
Y32730D01*
X16110D01*
Y32690D01*
X16070D01*
Y32610D01*
X16110D01*
X16130Y32630D02*
Y32610D01*
X16170D01*
Y32630D01*
X16190D01*
Y32670D01*
X16170D01*
Y32690D01*
X16130D01*
Y32670D01*
X16110D01*
Y32630D01*
X16130D01*
X15610Y32610D02*
Y32570D01*
X15690D01*
Y32610D01*
X15730D01*
Y32690D01*
X15690D01*
Y32730D01*
X15610D01*
Y32690D01*
X15570D01*
Y32610D01*
X15610D01*
X15630Y32630D02*
Y32610D01*
X15670D01*
Y32630D01*
X15690D01*
Y32670D01*
X15670D01*
Y32690D01*
X15630D01*
Y32670D01*
X15610D01*
Y32630D01*
X15630D01*
X19070Y9220D02*
X19110D01*
X19150Y9260D01*
X19190Y9220D01*
X19230D01*
Y9260D01*
X19190Y9300D01*
X19230Y9340D01*
Y9380D01*
X19190D01*
X19150Y9340D01*
X19110Y9380D01*
X19070D01*
Y9340D01*
X19110Y9300D01*
X19070Y9260D01*
Y9220D01*
X19110Y9260D02*
X19130D01*
X19150Y9280D01*
X19170Y9260D01*
X19190D01*
Y9280D01*
X19170Y9300D01*
X19190Y9320D01*
Y9340D01*
X19170D01*
X19150Y9320D01*
X19130Y9340D01*
X19110D01*
Y9320D01*
X19130Y9300D01*
X19110Y9280D01*
Y9260D01*
X17877Y21642D02*
Y21602D01*
X17957D01*
Y21642D01*
X17997D01*
Y21722D01*
X17957D01*
Y21762D01*
X17877D01*
Y21722D01*
X17837D01*
Y21642D01*
X17877D01*
X17897Y21662D02*
Y21642D01*
X17937D01*
Y21662D01*
X17957D01*
Y21702D01*
X17937D01*
Y21722D01*
X17897D01*
Y21702D01*
X17877D01*
Y21662D01*
X17897D01*
X17660Y22210D02*
Y22170D01*
X17740D01*
Y22210D01*
X17780D01*
Y22290D01*
X17740D01*
Y22330D01*
X17660D01*
Y22290D01*
X17620D01*
Y22210D01*
X17660D01*
X17680Y22230D02*
Y22210D01*
X17720D01*
Y22230D01*
X17740D01*
Y22270D01*
X17720D01*
Y22290D01*
X17680D01*
Y22270D01*
X17660D01*
Y22230D01*
X17680D01*
X22710Y23760D02*
Y23720D01*
X22790D01*
Y23760D01*
X22830D01*
Y23840D01*
X22790D01*
Y23880D01*
X22710D01*
Y23840D01*
X22670D01*
Y23760D01*
X22710D01*
X22730Y23780D02*
Y23760D01*
X22770D01*
Y23780D01*
X22790D01*
Y23820D01*
X22770D01*
Y23840D01*
X22730D01*
Y23820D01*
X22710D01*
Y23780D01*
X22730D01*
X27920Y28820D02*
X27960D01*
X28000Y28860D01*
X28040Y28820D01*
X28080D01*
Y28860D01*
X28040Y28900D01*
X28080Y28940D01*
Y28980D01*
X28040D01*
X28000Y28940D01*
X27960Y28980D01*
X27920D01*
Y28940D01*
X27960Y28900D01*
X27920Y28860D01*
Y28820D01*
X27960Y28860D02*
X27980D01*
X28000Y28880D01*
X28020Y28860D01*
X28040D01*
Y28880D01*
X28020Y28900D01*
X28040Y28920D01*
Y28940D01*
X28020D01*
X28000Y28920D01*
X27980Y28940D01*
X27960D01*
Y28920D01*
X27980Y28900D01*
X27960Y28880D01*
Y28860D01*
X4675Y29860D02*
Y29820D01*
X4755D01*
Y29860D01*
X4795D01*
Y29940D01*
X4755D01*
Y29980D01*
X4675D01*
Y29940D01*
X4635D01*
Y29860D01*
X4675D01*
X4695Y29880D02*
Y29860D01*
X4735D01*
Y29880D01*
X4755D01*
Y29920D01*
X4735D01*
Y29940D01*
X4695D01*
Y29920D01*
X4675D01*
Y29880D01*
X4695D01*
X4060Y32475D02*
Y32435D01*
X4140D01*
Y32475D01*
X4180D01*
Y32555D01*
X4140D01*
Y32595D01*
X4060D01*
Y32555D01*
X4020D01*
Y32475D01*
X4060D01*
X4080Y32495D02*
Y32475D01*
X4120D01*
Y32495D01*
X4140D01*
Y32535D01*
X4120D01*
Y32555D01*
X4080D01*
Y32535D01*
X4060D01*
Y32495D01*
X4080D01*
X3670Y32770D02*
X3710D01*
X3750Y32810D01*
X3790Y32770D01*
X3830D01*
Y32810D01*
X3790Y32850D01*
X3830Y32890D01*
Y32930D01*
X3790D01*
X3750Y32890D01*
X3710Y32930D01*
X3670D01*
Y32890D01*
X3710Y32850D01*
X3670Y32810D01*
Y32770D01*
X3710Y32810D02*
X3730D01*
X3750Y32830D01*
X3770Y32810D01*
X3790D01*
Y32830D01*
X3770Y32850D01*
X3790Y32870D01*
Y32890D01*
X3770D01*
X3750Y32870D01*
X3730Y32890D01*
X3710D01*
Y32870D01*
X3730Y32850D01*
X3710Y32830D01*
Y32810D01*
X17260Y29360D02*
Y29320D01*
X17340D01*
Y29360D01*
X17380D01*
Y29440D01*
X17340D01*
Y29480D01*
X17260D01*
Y29440D01*
X17220D01*
Y29360D01*
X17260D01*
X17280Y29380D02*
Y29360D01*
X17320D01*
Y29380D01*
X17340D01*
Y29420D01*
X17320D01*
Y29440D01*
X17280D01*
Y29420D01*
X17260D01*
Y29380D01*
X17280D01*
X18610Y29360D02*
Y29320D01*
X18690D01*
Y29360D01*
X18730D01*
Y29440D01*
X18690D01*
Y29480D01*
X18610D01*
Y29440D01*
X18570D01*
Y29360D01*
X18610D01*
X18630Y29380D02*
Y29360D01*
X18670D01*
Y29380D01*
X18690D01*
Y29420D01*
X18670D01*
Y29440D01*
X18630D01*
Y29420D01*
X18610D01*
Y29380D01*
X18630D01*
X21810Y30760D02*
Y30720D01*
X21890D01*
Y30760D01*
X21930D01*
Y30840D01*
X21890D01*
Y30880D01*
X21810D01*
Y30840D01*
X21770D01*
Y30760D01*
X21810D01*
X21830Y30780D02*
Y30760D01*
X21870D01*
Y30780D01*
X21890D01*
Y30820D01*
X21870D01*
Y30840D01*
X21830D01*
Y30820D01*
X21810D01*
Y30780D01*
X21830D01*
X26660Y25110D02*
Y25070D01*
X26740D01*
Y25110D01*
X26780D01*
Y25190D01*
X26740D01*
Y25230D01*
X26660D01*
Y25190D01*
X26620D01*
Y25110D01*
X26660D01*
X26680Y25130D02*
Y25110D01*
X26720D01*
Y25130D01*
X26740D01*
Y25170D01*
X26720D01*
Y25190D01*
X26680D01*
Y25170D01*
X26660D01*
Y25130D01*
X26680D01*
X27460Y25160D02*
Y25120D01*
X27540D01*
Y25160D01*
X27580D01*
Y25240D01*
X27540D01*
Y25280D01*
X27460D01*
Y25240D01*
X27420D01*
Y25160D01*
X27460D01*
X27480Y25180D02*
Y25160D01*
X27520D01*
Y25180D01*
X27540D01*
Y25220D01*
X27520D01*
Y25240D01*
X27480D01*
Y25220D01*
X27460D01*
Y25180D01*
X27480D01*
X27086Y25110D02*
Y25070D01*
X27166D01*
Y25110D01*
X27206D01*
Y25190D01*
X27166D01*
Y25230D01*
X27086D01*
Y25190D01*
X27046D01*
Y25110D01*
X27086D01*
X27106Y25130D02*
Y25110D01*
X27146D01*
Y25130D01*
X27166D01*
Y25170D01*
X27146D01*
Y25190D01*
X27106D01*
Y25170D01*
X27086D01*
Y25130D01*
X27106D01*
X32110Y26210D02*
Y26170D01*
X32190D01*
Y26210D01*
X32230D01*
Y26290D01*
X32190D01*
Y26330D01*
X32110D01*
Y26290D01*
X32070D01*
Y26210D01*
X32110D01*
X32130Y26230D02*
Y26210D01*
X32170D01*
Y26230D01*
X32190D01*
Y26270D01*
X32170D01*
Y26290D01*
X32130D01*
Y26270D01*
X32110D01*
Y26230D01*
X32130D01*
X25710Y24960D02*
Y24920D01*
X25790D01*
Y24960D01*
X25830D01*
Y25040D01*
X25790D01*
Y25080D01*
X25710D01*
Y25040D01*
X25670D01*
Y24960D01*
X25710D01*
X25730Y24980D02*
Y24960D01*
X25770D01*
Y24980D01*
X25790D01*
Y25020D01*
X25770D01*
Y25040D01*
X25730D01*
Y25020D01*
X25710D01*
Y24980D01*
X25730D01*
X16210Y30560D02*
Y30520D01*
X16290D01*
Y30560D01*
X16330D01*
Y30640D01*
X16290D01*
Y30680D01*
X16210D01*
Y30640D01*
X16170D01*
Y30560D01*
X16210D01*
X16230Y30580D02*
Y30560D01*
X16270D01*
Y30580D01*
X16290D01*
Y30620D01*
X16270D01*
Y30640D01*
X16230D01*
Y30620D01*
X16210D01*
Y30580D01*
X16230D01*
X15410Y30560D02*
Y30520D01*
X15490D01*
Y30560D01*
X15530D01*
Y30640D01*
X15490D01*
Y30680D01*
X15410D01*
Y30640D01*
X15370D01*
Y30560D01*
X15410D01*
X15430Y30580D02*
Y30560D01*
X15470D01*
Y30580D01*
X15490D01*
Y30620D01*
X15470D01*
Y30640D01*
X15430D01*
Y30620D01*
X15410D01*
Y30580D01*
X15430D01*
X24560Y30610D02*
Y30570D01*
X24640D01*
Y30610D01*
X24680D01*
Y30690D01*
X24640D01*
Y30730D01*
X24560D01*
Y30690D01*
X24520D01*
Y30610D01*
X24560D01*
X24580Y30630D02*
Y30610D01*
X24620D01*
Y30630D01*
X24640D01*
Y30670D01*
X24620D01*
Y30690D01*
X24580D01*
Y30670D01*
X24560D01*
Y30630D01*
X24580D01*
X23260Y30560D02*
Y30520D01*
X23340D01*
Y30560D01*
X23380D01*
Y30640D01*
X23340D01*
Y30680D01*
X23260D01*
Y30640D01*
X23220D01*
Y30560D01*
X23260D01*
X23280Y30580D02*
Y30560D01*
X23320D01*
Y30580D01*
X23340D01*
Y30620D01*
X23320D01*
Y30640D01*
X23280D01*
Y30620D01*
X23260D01*
Y30580D01*
X23280D01*
X22260Y29310D02*
Y29270D01*
X22340D01*
Y29310D01*
X22380D01*
Y29390D01*
X22340D01*
Y29430D01*
X22260D01*
Y29390D01*
X22220D01*
Y29310D01*
X22260D01*
X22280Y29330D02*
Y29310D01*
X22320D01*
Y29330D01*
X22340D01*
Y29370D01*
X22320D01*
Y29390D01*
X22280D01*
Y29370D01*
X22260D01*
Y29330D01*
X22280D01*
X22760Y29328D02*
Y29288D01*
X22840D01*
Y29328D01*
X22880D01*
Y29409D01*
X22840D01*
Y29448D01*
X22760D01*
Y29409D01*
X22720D01*
Y29328D01*
X22760D01*
X22780Y29348D02*
Y29328D01*
X22820D01*
Y29348D01*
X22840D01*
Y29388D01*
X22820D01*
Y29409D01*
X22780D01*
Y29388D01*
X22760D01*
Y29348D01*
X22780D01*
X23760Y29310D02*
Y29270D01*
X23840D01*
Y29310D01*
X23880D01*
Y29390D01*
X23840D01*
Y29430D01*
X23760D01*
Y29390D01*
X23720D01*
Y29310D01*
X23760D01*
X23780Y29330D02*
Y29310D01*
X23820D01*
Y29330D01*
X23840D01*
Y29370D01*
X23820D01*
Y29390D01*
X23780D01*
Y29370D01*
X23760D01*
Y29330D01*
X23780D01*
X18210Y29360D02*
Y29320D01*
X18290D01*
Y29360D01*
X18330D01*
Y29440D01*
X18290D01*
Y29480D01*
X18210D01*
Y29440D01*
X18170D01*
Y29360D01*
X18210D01*
X18230Y29380D02*
Y29360D01*
X18270D01*
Y29380D01*
X18290D01*
Y29420D01*
X18270D01*
Y29440D01*
X18230D01*
Y29420D01*
X18210D01*
Y29380D01*
X18230D01*
X15110Y29310D02*
Y29270D01*
X15190D01*
Y29310D01*
X15230D01*
Y29390D01*
X15190D01*
Y29430D01*
X15110D01*
Y29390D01*
X15070D01*
Y29310D01*
X15110D01*
X15130Y29330D02*
Y29310D01*
X15170D01*
Y29330D01*
X15190D01*
Y29370D01*
X15170D01*
Y29390D01*
X15130D01*
Y29370D01*
X15110D01*
Y29330D01*
X15130D01*
X15610Y29310D02*
Y29270D01*
X15690D01*
Y29310D01*
X15730D01*
Y29390D01*
X15690D01*
Y29430D01*
X15610D01*
Y29390D01*
X15570D01*
Y29310D01*
X15610D01*
X15630Y29330D02*
Y29310D01*
X15670D01*
Y29330D01*
X15690D01*
Y29370D01*
X15670D01*
Y29390D01*
X15630D01*
Y29370D01*
X15610D01*
Y29330D01*
X15630D01*
X21210Y26410D02*
Y26370D01*
X21290D01*
Y26410D01*
X21330D01*
Y26490D01*
X21290D01*
Y26530D01*
X21210D01*
Y26490D01*
X21170D01*
Y26410D01*
X21210D01*
X21230Y26430D02*
Y26410D01*
X21270D01*
Y26430D01*
X21290D01*
Y26470D01*
X21270D01*
Y26490D01*
X21230D01*
Y26470D01*
X21210D01*
Y26430D01*
X21230D01*
X18560Y26460D02*
Y26420D01*
X18640D01*
Y26460D01*
X18680D01*
Y26540D01*
X18640D01*
Y26580D01*
X18560D01*
Y26540D01*
X18520D01*
Y26460D01*
X18560D01*
X18580Y26480D02*
Y26460D01*
X18620D01*
Y26480D01*
X18640D01*
Y26520D01*
X18620D01*
Y26540D01*
X18580D01*
Y26520D01*
X18560D01*
Y26480D01*
X18580D01*
X17485Y25385D02*
Y25345D01*
X17565D01*
Y25385D01*
X17605D01*
Y25465D01*
X17565D01*
Y25505D01*
X17485D01*
Y25465D01*
X17445D01*
Y25385D01*
X17485D01*
X17505Y25405D02*
Y25385D01*
X17545D01*
Y25405D01*
X17565D01*
Y25445D01*
X17545D01*
Y25465D01*
X17505D01*
Y25445D01*
X17485D01*
Y25405D01*
X17505D01*
X17485Y23805D02*
Y23765D01*
X17565D01*
Y23805D01*
X17605D01*
Y23885D01*
X17565D01*
Y23925D01*
X17485D01*
Y23885D01*
X17445D01*
Y23805D01*
X17485D01*
X17505Y23825D02*
Y23805D01*
X17545D01*
Y23825D01*
X17565D01*
Y23865D01*
X17545D01*
Y23885D01*
X17505D01*
Y23865D01*
X17485D01*
Y23825D01*
X17505D01*
X15104Y22351D02*
Y22311D01*
X15184D01*
Y22351D01*
X15224D01*
Y22431D01*
X15184D01*
Y22471D01*
X15104D01*
Y22431D01*
X15064D01*
Y22351D01*
X15104D01*
X15124Y22371D02*
Y22351D01*
X15164D01*
Y22371D01*
X15184D01*
Y22411D01*
X15164D01*
Y22431D01*
X15124D01*
Y22411D01*
X15104D01*
Y22371D01*
X15124D01*
X13310Y14560D02*
Y14520D01*
X13390D01*
Y14560D01*
X13430D01*
Y14640D01*
X13390D01*
Y14680D01*
X13310D01*
Y14640D01*
X13270D01*
Y14560D01*
X13310D01*
X13330Y14580D02*
Y14560D01*
X13370D01*
Y14580D01*
X13390D01*
Y14620D01*
X13370D01*
Y14640D01*
X13330D01*
Y14620D01*
X13310D01*
Y14580D01*
X13330D01*
X20760Y18510D02*
Y18470D01*
X20840D01*
Y18510D01*
X20880D01*
Y18590D01*
X20840D01*
Y18630D01*
X20760D01*
Y18590D01*
X20720D01*
Y18510D01*
X20760D01*
X20780Y18530D02*
Y18510D01*
X20820D01*
Y18530D01*
X20840D01*
Y18570D01*
X20820D01*
Y18590D01*
X20780D01*
Y18570D01*
X20760D01*
Y18530D01*
X20780D01*
X19310Y24910D02*
Y24870D01*
X19390D01*
Y24910D01*
X19430D01*
Y24990D01*
X19390D01*
Y25030D01*
X19310D01*
Y24990D01*
X19270D01*
Y24910D01*
X19310D01*
X19330Y24930D02*
Y24910D01*
X19370D01*
Y24930D01*
X19390D01*
Y24970D01*
X19370D01*
Y24990D01*
X19330D01*
Y24970D01*
X19310D01*
Y24930D01*
X19330D01*
X12510Y4360D02*
Y4320D01*
X12590D01*
Y4360D01*
X12630D01*
Y4440D01*
X12590D01*
Y4480D01*
X12510D01*
Y4440D01*
X12470D01*
Y4360D01*
X12510D01*
X12530Y4380D02*
Y4360D01*
X12570D01*
Y4380D01*
X12590D01*
Y4420D01*
X12570D01*
Y4440D01*
X12530D01*
Y4420D01*
X12510D01*
Y4380D01*
X12530D01*
X5435Y4035D02*
Y3995D01*
X5515D01*
Y4035D01*
X5555D01*
Y4115D01*
X5515D01*
Y4155D01*
X5435D01*
Y4115D01*
X5395D01*
Y4035D01*
X5435D01*
X5455Y4055D02*
Y4035D01*
X5495D01*
Y4055D01*
X5515D01*
Y4095D01*
X5495D01*
Y4115D01*
X5455D01*
Y4095D01*
X5435D01*
Y4055D01*
X5455D01*
X4860Y4010D02*
Y3970D01*
X4940D01*
Y4010D01*
X4980D01*
Y4090D01*
X4940D01*
Y4130D01*
X4860D01*
Y4090D01*
X4820D01*
Y4010D01*
X4860D01*
X4880Y4030D02*
Y4010D01*
X4920D01*
Y4030D01*
X4940D01*
Y4070D01*
X4920D01*
Y4090D01*
X4880D01*
Y4070D01*
X4860D01*
Y4030D01*
X4880D01*
X5585Y4332D02*
Y4292D01*
X5665D01*
Y4332D01*
X5705D01*
Y4412D01*
X5665D01*
Y4452D01*
X5585D01*
Y4412D01*
X5545D01*
Y4332D01*
X5585D01*
X5605Y4352D02*
Y4332D01*
X5645D01*
Y4352D01*
X5665D01*
Y4392D01*
X5645D01*
Y4412D01*
X5605D01*
Y4392D01*
X5585D01*
Y4352D01*
X5605D01*
X6610Y2860D02*
Y2820D01*
X6690D01*
Y2860D01*
X6730D01*
Y2940D01*
X6690D01*
Y2980D01*
X6610D01*
Y2940D01*
X6570D01*
Y2860D01*
X6610D01*
X6630Y2880D02*
Y2860D01*
X6670D01*
Y2880D01*
X6690D01*
Y2920D01*
X6670D01*
Y2940D01*
X6630D01*
Y2920D01*
X6610D01*
Y2880D01*
X6630D01*
X3710Y6010D02*
Y5970D01*
X3790D01*
Y6010D01*
X3830D01*
Y6090D01*
X3790D01*
Y6130D01*
X3710D01*
Y6090D01*
X3670D01*
Y6010D01*
X3710D01*
X3730Y6030D02*
Y6010D01*
X3770D01*
Y6030D01*
X3790D01*
Y6070D01*
X3770D01*
Y6090D01*
X3730D01*
Y6070D01*
X3710D01*
Y6030D01*
X3730D01*
X2460Y5460D02*
Y5420D01*
X2540D01*
Y5460D01*
X2580D01*
Y5540D01*
X2540D01*
Y5580D01*
X2460D01*
Y5540D01*
X2420D01*
Y5460D01*
X2460D01*
X2480Y5480D02*
Y5460D01*
X2520D01*
Y5480D01*
X2540D01*
Y5520D01*
X2520D01*
Y5540D01*
X2480D01*
Y5520D01*
X2460D01*
Y5480D01*
X2480D01*
X6560Y6310D02*
Y6270D01*
X6640D01*
Y6310D01*
X6680D01*
Y6390D01*
X6640D01*
Y6430D01*
X6560D01*
Y6390D01*
X6520D01*
Y6310D01*
X6560D01*
X6580Y6330D02*
Y6310D01*
X6620D01*
Y6330D01*
X6640D01*
Y6370D01*
X6620D01*
Y6390D01*
X6580D01*
Y6370D01*
X6560D01*
Y6330D01*
X6580D01*
X7560Y10060D02*
Y10020D01*
X7640D01*
Y10060D01*
X7680D01*
Y10140D01*
X7640D01*
Y10180D01*
X7560D01*
Y10140D01*
X7520D01*
Y10060D01*
X7560D01*
X7580Y10080D02*
Y10060D01*
X7620D01*
Y10080D01*
X7640D01*
Y10120D01*
X7620D01*
Y10140D01*
X7580D01*
Y10120D01*
X7560D01*
Y10080D01*
X7580D01*
X7960Y9660D02*
Y9620D01*
X8040D01*
Y9660D01*
X8080D01*
Y9740D01*
X8040D01*
Y9780D01*
X7960D01*
Y9740D01*
X7920D01*
Y9660D01*
X7960D01*
X7980Y9680D02*
Y9660D01*
X8020D01*
Y9680D01*
X8040D01*
Y9720D01*
X8020D01*
Y9740D01*
X7980D01*
Y9720D01*
X7960D01*
Y9680D01*
X7980D01*
X7960Y10060D02*
Y10020D01*
X8040D01*
Y10060D01*
X8080D01*
Y10140D01*
X8040D01*
Y10180D01*
X7960D01*
Y10140D01*
X7920D01*
Y10060D01*
X7960D01*
X7980Y10080D02*
Y10060D01*
X8020D01*
Y10080D01*
X8040D01*
Y10120D01*
X8020D01*
Y10140D01*
X7980D01*
Y10120D01*
X7960D01*
Y10080D01*
X7980D01*
X4610Y10910D02*
Y10870D01*
X4690D01*
Y10910D01*
X4730D01*
Y10990D01*
X4690D01*
Y11030D01*
X4610D01*
Y10990D01*
X4570D01*
Y10910D01*
X4610D01*
X4630Y10930D02*
Y10910D01*
X4670D01*
Y10930D01*
X4690D01*
Y10970D01*
X4670D01*
Y10990D01*
X4630D01*
Y10970D01*
X4610D01*
Y10930D01*
X4630D01*
X5310Y11260D02*
Y11220D01*
X5390D01*
Y11260D01*
X5430D01*
Y11340D01*
X5390D01*
Y11380D01*
X5310D01*
Y11340D01*
X5270D01*
Y11260D01*
X5310D01*
X5330Y11280D02*
Y11260D01*
X5370D01*
Y11280D01*
X5390D01*
Y11320D01*
X5370D01*
Y11340D01*
X5330D01*
Y11320D01*
X5310D01*
Y11280D01*
X5330D01*
X5010Y11260D02*
Y11220D01*
X5090D01*
Y11260D01*
X5130D01*
Y11340D01*
X5090D01*
Y11380D01*
X5010D01*
Y11340D01*
X4970D01*
Y11260D01*
X5010D01*
X5030Y11280D02*
Y11260D01*
X5070D01*
Y11280D01*
X5090D01*
Y11320D01*
X5070D01*
Y11340D01*
X5030D01*
Y11320D01*
X5010D01*
Y11280D01*
X5030D01*
X4610Y11260D02*
Y11220D01*
X4690D01*
Y11260D01*
X4730D01*
Y11340D01*
X4690D01*
Y11380D01*
X4610D01*
Y11340D01*
X4570D01*
Y11260D01*
X4610D01*
X4630Y11280D02*
Y11260D01*
X4670D01*
Y11280D01*
X4690D01*
Y11320D01*
X4670D01*
Y11340D01*
X4630D01*
Y11320D01*
X4610D01*
Y11280D01*
X4630D01*
X7160Y10060D02*
Y10020D01*
X7240D01*
Y10060D01*
X7280D01*
Y10140D01*
X7240D01*
Y10180D01*
X7160D01*
Y10140D01*
X7120D01*
Y10060D01*
X7160D01*
X7180Y10080D02*
Y10060D01*
X7220D01*
Y10080D01*
X7240D01*
Y10120D01*
X7220D01*
Y10140D01*
X7180D01*
Y10120D01*
X7160D01*
Y10080D01*
X7180D01*
X4510Y15620D02*
Y15580D01*
X4590D01*
Y15620D01*
X4630D01*
Y15700D01*
X4590D01*
Y15740D01*
X4510D01*
Y15700D01*
X4470D01*
Y15620D01*
X4510D01*
X4530Y15640D02*
Y15620D01*
X4570D01*
Y15640D01*
X4590D01*
Y15680D01*
X4570D01*
Y15700D01*
X4530D01*
Y15680D01*
X4510D01*
Y15640D01*
X4530D01*
X5510Y14910D02*
Y14870D01*
X5590D01*
Y14910D01*
X5630D01*
Y14990D01*
X5590D01*
Y15030D01*
X5510D01*
Y14990D01*
X5470D01*
Y14910D01*
X5510D01*
X5530Y14930D02*
Y14910D01*
X5570D01*
Y14930D01*
X5590D01*
Y14970D01*
X5570D01*
Y14990D01*
X5530D01*
Y14970D01*
X5510D01*
Y14930D01*
X5530D01*
X4910Y14910D02*
Y14870D01*
X4990D01*
Y14910D01*
X5030D01*
Y14990D01*
X4990D01*
Y15030D01*
X4910D01*
Y14990D01*
X4870D01*
Y14910D01*
X4910D01*
X4930Y14930D02*
Y14910D01*
X4970D01*
Y14930D01*
X4990D01*
Y14970D01*
X4970D01*
Y14990D01*
X4930D01*
Y14970D01*
X4910D01*
Y14930D01*
X4930D01*
X4510Y14910D02*
Y14870D01*
X4590D01*
Y14910D01*
X4630D01*
Y14990D01*
X4590D01*
Y15030D01*
X4510D01*
Y14990D01*
X4470D01*
Y14910D01*
X4510D01*
X4530Y14930D02*
Y14910D01*
X4570D01*
Y14930D01*
X4590D01*
Y14970D01*
X4570D01*
Y14990D01*
X4530D01*
Y14970D01*
X4510D01*
Y14930D01*
X4530D01*
X6660Y8360D02*
Y8320D01*
X6740D01*
Y8360D01*
X6780D01*
Y8440D01*
X6740D01*
Y8480D01*
X6660D01*
Y8440D01*
X6620D01*
Y8360D01*
X6660D01*
X6680Y8380D02*
Y8360D01*
X6720D01*
Y8380D01*
X6740D01*
Y8420D01*
X6720D01*
Y8440D01*
X6680D01*
Y8420D01*
X6660D01*
Y8380D01*
X6680D01*
X3760Y10760D02*
Y10720D01*
X3840D01*
Y10760D01*
X3880D01*
Y10840D01*
X3840D01*
Y10880D01*
X3760D01*
Y10840D01*
X3720D01*
Y10760D01*
X3760D01*
X3780Y10780D02*
Y10760D01*
X3820D01*
Y10780D01*
X3840D01*
Y10820D01*
X3820D01*
Y10840D01*
X3780D01*
Y10820D01*
X3760D01*
Y10780D01*
X3780D01*
X5610Y23760D02*
Y23720D01*
X5690D01*
Y23760D01*
X5730D01*
Y23840D01*
X5690D01*
Y23880D01*
X5610D01*
Y23840D01*
X5570D01*
Y23760D01*
X5610D01*
X5630Y23780D02*
Y23760D01*
X5670D01*
Y23780D01*
X5690D01*
Y23820D01*
X5670D01*
Y23840D01*
X5630D01*
Y23820D01*
X5610D01*
Y23780D01*
X5630D01*
X5110Y27210D02*
Y27170D01*
X5190D01*
Y27210D01*
X5230D01*
Y27290D01*
X5190D01*
Y27330D01*
X5110D01*
Y27290D01*
X5070D01*
Y27210D01*
X5110D01*
X5130Y27230D02*
Y27210D01*
X5170D01*
Y27230D01*
X5190D01*
Y27270D01*
X5170D01*
Y27290D01*
X5130D01*
Y27270D01*
X5110D01*
Y27230D01*
X5130D01*
X9060Y21810D02*
Y21770D01*
X9140D01*
Y21810D01*
X9180D01*
Y21890D01*
X9140D01*
Y21930D01*
X9060D01*
Y21890D01*
X9020D01*
Y21810D01*
X9060D01*
X9080Y21830D02*
Y21810D01*
X9120D01*
Y21830D01*
X9140D01*
Y21870D01*
X9120D01*
Y21890D01*
X9080D01*
Y21870D01*
X9060D01*
Y21830D01*
X9080D01*
X9060Y22910D02*
Y22870D01*
X9140D01*
Y22910D01*
X9180D01*
Y22990D01*
X9140D01*
Y23030D01*
X9060D01*
Y22990D01*
X9020D01*
Y22910D01*
X9060D01*
X9080Y22930D02*
Y22910D01*
X9120D01*
Y22930D01*
X9140D01*
Y22970D01*
X9120D01*
Y22990D01*
X9080D01*
Y22970D01*
X9060D01*
Y22930D01*
X9080D01*
X7110Y21760D02*
Y21720D01*
X7190D01*
Y21760D01*
X7230D01*
Y21840D01*
X7190D01*
Y21880D01*
X7110D01*
Y21840D01*
X7070D01*
Y21760D01*
X7110D01*
X7130Y21780D02*
Y21760D01*
X7170D01*
Y21780D01*
X7190D01*
Y21820D01*
X7170D01*
Y21840D01*
X7130D01*
Y21820D01*
X7110D01*
Y21780D01*
X7130D01*
X5610Y22510D02*
Y22470D01*
X5690D01*
Y22510D01*
X5730D01*
Y22590D01*
X5690D01*
Y22630D01*
X5610D01*
Y22590D01*
X5570D01*
Y22510D01*
X5610D01*
X5630Y22530D02*
Y22510D01*
X5670D01*
Y22530D01*
X5690D01*
Y22570D01*
X5670D01*
Y22590D01*
X5630D01*
Y22570D01*
X5610D01*
Y22530D01*
X5630D01*
X7960Y32360D02*
Y32320D01*
X8040D01*
Y32360D01*
X8080D01*
Y32440D01*
X8040D01*
Y32480D01*
X7960D01*
Y32440D01*
X7920D01*
Y32360D01*
X7960D01*
X7980Y32380D02*
Y32360D01*
X8020D01*
Y32380D01*
X8040D01*
Y32420D01*
X8020D01*
Y32440D01*
X7980D01*
Y32420D01*
X7960D01*
Y32380D01*
X7980D01*
X5920Y32420D02*
X5960D01*
X6000Y32460D01*
X6040Y32420D01*
X6080D01*
Y32460D01*
X6040Y32500D01*
X6080Y32540D01*
Y32580D01*
X6040D01*
X6000Y32540D01*
X5960Y32580D01*
X5920D01*
Y32540D01*
X5960Y32500D01*
X5920Y32460D01*
Y32420D01*
X5960Y32460D02*
X5980D01*
X6000Y32480D01*
X6020Y32460D01*
X6040D01*
Y32480D01*
X6020Y32500D01*
X6040Y32520D01*
Y32540D01*
X6020D01*
X6000Y32520D01*
X5980Y32540D01*
X5960D01*
Y32520D01*
X5980Y32500D01*
X5960Y32480D01*
Y32460D01*
X8460Y28295D02*
Y28255D01*
X8540D01*
Y28295D01*
X8580D01*
Y28375D01*
X8540D01*
Y28415D01*
X8460D01*
Y28375D01*
X8420D01*
Y28295D01*
X8460D01*
X8480Y28315D02*
Y28295D01*
X8520D01*
Y28315D01*
X8540D01*
Y28355D01*
X8520D01*
Y28375D01*
X8480D01*
Y28355D01*
X8460D01*
Y28315D01*
X8480D01*
X7960Y28245D02*
Y28205D01*
X8040D01*
Y28245D01*
X8080D01*
Y28325D01*
X8040D01*
Y28365D01*
X7960D01*
Y28325D01*
X7920D01*
Y28245D01*
X7960D01*
X7980Y28265D02*
Y28245D01*
X8020D01*
Y28265D01*
X8040D01*
Y28305D01*
X8020D01*
Y28325D01*
X7980D01*
Y28305D01*
X7960D01*
Y28265D01*
X7980D01*
X8460Y32360D02*
Y32320D01*
X8540D01*
Y32360D01*
X8580D01*
Y32440D01*
X8540D01*
Y32480D01*
X8460D01*
Y32440D01*
X8420D01*
Y32360D01*
X8460D01*
X8480Y32380D02*
Y32360D01*
X8520D01*
Y32380D01*
X8540D01*
Y32420D01*
X8520D01*
Y32440D01*
X8480D01*
Y32420D01*
X8460D01*
Y32380D01*
X8480D01*
X7460Y32310D02*
Y32270D01*
X7540D01*
Y32310D01*
X7580D01*
Y32390D01*
X7540D01*
Y32430D01*
X7460D01*
Y32390D01*
X7420D01*
Y32310D01*
X7460D01*
X7480Y32330D02*
Y32310D01*
X7520D01*
Y32330D01*
X7540D01*
Y32370D01*
X7520D01*
Y32390D01*
X7480D01*
Y32370D01*
X7460D01*
Y32330D01*
X7480D01*
X13400Y27140D02*
Y27100D01*
X13480D01*
Y27140D01*
X13520D01*
Y27220D01*
X13480D01*
Y27260D01*
X13400D01*
Y27220D01*
X13360D01*
Y27140D01*
X13400D01*
X13420Y27160D02*
Y27140D01*
X13460D01*
Y27160D01*
X13480D01*
Y27200D01*
X13460D01*
Y27220D01*
X13420D01*
Y27200D01*
X13400D01*
Y27160D01*
X13420D01*
X13450Y28440D02*
Y28400D01*
X13530D01*
Y28440D01*
X13570D01*
Y28520D01*
X13530D01*
Y28560D01*
X13450D01*
Y28520D01*
X13410D01*
Y28440D01*
X13450D01*
X13470Y28460D02*
Y28440D01*
X13510D01*
Y28460D01*
X13530D01*
Y28500D01*
X13510D01*
Y28520D01*
X13470D01*
Y28500D01*
X13450D01*
Y28460D01*
X13470D01*
X13400Y29690D02*
Y29650D01*
X13480D01*
Y29690D01*
X13520D01*
Y29770D01*
X13480D01*
Y29810D01*
X13400D01*
Y29770D01*
X13360D01*
Y29690D01*
X13400D01*
X13420Y29710D02*
Y29690D01*
X13460D01*
Y29710D01*
X13480D01*
Y29750D01*
X13460D01*
Y29770D01*
X13420D01*
Y29750D01*
X13400D01*
Y29710D01*
X13420D01*
X13400Y30940D02*
Y30900D01*
X13480D01*
Y30940D01*
X13520D01*
Y31020D01*
X13480D01*
Y31060D01*
X13400D01*
Y31020D01*
X13360D01*
Y30940D01*
X13400D01*
X13420Y30960D02*
Y30940D01*
X13460D01*
Y30960D01*
X13480D01*
Y31000D01*
X13460D01*
Y31020D01*
X13420D01*
Y31000D01*
X13400D01*
Y30960D01*
X13420D01*
X10260Y27800D02*
Y27760D01*
X10340D01*
Y27800D01*
X10380D01*
Y27880D01*
X10340D01*
Y27920D01*
X10260D01*
Y27880D01*
X10220D01*
Y27800D01*
X10260D01*
X10280Y27820D02*
Y27800D01*
X10320D01*
Y27820D01*
X10340D01*
Y27860D01*
X10320D01*
Y27880D01*
X10280D01*
Y27860D01*
X10260D01*
Y27820D01*
X10280D01*
X10260Y29110D02*
Y29070D01*
X10340D01*
Y29110D01*
X10380D01*
Y29190D01*
X10340D01*
Y29230D01*
X10260D01*
Y29190D01*
X10220D01*
Y29110D01*
X10260D01*
X10280Y29130D02*
Y29110D01*
X10320D01*
Y29130D01*
X10340D01*
Y29170D01*
X10320D01*
Y29190D01*
X10280D01*
Y29170D01*
X10260D01*
Y29130D01*
X10280D01*
X10210Y30360D02*
Y30320D01*
X10290D01*
Y30360D01*
X10330D01*
Y30440D01*
X10290D01*
Y30480D01*
X10210D01*
Y30440D01*
X10170D01*
Y30360D01*
X10210D01*
X10230Y30380D02*
Y30360D01*
X10270D01*
Y30380D01*
X10290D01*
Y30420D01*
X10270D01*
Y30440D01*
X10230D01*
Y30420D01*
X10210D01*
Y30380D01*
X10230D01*
X10260Y31610D02*
Y31570D01*
X10340D01*
Y31610D01*
X10380D01*
Y31690D01*
X10340D01*
Y31730D01*
X10260D01*
Y31690D01*
X10220D01*
Y31610D01*
X10260D01*
X10280Y31630D02*
Y31610D01*
X10320D01*
Y31630D01*
X10340D01*
Y31670D01*
X10320D01*
Y31690D01*
X10280D01*
Y31670D01*
X10260D01*
Y31630D01*
X10280D01*
X28360Y32760D02*
Y32720D01*
X28440D01*
Y32760D01*
X28480D01*
Y32840D01*
X28440D01*
Y32880D01*
X28360D01*
Y32840D01*
X28320D01*
Y32760D01*
X28360D01*
X28380Y32780D02*
Y32760D01*
X28420D01*
Y32780D01*
X28440D01*
Y32820D01*
X28420D01*
Y32840D01*
X28380D01*
Y32820D01*
X28360D01*
Y32780D01*
X28380D01*
X13460Y36210D02*
Y36170D01*
X13540D01*
Y36210D01*
X13580D01*
Y36290D01*
X13540D01*
Y36330D01*
X13460D01*
Y36290D01*
X13420D01*
Y36210D01*
X13460D01*
X13480Y36230D02*
Y36210D01*
X13520D01*
Y36230D01*
X13540D01*
Y36270D01*
X13520D01*
Y36290D01*
X13480D01*
Y36270D01*
X13460D01*
Y36230D01*
X13480D01*
X13360Y32810D02*
Y32770D01*
X13440D01*
Y32810D01*
X13480D01*
Y32890D01*
X13440D01*
Y32930D01*
X13360D01*
Y32890D01*
X13320D01*
Y32810D01*
X13360D01*
X13380Y32830D02*
Y32810D01*
X13420D01*
Y32830D01*
X13440D01*
Y32870D01*
X13420D01*
Y32890D01*
X13380D01*
Y32870D01*
X13360D01*
Y32830D01*
X13380D01*
X30370Y28770D02*
X30410D01*
X30450Y28810D01*
X30490Y28770D01*
X30530D01*
Y28810D01*
X30490Y28850D01*
X30530Y28890D01*
Y28930D01*
X30490D01*
X30450Y28890D01*
X30410Y28930D01*
X30370D01*
Y28890D01*
X30410Y28850D01*
X30370Y28810D01*
Y28770D01*
X30410Y28810D02*
X30430D01*
X30450Y28830D01*
X30470Y28810D01*
X30490D01*
Y28830D01*
X30470Y28850D01*
X30490Y28870D01*
Y28890D01*
X30470D01*
X30450Y28870D01*
X30430Y28890D01*
X30410D01*
Y28870D01*
X30430Y28850D01*
X30410Y28830D01*
Y28810D01*
X33504Y26036D02*
X33544D01*
X33584Y26076D01*
X33624Y26036D01*
X33664D01*
Y26076D01*
X33624Y26116D01*
X33664Y26156D01*
Y26196D01*
X33624D01*
X33584Y26156D01*
X33544Y26196D01*
X33504D01*
Y26156D01*
X33544Y26116D01*
X33504Y26076D01*
Y26036D01*
X33544Y26076D02*
X33564D01*
X33584Y26096D01*
X33604Y26076D01*
X33624D01*
Y26096D01*
X33604Y26116D01*
X33624Y26136D01*
Y26156D01*
X33604D01*
X33584Y26136D01*
X33564Y26156D01*
X33544D01*
Y26136D01*
X33564Y26116D01*
X33544Y26096D01*
Y26076D01*
X31920Y24020D02*
X31960D01*
X32000Y24060D01*
X32040Y24020D01*
X32080D01*
Y24060D01*
X32040Y24100D01*
X32080Y24140D01*
Y24180D01*
X32040D01*
X32000Y24140D01*
X31960Y24180D01*
X31920D01*
Y24140D01*
X31960Y24100D01*
X31920Y24060D01*
Y24020D01*
X31960Y24060D02*
X31980D01*
X32000Y24080D01*
X32020Y24060D01*
X32040D01*
Y24080D01*
X32020Y24100D01*
X32040Y24120D01*
Y24140D01*
X32020D01*
X32000Y24120D01*
X31980Y24140D01*
X31960D01*
Y24120D01*
X31980Y24100D01*
X31960Y24080D01*
Y24060D01*
X30920Y24020D02*
X30960D01*
X31000Y24060D01*
X31040Y24020D01*
X31080D01*
Y24060D01*
X31040Y24100D01*
X31080Y24140D01*
Y24180D01*
X31040D01*
X31000Y24140D01*
X30960Y24180D01*
X30920D01*
Y24140D01*
X30960Y24100D01*
X30920Y24060D01*
Y24020D01*
X30960Y24060D02*
X30980D01*
X31000Y24080D01*
X31020Y24060D01*
X31040D01*
Y24080D01*
X31020Y24100D01*
X31040Y24120D01*
Y24140D01*
X31020D01*
X31000Y24120D01*
X30980Y24140D01*
X30960D01*
Y24120D01*
X30980Y24100D01*
X30960Y24080D01*
Y24060D01*
X6920Y32420D02*
X6960D01*
X7000Y32460D01*
X7040Y32420D01*
X7080D01*
Y32460D01*
X7040Y32500D01*
X7080Y32540D01*
Y32580D01*
X7040D01*
X7000Y32540D01*
X6960Y32580D01*
X6920D01*
Y32540D01*
X6960Y32500D01*
X6920Y32460D01*
Y32420D01*
X6960Y32460D02*
X6980D01*
X7000Y32480D01*
X7020Y32460D01*
X7040D01*
Y32480D01*
X7020Y32500D01*
X7040Y32520D01*
Y32540D01*
X7020D01*
X7000Y32520D01*
X6980Y32540D01*
X6960D01*
Y32520D01*
X6980Y32500D01*
X6960Y32480D01*
Y32460D01*
X4470Y36420D02*
X4510D01*
X4550Y36460D01*
X4590Y36420D01*
X4630D01*
Y36460D01*
X4590Y36500D01*
X4630Y36540D01*
Y36580D01*
X4590D01*
X4550Y36540D01*
X4510Y36580D01*
X4470D01*
Y36540D01*
X4510Y36500D01*
X4470Y36460D01*
Y36420D01*
X4510Y36460D02*
X4530D01*
X4550Y36480D01*
X4570Y36460D01*
X4590D01*
Y36480D01*
X4570Y36500D01*
X4590Y36520D01*
Y36540D01*
X4570D01*
X4550Y36520D01*
X4530Y36540D01*
X4510D01*
Y36520D01*
X4530Y36500D01*
X4510Y36480D01*
Y36460D01*
X19870Y9220D02*
X19910D01*
X19950Y9260D01*
X19990Y9220D01*
X20030D01*
Y9260D01*
X19990Y9300D01*
X20030Y9340D01*
Y9380D01*
X19990D01*
X19950Y9340D01*
X19910Y9380D01*
X19870D01*
Y9340D01*
X19910Y9300D01*
X19870Y9260D01*
Y9220D01*
X19910Y9260D02*
X19930D01*
X19950Y9280D01*
X19970Y9260D01*
X19990D01*
Y9280D01*
X19970Y9300D01*
X19990Y9320D01*
Y9340D01*
X19970D01*
X19950Y9320D01*
X19930Y9340D01*
X19910D01*
Y9320D01*
X19930Y9300D01*
X19910Y9280D01*
Y9260D01*
X21570Y9220D02*
X21610D01*
X21650Y9260D01*
X21690Y9220D01*
X21730D01*
Y9260D01*
X21690Y9300D01*
X21730Y9340D01*
Y9380D01*
X21690D01*
X21650Y9340D01*
X21610Y9380D01*
X21570D01*
Y9340D01*
X21610Y9300D01*
X21570Y9260D01*
Y9220D01*
X21610Y9260D02*
X21630D01*
X21650Y9280D01*
X21670Y9260D01*
X21690D01*
Y9280D01*
X21670Y9300D01*
X21690Y9320D01*
Y9340D01*
X21670D01*
X21650Y9320D01*
X21630Y9340D01*
X21610D01*
Y9320D01*
X21630Y9300D01*
X21610Y9280D01*
Y9260D01*
X20770Y9220D02*
X20810D01*
X20850Y9260D01*
X20890Y9220D01*
X20930D01*
Y9260D01*
X20890Y9300D01*
X20930Y9340D01*
Y9380D01*
X20890D01*
X20850Y9340D01*
X20810Y9380D01*
X20770D01*
Y9340D01*
X20810Y9300D01*
X20770Y9260D01*
Y9220D01*
X20810Y9260D02*
X20830D01*
X20850Y9280D01*
X20870Y9260D01*
X20890D01*
Y9280D01*
X20870Y9300D01*
X20890Y9320D01*
Y9340D01*
X20870D01*
X20850Y9320D01*
X20830Y9340D01*
X20810D01*
Y9320D01*
X20830Y9300D01*
X20810Y9280D01*
Y9260D01*
X24720Y7020D02*
X24760D01*
X24800Y7060D01*
X24840Y7020D01*
X24880D01*
Y7060D01*
X24840Y7100D01*
X24880Y7140D01*
Y7180D01*
X24840D01*
X24800Y7140D01*
X24760Y7180D01*
X24720D01*
Y7140D01*
X24760Y7100D01*
X24720Y7060D01*
Y7020D01*
X24760Y7060D02*
X24780D01*
X24800Y7080D01*
X24820Y7060D01*
X24840D01*
Y7080D01*
X24820Y7100D01*
X24840Y7120D01*
Y7140D01*
X24820D01*
X24800Y7120D01*
X24780Y7140D01*
X24760D01*
Y7120D01*
X24780Y7100D01*
X24760Y7080D01*
Y7060D01*
X23870Y7020D02*
X23910D01*
X23950Y7060D01*
X23990Y7020D01*
X24030D01*
Y7060D01*
X23990Y7100D01*
X24030Y7140D01*
Y7180D01*
X23990D01*
X23950Y7140D01*
X23910Y7180D01*
X23870D01*
Y7140D01*
X23910Y7100D01*
X23870Y7060D01*
Y7020D01*
X23910Y7060D02*
X23930D01*
X23950Y7080D01*
X23970Y7060D01*
X23990D01*
Y7080D01*
X23970Y7100D01*
X23990Y7120D01*
Y7140D01*
X23970D01*
X23950Y7120D01*
X23930Y7140D01*
X23910D01*
Y7120D01*
X23930Y7100D01*
X23910Y7080D01*
Y7060D01*
X21170Y5820D02*
X21210D01*
X21250Y5860D01*
X21290Y5820D01*
X21330D01*
Y5860D01*
X21290Y5900D01*
X21330Y5940D01*
Y5980D01*
X21290D01*
X21250Y5940D01*
X21210Y5980D01*
X21170D01*
Y5940D01*
X21210Y5900D01*
X21170Y5860D01*
Y5820D01*
X21210Y5860D02*
X21230D01*
X21250Y5880D01*
X21270Y5860D01*
X21290D01*
Y5880D01*
X21270Y5900D01*
X21290Y5920D01*
Y5940D01*
X21270D01*
X21250Y5920D01*
X21230Y5940D01*
X21210D01*
Y5920D01*
X21230Y5900D01*
X21210Y5880D01*
Y5860D01*
X1181Y38219D02*
Y38352D01*
X1248Y38419D01*
X1314Y38352D01*
Y38219D01*
Y38319D01*
X1181D01*
X38119Y38219D02*
Y38352D01*
X38186Y38419D01*
X38252Y38352D01*
Y38219D01*
Y38319D01*
X38119D01*
X38119Y1181D02*
Y1314D01*
X38186Y1381D01*
X38252Y1314D01*
Y1181D01*
Y1281D01*
X38119D01*
X1181Y1181D02*
Y1314D01*
X1248Y1381D01*
X1314Y1314D01*
Y1181D01*
Y1281D01*
X1181D01*
D105*
X33670Y36050D02*
G03*
X33670Y36050I-80J0D01*
G01*
X11761Y1433D02*
G03*
X11761Y1433I-80J0D01*
G01*
X10187D02*
G03*
X10187Y1433I-80J0D01*
G01*
X3954Y1383D02*
G03*
X3954Y1383I-80J0D01*
G01*
X5529D02*
G03*
X5529Y1383I-80J0D01*
G01*
D106*
X11722Y1433D02*
G03*
X11722Y1433I-40J0D01*
G01*
X10147D02*
G03*
X10147Y1433I-40J0D01*
G01*
X3914Y1383D02*
G03*
X3914Y1383I-40J0D01*
G01*
X5489D02*
G03*
X5489Y1383I-40J0D01*
G01*
M02*
