G04*
G04 #@! TF.GenerationSoftware,Altium Limited,Altium Designer,20.0.2 (26)*
G04*
G04 Layer_Color=8421504*
%FSLAX24Y24*%
%MOIN*%
G70*
G01*
G75*
%ADD22R,0.1378X0.0787*%
%ADD23R,0.0600X0.0600*%
%ADD24R,0.0500X0.0500*%
%ADD25O,0.0240X0.0800*%
%ADD26R,0.0240X0.0800*%
%ADD27O,0.0236X0.0709*%
%ADD28R,0.0600X0.0600*%
%ADD29R,0.0217X0.0787*%
%ADD30R,0.0315X0.0472*%
%ADD31R,0.0500X0.0500*%
%ADD32R,0.0472X0.0315*%
%ADD33O,0.0236X0.0610*%
%ADD34R,0.0157X0.0787*%
%ADD35R,0.1181X0.0630*%
%ADD36R,0.0846X0.1378*%
%ADD37R,0.0846X0.0433*%
%ADD38R,0.0846X0.0433*%
%ADD39O,0.0118X0.0591*%
%ADD40O,0.0591X0.0118*%
%ADD41R,0.0472X0.0709*%
D22*
X31550Y36050D02*
D03*
X38663D02*
D03*
D23*
X3800Y8750D02*
D03*
Y10100D02*
D03*
D24*
X3750Y35650D02*
D03*
X4550D02*
D03*
X3750Y33600D02*
D03*
X4550D02*
D03*
X3750Y34650D02*
D03*
X4550D02*
D03*
X5300Y31700D02*
D03*
X6100D02*
D03*
Y28800D02*
D03*
X5300D02*
D03*
X13440Y27780D02*
D03*
X14240D02*
D03*
X13490Y29080D02*
D03*
X14290D02*
D03*
X13440Y30330D02*
D03*
X14240D02*
D03*
X13440Y31580D02*
D03*
X14240D02*
D03*
X27200Y29600D02*
D03*
X28000D02*
D03*
X31250D02*
D03*
X30450D02*
D03*
X32750Y28400D02*
D03*
X33550D02*
D03*
X27000Y9950D02*
D03*
X26200D02*
D03*
X14150Y13800D02*
D03*
X13350D02*
D03*
X19950Y9950D02*
D03*
X19150D02*
D03*
X20900D02*
D03*
X21700D02*
D03*
X24000Y6400D02*
D03*
X24800D02*
D03*
X5050Y8400D02*
D03*
X5850D02*
D03*
X8800Y21900D02*
D03*
X8000D02*
D03*
X8800Y22950D02*
D03*
X8000D02*
D03*
X20400Y24700D02*
D03*
X21200D02*
D03*
X18550Y24500D02*
D03*
X19350D02*
D03*
D25*
X6500Y33200D02*
D03*
X6000Y35400D02*
D03*
X5500D02*
D03*
X6500D02*
D03*
X6000Y33200D02*
D03*
X7000Y35400D02*
D03*
Y33200D02*
D03*
X6350Y19600D02*
D03*
X5850Y21800D02*
D03*
X5350D02*
D03*
X6350D02*
D03*
X5850Y19600D02*
D03*
X6850Y21800D02*
D03*
X6850Y19600D02*
D03*
X6150Y24400D02*
D03*
X5650Y26600D02*
D03*
X5150D02*
D03*
X6150D02*
D03*
X5650Y24400D02*
D03*
X6650Y26600D02*
D03*
Y24400D02*
D03*
D26*
X5500Y33200D02*
D03*
X5350Y19600D02*
D03*
X5150Y24400D02*
D03*
D27*
X8500Y31785D02*
D03*
X8000D02*
D03*
X7500D02*
D03*
X7000D02*
D03*
X8500Y28950D02*
D03*
X8000D02*
D03*
X7500D02*
D03*
X7000D02*
D03*
D28*
X12250Y27840D02*
D03*
X10900D02*
D03*
X12250Y29150D02*
D03*
X10900D02*
D03*
X12200Y30400D02*
D03*
X10850D02*
D03*
X12250Y31650D02*
D03*
X10900D02*
D03*
D29*
X24800Y29931D02*
D03*
X24300D02*
D03*
X23800D02*
D03*
X23300D02*
D03*
X22800D02*
D03*
X22300D02*
D03*
X21800D02*
D03*
X21300D02*
D03*
Y31900D02*
D03*
X21800D02*
D03*
X22300D02*
D03*
X22800D02*
D03*
X23300D02*
D03*
X23800D02*
D03*
X24300D02*
D03*
X24800D02*
D03*
X18650Y29982D02*
D03*
X18150D02*
D03*
X17650D02*
D03*
X17150D02*
D03*
X16650D02*
D03*
X16150D02*
D03*
X15650D02*
D03*
X15150D02*
D03*
Y31950D02*
D03*
X15650D02*
D03*
X16150D02*
D03*
X16650D02*
D03*
X17150D02*
D03*
X17650D02*
D03*
X18150D02*
D03*
X18650D02*
D03*
D30*
X27700Y37900D02*
D03*
X26952D02*
D03*
X27326Y38766D02*
D03*
X27724Y34434D02*
D03*
X26976D02*
D03*
X27350Y35300D02*
D03*
X6174Y6334D02*
D03*
X5426D02*
D03*
X5800Y7200D02*
D03*
X12824Y37884D02*
D03*
X12076D02*
D03*
X12450Y38750D02*
D03*
X12800Y34500D02*
D03*
X12052D02*
D03*
X12426Y35366D02*
D03*
D31*
X26850Y36950D02*
D03*
Y36150D02*
D03*
X27900Y36950D02*
D03*
Y36150D02*
D03*
X26800Y33600D02*
D03*
Y32800D02*
D03*
X27900Y32800D02*
D03*
Y33600D02*
D03*
X32750Y27300D02*
D03*
Y26500D02*
D03*
X32000Y24750D02*
D03*
X32000Y25550D02*
D03*
X31000Y24750D02*
D03*
Y25550D02*
D03*
X12550Y3700D02*
D03*
Y2900D02*
D03*
X7150Y2900D02*
D03*
Y3700D02*
D03*
Y5500D02*
D03*
Y4700D02*
D03*
X3000Y7350D02*
D03*
Y6550D02*
D03*
X4200Y7350D02*
D03*
Y6550D02*
D03*
X17250Y20550D02*
D03*
Y19750D02*
D03*
Y21550D02*
D03*
Y22350D02*
D03*
X13000Y36250D02*
D03*
Y37050D02*
D03*
X12900Y32850D02*
D03*
Y33650D02*
D03*
X11900Y37050D02*
D03*
Y36250D02*
D03*
X11850Y33650D02*
D03*
Y32850D02*
D03*
D32*
X33584Y26576D02*
D03*
X33584Y27324D02*
D03*
X34450Y26950D02*
D03*
D33*
X21750Y6524D02*
D03*
X21250Y6524D02*
D03*
X20750D02*
D03*
X20250Y6524D02*
D03*
X19750D02*
D03*
X19250D02*
D03*
X18750Y6524D02*
D03*
X18250D02*
D03*
Y8650D02*
D03*
X18750D02*
D03*
X19250D02*
D03*
X19750D02*
D03*
X20250D02*
D03*
X20750D02*
D03*
X21250D02*
D03*
X21750D02*
D03*
X2950Y5476D02*
D03*
X3450D02*
D03*
X3950D02*
D03*
X4450Y5476D02*
D03*
X4950Y5476D02*
D03*
X5450D02*
D03*
X5950D02*
D03*
X6450D02*
D03*
Y3350D02*
D03*
X5950D02*
D03*
X5450D02*
D03*
X4950D02*
D03*
X4450D02*
D03*
X3950D02*
D03*
X3450D02*
D03*
X2950D02*
D03*
D34*
X11150Y1650D02*
D03*
X11406D02*
D03*
X10382D02*
D03*
X10894D02*
D03*
X10638D02*
D03*
X4406Y1600D02*
D03*
X4662D02*
D03*
X4150D02*
D03*
X5174D02*
D03*
X4918D02*
D03*
D35*
X5200Y10100D02*
D03*
X6972D02*
D03*
X7200Y15650D02*
D03*
X5428D02*
D03*
D36*
X7391Y12856D02*
D03*
D37*
X4950Y11950D02*
D03*
Y13761D02*
D03*
D38*
Y12856D02*
D03*
D39*
X18866Y22450D02*
D03*
X19063D02*
D03*
X19259D02*
D03*
X19456D02*
D03*
X19653D02*
D03*
X19850Y22450D02*
D03*
X20047D02*
D03*
X20244Y22450D02*
D03*
X20441D02*
D03*
X20637D02*
D03*
X20834D02*
D03*
X21031Y22450D02*
D03*
Y19143D02*
D03*
X20834D02*
D03*
X20637D02*
D03*
X20441Y19143D02*
D03*
X20244D02*
D03*
X20047Y19143D02*
D03*
X19850D02*
D03*
X19653Y19143D02*
D03*
X19456D02*
D03*
X19259D02*
D03*
X19063D02*
D03*
X18866Y19143D02*
D03*
D40*
X21602Y21879D02*
D03*
Y21682D02*
D03*
Y21485D02*
D03*
Y21289D02*
D03*
Y21092D02*
D03*
Y20895D02*
D03*
Y20698D02*
D03*
Y20501D02*
D03*
Y20304D02*
D03*
Y20107D02*
D03*
X21602Y19911D02*
D03*
Y19714D02*
D03*
X18295Y19714D02*
D03*
X18295Y19911D02*
D03*
Y20107D02*
D03*
Y20304D02*
D03*
Y20501D02*
D03*
Y20698D02*
D03*
Y20895D02*
D03*
Y21092D02*
D03*
Y21289D02*
D03*
Y21485D02*
D03*
Y21682D02*
D03*
Y21879D02*
D03*
D41*
X19379Y25746D02*
D03*
X20560Y25746D02*
D03*
M02*
