G04*
G04 #@! TF.GenerationSoftware,Altium Limited,Altium Designer,20.0.2 (26)*
G04*
G04 Layer_Color=8388736*
%FSLAX24Y24*%
%MOIN*%
G70*
G01*
G75*
%ADD42R,0.1428X0.0837*%
%ADD43R,0.0650X0.0650*%
%ADD44R,0.0550X0.0550*%
%ADD45O,0.0290X0.0850*%
%ADD46R,0.0290X0.0850*%
%ADD47O,0.0286X0.0759*%
%ADD48R,0.0650X0.0650*%
%ADD49R,0.0267X0.0837*%
%ADD50R,0.0365X0.0522*%
%ADD51R,0.0550X0.0550*%
%ADD52R,0.0522X0.0365*%
%ADD53O,0.0286X0.0660*%
%ADD54R,0.0207X0.0837*%
%ADD55R,0.1231X0.0680*%
%ADD56R,0.0896X0.1428*%
%ADD57R,0.0896X0.0483*%
%ADD58R,0.0896X0.0483*%
%ADD59O,0.0168X0.0641*%
%ADD60O,0.0641X0.0168*%
%ADD61R,0.0522X0.0759*%
%ADD62C,0.0550*%
%ADD63C,0.0522*%
%ADD64C,0.0404*%
%ADD65C,0.0680*%
%ADD66C,0.0650*%
%ADD67C,0.0837*%
%ADD68C,0.0641*%
%ADD69C,0.0668*%
%ADD70R,0.0668X0.0668*%
%ADD71C,0.0750*%
%ADD72C,0.0247*%
%ADD73R,0.0365X0.0641*%
%ADD74C,0.2017*%
%ADD75O,0.0650X0.0870*%
%ADD76O,0.0670X0.0870*%
G04:AMPARAMS|DCode=77|XSize=67mil|YSize=87mil|CornerRadius=0mil|HoleSize=0mil|Usage=FLASHONLY|Rotation=180.000|XOffset=0mil|YOffset=0mil|HoleType=Round|Shape=Octagon|*
%AMOCTAGOND77*
4,1,8,0.0168,-0.0435,-0.0168,-0.0435,-0.0335,-0.0267,-0.0335,0.0267,-0.0168,0.0435,0.0168,0.0435,0.0335,0.0267,0.0335,-0.0267,0.0168,-0.0435,0.0*
%
%ADD77OCTAGOND77*%

%ADD78C,0.0290*%
%ADD79C,0.1231*%
D42*
X31550Y36050D02*
D03*
X38663D02*
D03*
D43*
X3800Y8750D02*
D03*
Y10100D02*
D03*
X2550Y8600D02*
D03*
X1300D02*
D03*
Y15200D02*
D03*
X2550D02*
D03*
X4100Y28900D02*
D03*
X2800D02*
D03*
X1400Y31900D02*
D03*
Y36400D02*
D03*
X9550Y28400D02*
D03*
X29850Y23450D02*
D03*
X1300Y2700D02*
D03*
X8916Y18700D02*
D03*
X10850Y11400D02*
D03*
X28600Y11450D02*
D03*
D44*
X3750Y35650D02*
D03*
X4550D02*
D03*
X3750Y33600D02*
D03*
X4550D02*
D03*
X3750Y34650D02*
D03*
X4550D02*
D03*
X5300Y31700D02*
D03*
X6100D02*
D03*
Y28800D02*
D03*
X5300D02*
D03*
X13440Y27780D02*
D03*
X14240D02*
D03*
X13490Y29080D02*
D03*
X14290D02*
D03*
X13440Y30330D02*
D03*
X14240D02*
D03*
X13440Y31580D02*
D03*
X14240D02*
D03*
X27200Y29600D02*
D03*
X28000D02*
D03*
X31250D02*
D03*
X30450D02*
D03*
X32750Y28400D02*
D03*
X33550D02*
D03*
X27000Y9950D02*
D03*
X26200D02*
D03*
X14150Y13800D02*
D03*
X13350D02*
D03*
X19950Y9950D02*
D03*
X19150D02*
D03*
X20900D02*
D03*
X21700D02*
D03*
X24000Y6400D02*
D03*
X24800D02*
D03*
X5050Y8400D02*
D03*
X5850D02*
D03*
X8800Y21900D02*
D03*
X8000D02*
D03*
X8800Y22950D02*
D03*
X8000D02*
D03*
X20400Y24700D02*
D03*
X21200D02*
D03*
X18550Y24500D02*
D03*
X19350D02*
D03*
X33800Y29550D02*
D03*
X10250Y2950D02*
D03*
D45*
X6500Y33200D02*
D03*
X6000Y35400D02*
D03*
X5500D02*
D03*
X6500D02*
D03*
X6000Y33200D02*
D03*
X7000Y35400D02*
D03*
Y33200D02*
D03*
X6350Y19600D02*
D03*
X5850Y21800D02*
D03*
X5350D02*
D03*
X6350D02*
D03*
X5850Y19600D02*
D03*
X6850Y21800D02*
D03*
X6850Y19600D02*
D03*
X6150Y24400D02*
D03*
X5650Y26600D02*
D03*
X5150D02*
D03*
X6150D02*
D03*
X5650Y24400D02*
D03*
X6650Y26600D02*
D03*
Y24400D02*
D03*
D46*
X5500Y33200D02*
D03*
X5350Y19600D02*
D03*
X5150Y24400D02*
D03*
D47*
X8500Y31785D02*
D03*
X8000D02*
D03*
X7500D02*
D03*
X7000D02*
D03*
X8500Y28950D02*
D03*
X8000D02*
D03*
X7500D02*
D03*
X7000D02*
D03*
D48*
X12250Y27840D02*
D03*
X10900D02*
D03*
X12250Y29150D02*
D03*
X10900D02*
D03*
X12200Y30400D02*
D03*
X10850D02*
D03*
X12250Y31650D02*
D03*
X10900D02*
D03*
X16000Y28550D02*
D03*
X22050D02*
D03*
X32100Y30850D02*
D03*
X28650Y30800D02*
D03*
X28250Y27750D02*
D03*
D49*
X24800Y29931D02*
D03*
X24300D02*
D03*
X23800D02*
D03*
X23300D02*
D03*
X22800D02*
D03*
X22300D02*
D03*
X21800D02*
D03*
X21300D02*
D03*
Y31900D02*
D03*
X21800D02*
D03*
X22300D02*
D03*
X22800D02*
D03*
X23300D02*
D03*
X23800D02*
D03*
X24300D02*
D03*
X24800D02*
D03*
X18650Y29982D02*
D03*
X18150D02*
D03*
X17650D02*
D03*
X17150D02*
D03*
X16650D02*
D03*
X16150D02*
D03*
X15650D02*
D03*
X15150D02*
D03*
Y31950D02*
D03*
X15650D02*
D03*
X16150D02*
D03*
X16650D02*
D03*
X17150D02*
D03*
X17650D02*
D03*
X18150D02*
D03*
X18650D02*
D03*
D50*
X27700Y37900D02*
D03*
X26952D02*
D03*
X27326Y38766D02*
D03*
X27724Y34434D02*
D03*
X26976D02*
D03*
X27350Y35300D02*
D03*
X6174Y6334D02*
D03*
X5426D02*
D03*
X5800Y7200D02*
D03*
X12824Y37884D02*
D03*
X12076D02*
D03*
X12450Y38750D02*
D03*
X12800Y34500D02*
D03*
X12052D02*
D03*
X12426Y35366D02*
D03*
D51*
X26850Y36950D02*
D03*
Y36150D02*
D03*
X27900Y36950D02*
D03*
Y36150D02*
D03*
X26800Y33600D02*
D03*
Y32800D02*
D03*
X27900Y32800D02*
D03*
Y33600D02*
D03*
X32750Y27300D02*
D03*
Y26500D02*
D03*
X32000Y24750D02*
D03*
X32000Y25550D02*
D03*
X31000Y24750D02*
D03*
Y25550D02*
D03*
X12550Y3700D02*
D03*
Y2900D02*
D03*
X7150Y2900D02*
D03*
Y3700D02*
D03*
Y5500D02*
D03*
Y4700D02*
D03*
X3000Y7350D02*
D03*
Y6550D02*
D03*
X4200Y7350D02*
D03*
Y6550D02*
D03*
X17250Y20550D02*
D03*
Y19750D02*
D03*
Y21550D02*
D03*
Y22350D02*
D03*
X13000Y36250D02*
D03*
Y37050D02*
D03*
X12900Y32850D02*
D03*
Y33650D02*
D03*
X11900Y37050D02*
D03*
Y36250D02*
D03*
X11850Y33650D02*
D03*
Y32850D02*
D03*
X37150Y30292D02*
D03*
X8150Y35300D02*
D03*
X29850Y22150D02*
D03*
X31150Y21050D02*
D03*
X16950Y7000D02*
D03*
X8916Y25100D02*
D03*
X17450Y17050D02*
D03*
X29900Y13400D02*
D03*
D52*
X33584Y26576D02*
D03*
X33584Y27324D02*
D03*
X34450Y26950D02*
D03*
D53*
X21750Y6524D02*
D03*
X21250Y6524D02*
D03*
X20750D02*
D03*
X20250Y6524D02*
D03*
X19750D02*
D03*
X19250D02*
D03*
X18750Y6524D02*
D03*
X18250D02*
D03*
Y8650D02*
D03*
X18750D02*
D03*
X19250D02*
D03*
X19750D02*
D03*
X20250D02*
D03*
X20750D02*
D03*
X21250D02*
D03*
X21750D02*
D03*
X2950Y5476D02*
D03*
X3450D02*
D03*
X3950D02*
D03*
X4450Y5476D02*
D03*
X4950Y5476D02*
D03*
X5450D02*
D03*
X5950D02*
D03*
X6450D02*
D03*
Y3350D02*
D03*
X5950D02*
D03*
X5450D02*
D03*
X4950D02*
D03*
X4450D02*
D03*
X3950D02*
D03*
X3450D02*
D03*
X2950D02*
D03*
D54*
X11150Y1650D02*
D03*
X11406D02*
D03*
X10382D02*
D03*
X10894D02*
D03*
X10638D02*
D03*
X4406Y1600D02*
D03*
X4662D02*
D03*
X4150D02*
D03*
X5174D02*
D03*
X4918D02*
D03*
D55*
X5200Y10100D02*
D03*
X6972D02*
D03*
X7200Y15650D02*
D03*
X5428D02*
D03*
D56*
X7391Y12856D02*
D03*
D57*
X4950Y11950D02*
D03*
Y13761D02*
D03*
D58*
Y12856D02*
D03*
D59*
X18866Y22450D02*
D03*
X19063D02*
D03*
X19259D02*
D03*
X19456D02*
D03*
X19653D02*
D03*
X19850Y22450D02*
D03*
X20047D02*
D03*
X20244Y22450D02*
D03*
X20441D02*
D03*
X20637D02*
D03*
X20834D02*
D03*
X21031Y22450D02*
D03*
Y19143D02*
D03*
X20834D02*
D03*
X20637D02*
D03*
X20441Y19143D02*
D03*
X20244D02*
D03*
X20047Y19143D02*
D03*
X19850D02*
D03*
X19653Y19143D02*
D03*
X19456D02*
D03*
X19259D02*
D03*
X19063D02*
D03*
X18866Y19143D02*
D03*
D60*
X21602Y21879D02*
D03*
Y21682D02*
D03*
Y21485D02*
D03*
Y21289D02*
D03*
Y21092D02*
D03*
Y20895D02*
D03*
Y20698D02*
D03*
Y20501D02*
D03*
Y20304D02*
D03*
Y20107D02*
D03*
X21602Y19911D02*
D03*
Y19714D02*
D03*
X18295Y19714D02*
D03*
X18295Y19911D02*
D03*
Y20107D02*
D03*
Y20304D02*
D03*
Y20501D02*
D03*
Y20698D02*
D03*
Y20895D02*
D03*
Y21092D02*
D03*
Y21289D02*
D03*
Y21485D02*
D03*
Y21682D02*
D03*
Y21879D02*
D03*
D61*
X19379Y25746D02*
D03*
X20560Y25746D02*
D03*
D62*
X37150Y27300D02*
D03*
X8150Y34300D02*
D03*
X32800Y29550D02*
D03*
X29850Y21150D02*
D03*
X31150Y22050D02*
D03*
X16950Y8000D02*
D03*
X11250Y2950D02*
D03*
X8550Y5850D02*
D03*
Y3850D02*
D03*
X8916Y26100D02*
D03*
X17450Y18050D02*
D03*
X29900Y14400D02*
D03*
X15650Y20050D02*
D03*
Y22050D02*
D03*
X19150Y9300D02*
D03*
X28000Y28900D02*
D03*
X3750Y32850D02*
D03*
X6000Y32500D02*
D03*
X30450Y28850D02*
D03*
X33584Y26116D02*
D03*
X32000Y24100D02*
D03*
X31000D02*
D03*
X7000Y32500D02*
D03*
X4550Y36500D02*
D03*
X19950Y9300D02*
D03*
X21650D02*
D03*
X20850D02*
D03*
X24800Y7100D02*
D03*
X23950D02*
D03*
X21250Y5900D02*
D03*
D63*
X33590Y36050D02*
D03*
D64*
X36523D02*
D03*
D65*
X3600Y12916D02*
D03*
X1193Y13904D02*
D03*
Y12920D02*
D03*
Y11936D02*
D03*
X3600Y11932D02*
D03*
X3600Y13900D02*
D03*
D66*
X2550Y10600D02*
D03*
Y9600D02*
D03*
X1300Y10600D02*
D03*
Y9600D02*
D03*
Y17200D02*
D03*
Y16200D02*
D03*
X2550Y17200D02*
D03*
Y16200D02*
D03*
X4100Y30900D02*
D03*
Y31900D02*
D03*
Y29900D02*
D03*
X2800Y30900D02*
D03*
Y31900D02*
D03*
Y29900D02*
D03*
X1400D02*
D03*
Y28900D02*
D03*
Y30900D02*
D03*
X2400Y35400D02*
D03*
Y33400D02*
D03*
Y36400D02*
D03*
Y34400D02*
D03*
X1400Y35400D02*
D03*
Y33400D02*
D03*
Y34400D02*
D03*
X9550Y30400D02*
D03*
Y31400D02*
D03*
Y29400D02*
D03*
X18000Y28550D02*
D03*
X17000D02*
D03*
X24050D02*
D03*
X23050D02*
D03*
X30100Y30850D02*
D03*
X31100D02*
D03*
X26650Y30800D02*
D03*
X27650D02*
D03*
X30250Y27750D02*
D03*
X29250D02*
D03*
X29850Y25450D02*
D03*
Y26450D02*
D03*
Y24450D02*
D03*
X1300Y4700D02*
D03*
Y5700D02*
D03*
Y3700D02*
D03*
X8916Y20700D02*
D03*
Y19700D02*
D03*
X10850Y18400D02*
D03*
Y17400D02*
D03*
Y13400D02*
D03*
Y15400D02*
D03*
Y14400D02*
D03*
Y16400D02*
D03*
Y12400D02*
D03*
Y19400D02*
D03*
Y20400D02*
D03*
Y21400D02*
D03*
Y22400D02*
D03*
Y23400D02*
D03*
Y24400D02*
D03*
Y25400D02*
D03*
Y26400D02*
D03*
X28600Y26450D02*
D03*
Y25450D02*
D03*
Y24450D02*
D03*
Y23450D02*
D03*
Y22450D02*
D03*
Y21450D02*
D03*
Y20450D02*
D03*
Y19450D02*
D03*
Y12450D02*
D03*
Y16450D02*
D03*
Y14450D02*
D03*
Y15450D02*
D03*
Y13450D02*
D03*
Y17450D02*
D03*
Y18450D02*
D03*
D67*
X1700Y21100D02*
D03*
X3668D02*
D03*
X1674Y25800D02*
D03*
X3642D02*
D03*
D68*
X22500Y33700D02*
D03*
X21500D02*
D03*
X20500D02*
D03*
X19500D02*
D03*
X18500D02*
D03*
X17500D02*
D03*
Y37700D02*
D03*
X18500Y37700D02*
D03*
X19500Y37700D02*
D03*
X20500D02*
D03*
X21500D02*
D03*
X22500Y37700D02*
D03*
D69*
X37950Y12800D02*
D03*
X36950Y12800D02*
D03*
X37950Y13800D02*
D03*
X36950Y13800D02*
D03*
X37950Y14800D02*
D03*
X36950D02*
D03*
X37950Y15800D02*
D03*
X36950D02*
D03*
X37950Y16800D02*
D03*
X36950Y16800D02*
D03*
X37950Y17800D02*
D03*
X36950D02*
D03*
X37950Y18800D02*
D03*
X36950D02*
D03*
X37950Y19800D02*
D03*
X36950D02*
D03*
X37950Y20800D02*
D03*
X36950D02*
D03*
X37950Y21800D02*
D03*
X27150Y12500D02*
D03*
X26150Y11500D02*
D03*
Y12500D02*
D03*
X25150Y11500D02*
D03*
Y12500D02*
D03*
X24150Y11500D02*
D03*
X24150Y12500D02*
D03*
X23150Y11500D02*
D03*
Y12500D02*
D03*
X22150Y11500D02*
D03*
X22150Y12500D02*
D03*
X21150Y11500D02*
D03*
X21150Y12500D02*
D03*
X20150Y11500D02*
D03*
Y12500D02*
D03*
X19150Y11500D02*
D03*
Y12500D02*
D03*
X18150Y11500D02*
D03*
Y12500D02*
D03*
X17150Y11500D02*
D03*
Y12500D02*
D03*
X16150Y11500D02*
D03*
Y12500D02*
D03*
X15150Y11500D02*
D03*
X15150Y12500D02*
D03*
X14150Y11500D02*
D03*
Y12500D02*
D03*
X13150Y11500D02*
D03*
X13150Y12500D02*
D03*
X12150Y11500D02*
D03*
X12150Y12500D02*
D03*
D70*
X36950Y21800D02*
D03*
X27150Y11500D02*
D03*
D71*
X35600Y7950D02*
D03*
Y9950D02*
D03*
X38100Y7950D02*
D03*
Y9950D02*
D03*
X35650Y4300D02*
D03*
Y6300D02*
D03*
X38150Y4300D02*
D03*
Y6300D02*
D03*
X31550Y4400D02*
D03*
Y6400D02*
D03*
X34050Y4400D02*
D03*
Y6400D02*
D03*
X31550Y7900D02*
D03*
Y9900D02*
D03*
X34050Y7900D02*
D03*
Y9900D02*
D03*
D72*
X11681Y1433D02*
D03*
X10107D02*
D03*
X3874Y1383D02*
D03*
X5449D02*
D03*
D73*
X9782Y587D02*
D03*
X12006D02*
D03*
X5774Y537D02*
D03*
X3550D02*
D03*
D74*
X15075Y4492D02*
D03*
X24917D02*
D03*
D75*
X21633Y3933D02*
D03*
D76*
X20542Y3933D02*
D03*
X19450D02*
D03*
X18358Y3933D02*
D03*
X22175Y5050D02*
D03*
X21083D02*
D03*
X19992Y5050D02*
D03*
X18900Y5050D02*
D03*
D77*
X17808D02*
D03*
D78*
X25992Y32380D02*
D03*
X25595Y29100D02*
D03*
X24370Y27820D02*
D03*
X25650Y27350D02*
D03*
X24100Y26900D02*
D03*
X24300Y23200D02*
D03*
X30990Y27780D02*
D03*
X30725Y27420D02*
D03*
X30445Y24540D02*
D03*
X15250Y24000D02*
D03*
X13600Y26200D02*
D03*
X22716Y5300D02*
D03*
X22600Y6050D02*
D03*
X17150Y3550D02*
D03*
Y4200D02*
D03*
X12550Y1950D02*
D03*
X12150D02*
D03*
X6300Y1850D02*
D03*
X5925D02*
D03*
X11800Y1950D02*
D03*
X5550Y1850D02*
D03*
X2650Y3350D02*
D03*
X6000Y36150D02*
D03*
X2700Y37250D02*
D03*
X4159Y2950D02*
D03*
X4030Y2540D02*
D03*
X4909Y2950D02*
D03*
X20800Y24200D02*
D03*
X22628Y21672D02*
D03*
X23150Y22150D02*
D03*
X23350Y21900D02*
D03*
X22900Y22500D02*
D03*
X23250Y17350D02*
D03*
X23800Y14450D02*
D03*
X20800Y20500D02*
D03*
X21101Y21049D02*
D03*
X21800Y24600D02*
D03*
Y23950D02*
D03*
X22250Y23900D02*
D03*
X3510Y1860D02*
D03*
Y2220D02*
D03*
Y2540D02*
D03*
X7990Y14860D02*
D03*
X7590D02*
D03*
X7150D02*
D03*
X6710D02*
D03*
X19650Y20250D02*
D03*
X19000Y20900D02*
D03*
X17900Y18900D02*
D03*
X17165Y19085D02*
D03*
X17656Y20045D02*
D03*
X17700Y19350D02*
D03*
X16550Y18800D02*
D03*
X7250Y6500D02*
D03*
X30950Y36820D02*
D03*
X31510D02*
D03*
Y37180D02*
D03*
X30950D02*
D03*
X31110Y32900D02*
D03*
X30730D02*
D03*
X30350D02*
D03*
X31750Y34100D02*
D03*
X31390D02*
D03*
X31030D02*
D03*
X6150Y25450D02*
D03*
X29400Y16950D02*
D03*
X16400Y17450D02*
D03*
X16300Y13500D02*
D03*
X16000Y13800D02*
D03*
X16550Y13250D02*
D03*
X22077Y21405D02*
D03*
X20550Y14450D02*
D03*
X20100Y21550D02*
D03*
X26300Y25159D02*
D03*
X22000Y22750D02*
D03*
X22350D02*
D03*
X22161Y19911D02*
D03*
X23000Y23125D02*
D03*
X22950Y23550D02*
D03*
X10950Y36200D02*
D03*
X11200Y32900D02*
D03*
X18650Y32950D02*
D03*
X17650Y31350D02*
D03*
X24800Y32600D02*
D03*
X24300D02*
D03*
X23800D02*
D03*
X18150Y32650D02*
D03*
X17150Y31350D02*
D03*
X16650D02*
D03*
X16150Y32650D02*
D03*
X15650D02*
D03*
X17917Y21682D02*
D03*
X17700Y22250D02*
D03*
X22750Y23800D02*
D03*
X4715Y29900D02*
D03*
X4100Y32515D02*
D03*
X17300Y29400D02*
D03*
X18650D02*
D03*
X21850Y30800D02*
D03*
X26700Y25150D02*
D03*
X27500Y25200D02*
D03*
X27126Y25150D02*
D03*
X32150Y26250D02*
D03*
X25750Y25000D02*
D03*
X16250Y30600D02*
D03*
X15450D02*
D03*
X24600Y30650D02*
D03*
X23300Y30600D02*
D03*
X22300Y29350D02*
D03*
X22800Y29369D02*
D03*
X23800Y29350D02*
D03*
X18250Y29400D02*
D03*
X15150Y29350D02*
D03*
X15650D02*
D03*
X21250Y26450D02*
D03*
X18600Y26500D02*
D03*
X17525Y25425D02*
D03*
Y23845D02*
D03*
X15144Y22391D02*
D03*
X13350Y14600D02*
D03*
X20800Y18550D02*
D03*
X19350Y24950D02*
D03*
X12550Y4400D02*
D03*
X5475Y4075D02*
D03*
X4900Y4050D02*
D03*
X5625Y4372D02*
D03*
X6650Y2900D02*
D03*
X3750Y6050D02*
D03*
X2500Y5500D02*
D03*
X6600Y6350D02*
D03*
X7600Y10100D02*
D03*
X8000Y9700D02*
D03*
Y10100D02*
D03*
X4650Y10950D02*
D03*
X5350Y11300D02*
D03*
X5050D02*
D03*
X4650D02*
D03*
X7200Y10100D02*
D03*
X4550Y15660D02*
D03*
X5550Y14950D02*
D03*
X4950D02*
D03*
X4550D02*
D03*
X6700Y8400D02*
D03*
X3800Y10800D02*
D03*
X5650Y23800D02*
D03*
X5150Y27250D02*
D03*
X9100Y21850D02*
D03*
X9100Y22950D02*
D03*
X7150Y21800D02*
D03*
X5650Y22550D02*
D03*
X8000Y32400D02*
D03*
X8500Y28335D02*
D03*
X8000Y28285D02*
D03*
X8500Y32400D02*
D03*
X7500Y32350D02*
D03*
X13440Y27180D02*
D03*
X13490Y28480D02*
D03*
X13440Y29730D02*
D03*
X13440Y30980D02*
D03*
X10300Y27840D02*
D03*
Y29150D02*
D03*
X10250Y30400D02*
D03*
X10300Y31650D02*
D03*
X28400Y32800D02*
D03*
X13500Y36250D02*
D03*
X13400Y32850D02*
D03*
D79*
X1181Y38219D02*
D03*
X38119Y38219D02*
D03*
X38119Y1181D02*
D03*
X1181D02*
D03*
M02*
