G04*
G04 #@! TF.GenerationSoftware,Altium Limited,Altium Designer,20.0.2 (26)*
G04*
G04 Layer_Color=32896*
%FSLAX24Y24*%
%MOIN*%
G70*
G01*
G75*
%ADD10C,0.0100*%
%ADD11C,0.0079*%
%ADD12C,0.0050*%
%ADD14C,0.0080*%
D10*
X54475Y33200D02*
Y34000D01*
X56075Y33200D02*
Y34000D01*
X55075D02*
X54475D01*
X55075Y33200D02*
X54475D01*
X56075Y34000D02*
X55475D01*
X56075Y33200D02*
X55475D01*
X60275Y29532D02*
Y30331D01*
X61875Y29532D02*
Y30331D01*
X60875D02*
X60275D01*
X60875Y29532D02*
X60275D01*
X61875Y30331D02*
X61275D01*
X61875Y29532D02*
X61275D01*
X64225Y29500D02*
Y30300D01*
X62625Y29500D02*
Y30300D01*
X64225Y29500D02*
X62625D01*
X64225Y30300D02*
X62625D01*
X66225Y29500D02*
Y30300D01*
X67825Y29500D02*
Y30300D01*
X66825D02*
X66225D01*
X66825Y29500D02*
X66225D01*
X67825Y30300D02*
X67225D01*
X67825Y29500D02*
X67225D01*
X68625Y29450D02*
Y30250D01*
X70225Y29450D02*
Y30250D01*
X68625D01*
X70225Y29450D02*
X68625D01*
X66425Y22700D02*
X65625D01*
X66425Y21100D02*
X65625D01*
X66425Y22100D02*
Y22700D01*
X65625Y22100D02*
Y22700D01*
X66425Y21100D02*
Y21700D01*
X65625Y21100D02*
Y21700D01*
X63425Y21150D02*
Y21950D01*
X65025Y21150D02*
Y21950D01*
X64025D02*
X63425D01*
X64025Y21150D02*
X63425D01*
X65025Y21950D02*
X64425D01*
X65025Y21150D02*
X64425D01*
X64975Y18850D02*
X64175D01*
X64975Y20450D02*
X64175D01*
Y18850D02*
Y19450D01*
X64975Y18850D02*
Y19450D01*
X64175Y19850D02*
Y20450D01*
X64975Y19850D02*
Y20450D01*
X67425Y19750D02*
Y20550D01*
X65825Y19750D02*
Y20550D01*
X67425Y19750D02*
X66825D01*
X67425Y20550D02*
X66825D01*
X66425Y19750D02*
X65825D01*
X66425Y20550D02*
X65825D01*
X80425Y26350D02*
Y27150D01*
X78825Y26350D02*
Y27150D01*
X80425Y26350D02*
X79825D01*
X80425Y27150D02*
X79825D01*
X79425Y26350D02*
X78825D01*
X79425Y27150D02*
X78825D01*
X80025Y21500D02*
Y22300D01*
X78425Y21500D02*
Y22300D01*
X80025Y21500D02*
X79425D01*
X80025Y22300D02*
X79425D01*
X79025Y21500D02*
X78425D01*
X79025Y22300D02*
X78425D01*
X78075Y15300D02*
Y16100D01*
X79675Y15300D02*
Y16100D01*
X78675D02*
X78075D01*
X78675Y15300D02*
X78075D01*
X79675Y16100D02*
X79075D01*
X79675Y15300D02*
X79075D01*
X80125Y9700D02*
Y10500D01*
X78525Y9700D02*
Y10500D01*
X80125Y9700D02*
X79525D01*
X80125Y10500D02*
X79525D01*
X79125Y9700D02*
X78525D01*
X79125Y10500D02*
X78525D01*
X80975Y5100D02*
Y5900D01*
X82575Y5100D02*
Y5900D01*
X81575D02*
X80975D01*
X81575Y5100D02*
X80975D01*
X82575Y5900D02*
X81975D01*
X82575Y5100D02*
X81975D01*
X66525Y8300D02*
Y9100D01*
X64925Y8300D02*
Y9100D01*
X66525Y8300D02*
X65925D01*
X66525Y9100D02*
X65925D01*
X65525Y8300D02*
X64925D01*
X65525Y9100D02*
X64925D01*
X64825Y8300D02*
Y9100D01*
X63225Y8300D02*
Y9100D01*
X64825Y8300D02*
X64225D01*
X64825Y9100D02*
X64225D01*
X63825Y8300D02*
X63225D01*
X63825Y9100D02*
X63225D01*
X48725Y1300D02*
Y1050D01*
X48775Y1000D01*
X48875D01*
X48925Y1050D01*
Y1300D01*
X49225D02*
X49025D01*
Y1000D01*
X49225D01*
X49025Y1150D02*
X49125D01*
X49525Y1250D02*
X49475Y1300D01*
X49375D01*
X49325Y1250D01*
Y1200D01*
X49375Y1150D01*
X49475D01*
X49525Y1100D01*
Y1050D01*
X49475Y1000D01*
X49375D01*
X49325Y1050D01*
X49625Y1300D02*
X49825D01*
X49725D01*
Y1000D01*
X50125Y1250D02*
X50075Y1300D01*
X49975D01*
X49925Y1250D01*
Y1050D01*
X49975Y1000D01*
X50075D01*
X50125Y1050D01*
X48725Y700D02*
Y400D01*
X48925D01*
X49025Y700D02*
Y400D01*
Y500D01*
X49225Y700D01*
X49075Y550D01*
X49225Y400D01*
X49325Y700D02*
Y400D01*
Y550D01*
X49525D01*
Y700D01*
Y400D01*
D11*
X56080Y35650D02*
X55940D01*
X56070Y36650D02*
X55940D01*
X54340D02*
X53590D01*
X54340Y35650D02*
X53590D01*
X55940D02*
X55190D01*
X55940Y36650D02*
X55190D01*
X56080Y35650D02*
Y36650D01*
X53590D02*
X53450D01*
Y35650D02*
Y36650D01*
X53590Y35650D02*
X53450D01*
X56090Y34300D02*
X55950D01*
X56080Y35300D02*
X55950D01*
X54350D02*
X53600D01*
X54350Y34300D02*
X53600D01*
X55950D02*
X55200D01*
X55950Y35300D02*
X55200D01*
X56090Y34300D02*
Y35300D01*
X53600D02*
X53460D01*
Y34300D02*
Y35300D01*
X53600Y34300D02*
X53460D01*
D12*
X69175Y30800D02*
Y31040D01*
X69295D01*
X69335Y31000D01*
Y30920D01*
X69295Y30880D01*
X69175D01*
X69255D02*
X69335Y30800D01*
X69575D02*
X69415D01*
X69575Y30960D01*
Y31000D01*
X69535Y31040D01*
X69455D01*
X69415Y31000D01*
X69815Y30800D02*
X69655D01*
X69815Y30960D01*
Y31000D01*
X69775Y31040D01*
X69695D01*
X69655Y31000D01*
X63075Y30950D02*
Y31190D01*
X63195D01*
X63235Y31150D01*
Y31070D01*
X63195Y31030D01*
X63075D01*
X63155D02*
X63235Y30950D01*
X63475D02*
X63315D01*
X63475Y31110D01*
Y31150D01*
X63435Y31190D01*
X63355D01*
X63315Y31150D01*
X63555Y30950D02*
X63635D01*
X63595D01*
Y31190D01*
X63555Y31150D01*
X56175Y34790D02*
Y34550D01*
X56295D01*
X56335Y34590D01*
Y34750D01*
X56295Y34790D01*
X56175D01*
X56575Y34550D02*
X56415D01*
X56575Y34710D01*
Y34750D01*
X56535Y34790D01*
X56455D01*
X56415Y34750D01*
X56275Y36190D02*
Y35950D01*
X56395D01*
X56435Y35990D01*
Y36150D01*
X56395Y36190D01*
X56275D01*
X56515Y35950D02*
X56595D01*
X56555D01*
Y36190D01*
X56515Y36150D01*
X66935Y31000D02*
X66895Y31040D01*
X66815D01*
X66775Y31000D01*
Y30840D01*
X66815Y30800D01*
X66895D01*
X66935Y30840D01*
X67175Y30800D02*
X67015D01*
X67175Y30960D01*
Y31000D01*
X67135Y31040D01*
X67055D01*
X67015Y31000D01*
X67255D02*
X67295Y31040D01*
X67375D01*
X67415Y31000D01*
Y30960D01*
X67375Y30920D01*
X67415Y30880D01*
Y30840D01*
X67375Y30800D01*
X67295D01*
X67255Y30840D01*
Y30880D01*
X67295Y30920D01*
X67255Y30960D01*
Y31000D01*
X67295Y30920D02*
X67375D01*
X61135Y31000D02*
X61095Y31040D01*
X61015D01*
X60975Y31000D01*
Y30840D01*
X61015Y30800D01*
X61095D01*
X61135Y30840D01*
X61375Y30800D02*
X61215D01*
X61375Y30960D01*
Y31000D01*
X61335Y31040D01*
X61255D01*
X61215Y31000D01*
X61455Y31040D02*
X61615D01*
Y31000D01*
X61455Y30840D01*
Y30800D01*
X66885Y19500D02*
X66845Y19540D01*
X66765D01*
X66725Y19500D01*
Y19340D01*
X66765Y19300D01*
X66845D01*
X66885Y19340D01*
X67125Y19300D02*
X66965D01*
X67125Y19460D01*
Y19500D01*
X67085Y19540D01*
X67005D01*
X66965Y19500D01*
X67365Y19540D02*
X67205D01*
Y19420D01*
X67285Y19460D01*
X67325D01*
X67365Y19420D01*
Y19340D01*
X67325Y19300D01*
X67245D01*
X67205Y19340D01*
X63585Y22450D02*
X63545Y22490D01*
X63465D01*
X63425Y22450D01*
Y22290D01*
X63465Y22250D01*
X63545D01*
X63585Y22290D01*
X63825Y22250D02*
X63665D01*
X63825Y22410D01*
Y22450D01*
X63785Y22490D01*
X63705D01*
X63665Y22450D01*
X64025Y22250D02*
Y22490D01*
X63905Y22370D01*
X64065D01*
X63535Y19250D02*
X63495Y19290D01*
X63415D01*
X63375Y19250D01*
Y19090D01*
X63415Y19050D01*
X63495D01*
X63535Y19090D01*
X63775Y19050D02*
X63615D01*
X63775Y19210D01*
Y19250D01*
X63735Y19290D01*
X63655D01*
X63615Y19250D01*
X63855D02*
X63895Y19290D01*
X63975D01*
X64015Y19250D01*
Y19210D01*
X63975Y19170D01*
X63935D01*
X63975D01*
X64015Y19130D01*
Y19090D01*
X63975Y19050D01*
X63895D01*
X63855Y19090D01*
X65985Y23100D02*
X65945Y23140D01*
X65865D01*
X65825Y23100D01*
Y22940D01*
X65865Y22900D01*
X65945D01*
X65985Y22940D01*
X66225Y22900D02*
X66065D01*
X66225Y23060D01*
Y23100D01*
X66185Y23140D01*
X66105D01*
X66065Y23100D01*
X66465Y22900D02*
X66305D01*
X66465Y23060D01*
Y23100D01*
X66425Y23140D01*
X66345D01*
X66305Y23100D01*
X79385Y27500D02*
X79345Y27540D01*
X79265D01*
X79225Y27500D01*
Y27340D01*
X79265Y27300D01*
X79345D01*
X79385Y27340D01*
X79625Y27300D02*
X79465D01*
X79625Y27460D01*
Y27500D01*
X79585Y27540D01*
X79505D01*
X79465Y27500D01*
X79705D02*
X79745Y27540D01*
X79825D01*
X79865Y27500D01*
Y27340D01*
X79825Y27300D01*
X79745D01*
X79705Y27340D01*
Y27500D01*
X79085Y22700D02*
X79045Y22740D01*
X78965D01*
X78925Y22700D01*
Y22540D01*
X78965Y22500D01*
X79045D01*
X79085Y22540D01*
X79165Y22500D02*
X79245D01*
X79205D01*
Y22740D01*
X79165Y22700D01*
X79365Y22540D02*
X79405Y22500D01*
X79485D01*
X79525Y22540D01*
Y22700D01*
X79485Y22740D01*
X79405D01*
X79365Y22700D01*
Y22660D01*
X79405Y22620D01*
X79525D01*
X62735Y9450D02*
X62695Y9490D01*
X62615D01*
X62575Y9450D01*
Y9290D01*
X62615Y9250D01*
X62695D01*
X62735Y9290D01*
X62815Y9250D02*
X62895D01*
X62855D01*
Y9490D01*
X62815Y9450D01*
X63015D02*
X63055Y9490D01*
X63135D01*
X63175Y9450D01*
Y9410D01*
X63135Y9370D01*
X63175Y9330D01*
Y9290D01*
X63135Y9250D01*
X63055D01*
X63015Y9290D01*
Y9330D01*
X63055Y9370D01*
X63015Y9410D01*
Y9450D01*
X63055Y9370D02*
X63135D01*
X66735Y9450D02*
X66695Y9490D01*
X66615D01*
X66575Y9450D01*
Y9290D01*
X66615Y9250D01*
X66695D01*
X66735Y9290D01*
X66815Y9250D02*
X66895D01*
X66855D01*
Y9490D01*
X66815Y9450D01*
X67015Y9490D02*
X67175D01*
Y9450D01*
X67015Y9290D01*
Y9250D01*
X81935Y4900D02*
X81895Y4940D01*
X81815D01*
X81775Y4900D01*
Y4740D01*
X81815Y4700D01*
X81895D01*
X81935Y4740D01*
X82015Y4700D02*
X82095D01*
X82055D01*
Y4940D01*
X82015Y4900D01*
X82215D02*
X82255Y4940D01*
X82335D01*
X82375Y4900D01*
Y4860D01*
X82335Y4820D01*
X82295D01*
X82335D01*
X82375Y4780D01*
Y4740D01*
X82335Y4700D01*
X82255D01*
X82215Y4740D01*
X78735Y16500D02*
X78695Y16540D01*
X78615D01*
X78575Y16500D01*
Y16340D01*
X78615Y16300D01*
X78695D01*
X78735Y16340D01*
X78815Y16300D02*
X78895D01*
X78855D01*
Y16540D01*
X78815Y16500D01*
X79175Y16300D02*
X79015D01*
X79175Y16460D01*
Y16500D01*
X79135Y16540D01*
X79055D01*
X79015Y16500D01*
X79185Y10900D02*
X79145Y10940D01*
X79065D01*
X79025Y10900D01*
Y10740D01*
X79065Y10700D01*
X79145D01*
X79185Y10740D01*
X79265Y10700D02*
X79345D01*
X79305D01*
Y10940D01*
X79265Y10900D01*
X79465D02*
X79505Y10940D01*
X79585D01*
X79625Y10900D01*
Y10740D01*
X79585Y10700D01*
X79505D01*
X79465Y10740D01*
Y10900D01*
X55335Y33050D02*
X55295Y33090D01*
X55215D01*
X55175Y33050D01*
Y32890D01*
X55215Y32850D01*
X55295D01*
X55335Y32890D01*
X55415Y33050D02*
X55455Y33090D01*
X55535D01*
X55575Y33050D01*
Y33010D01*
X55535Y32970D01*
X55575Y32930D01*
Y32890D01*
X55535Y32850D01*
X55455D01*
X55415Y32890D01*
Y32930D01*
X55455Y32970D01*
X55415Y33010D01*
Y33050D01*
X55455Y32970D02*
X55535D01*
D14*
X55090Y36150D02*
X54490D01*
X54990Y35750D02*
Y36550D01*
X54590Y35750D02*
Y36550D01*
X54990Y36150D02*
X54590Y35750D01*
X54990Y36150D02*
X54590Y36550D01*
X55100Y34800D02*
X54500D01*
X55000Y34400D02*
Y35200D01*
X54600Y34400D02*
Y35200D01*
X55000Y34800D02*
X54600Y34400D01*
X55000Y34800D02*
X54600Y35200D01*
M02*
