G04*
G04 #@! TF.GenerationSoftware,Altium Limited,Altium Designer,20.0.2 (26)*
G04*
G04 Layer_Color=128*
%FSLAX24Y24*%
%MOIN*%
G70*
G01*
G75*
%ADD104C,0.0020*%
D104*
X36990Y30292D02*
X37310D01*
X37150Y30132D02*
Y30452D01*
X36990Y27300D02*
X37310D01*
X37150Y27140D02*
Y27460D01*
X33354Y36050D02*
X33826D01*
X33590Y35814D02*
Y36286D01*
X36346Y36050D02*
X36700D01*
X36523Y35873D02*
Y36227D01*
X3403Y12916D02*
X3797D01*
X3600Y12719D02*
Y13113D01*
X996Y13904D02*
X1390D01*
X1193Y13707D02*
Y14101D01*
X996Y12920D02*
X1390D01*
X1193Y12723D02*
Y13117D01*
X996Y11936D02*
X1390D01*
X1193Y11739D02*
Y12133D01*
X3403Y11932D02*
X3797D01*
X3600Y11735D02*
Y12129D01*
X3403Y13900D02*
X3797D01*
X3600Y13703D02*
Y14097D01*
X2375Y10600D02*
X2725D01*
X2550Y10425D02*
Y10775D01*
X2375Y9600D02*
X2725D01*
X2550Y9425D02*
Y9775D01*
X2375Y8600D02*
X2725D01*
X2550Y8425D02*
Y8775D01*
X1125Y10600D02*
X1475D01*
X1300Y10425D02*
Y10775D01*
X1125Y9600D02*
X1475D01*
X1300Y9425D02*
Y9775D01*
X1125Y8600D02*
X1475D01*
X1300Y8425D02*
Y8775D01*
X1125Y17200D02*
X1475D01*
X1300Y17025D02*
Y17375D01*
X1125Y16200D02*
X1475D01*
X1300Y16025D02*
Y16375D01*
X1125Y15200D02*
X1475D01*
X1300Y15025D02*
Y15375D01*
X2375Y17200D02*
X2725D01*
X2550Y17025D02*
Y17375D01*
X2375Y16200D02*
X2725D01*
X2550Y16025D02*
Y16375D01*
X2375Y15200D02*
X2725D01*
X2550Y15025D02*
Y15375D01*
X1483Y21100D02*
X1917D01*
X1700Y20883D02*
Y21317D01*
X3452Y21100D02*
X3885D01*
X3668Y20883D02*
Y21317D01*
X3925Y30900D02*
X4275D01*
X4100Y30725D02*
Y31075D01*
X3925Y28900D02*
X4275D01*
X4100Y28725D02*
Y29075D01*
X3925Y31900D02*
X4275D01*
X4100Y31725D02*
Y32075D01*
X3925Y29900D02*
X4275D01*
X4100Y29725D02*
Y30075D01*
X2625Y30900D02*
X2975D01*
X2800Y30725D02*
Y31075D01*
X2625Y28900D02*
X2975D01*
X2800Y28725D02*
Y29075D01*
X2625Y31900D02*
X2975D01*
X2800Y31725D02*
Y32075D01*
X2625Y29900D02*
X2975D01*
X2800Y29725D02*
Y30075D01*
X1225Y29900D02*
X1575D01*
X1400Y29725D02*
Y30075D01*
X1225Y31900D02*
X1575D01*
X1400Y31725D02*
Y32075D01*
X1225Y28900D02*
X1575D01*
X1400Y28725D02*
Y29075D01*
X1225Y30900D02*
X1575D01*
X1400Y30725D02*
Y31075D01*
X2225Y35400D02*
X2575D01*
X2400Y35225D02*
Y35575D01*
X2225Y33400D02*
X2575D01*
X2400Y33225D02*
Y33575D01*
X2225Y36400D02*
X2575D01*
X2400Y36225D02*
Y36575D01*
X2225Y34400D02*
X2575D01*
X2400Y34225D02*
Y34575D01*
X1225Y35400D02*
X1575D01*
X1400Y35225D02*
Y35575D01*
X1225Y33400D02*
X1575D01*
X1400Y33225D02*
Y33575D01*
X1225Y36400D02*
X1575D01*
X1400Y36225D02*
Y36575D01*
X1225Y34400D02*
X1575D01*
X1400Y34225D02*
Y34575D01*
X7990Y34300D02*
X8310D01*
X8150Y34140D02*
Y34460D01*
X7990Y35300D02*
X8310D01*
X8150Y35140D02*
Y35460D01*
X9375Y30400D02*
X9725D01*
X9550Y30225D02*
Y30575D01*
X9375Y28400D02*
X9725D01*
X9550Y28225D02*
Y28575D01*
X9375Y31400D02*
X9725D01*
X9550Y31225D02*
Y31575D01*
X9375Y29400D02*
X9725D01*
X9550Y29225D02*
Y29575D01*
X17825Y28550D02*
X18175D01*
X18000Y28375D02*
Y28725D01*
X16825Y28550D02*
X17175D01*
X17000Y28375D02*
Y28725D01*
X15825Y28550D02*
X16175D01*
X16000Y28375D02*
Y28725D01*
X23875Y28550D02*
X24225D01*
X24050Y28375D02*
Y28725D01*
X22875Y28550D02*
X23225D01*
X23050Y28375D02*
Y28725D01*
X21875Y28550D02*
X22225D01*
X22050Y28375D02*
Y28725D01*
X22303Y33700D02*
X22697D01*
X22500Y33503D02*
Y33897D01*
X21303Y33700D02*
X21697D01*
X21500Y33503D02*
Y33897D01*
X20303Y33700D02*
X20697D01*
X20500Y33503D02*
Y33897D01*
X19303Y33700D02*
X19697D01*
X19500Y33503D02*
Y33897D01*
X18303Y33700D02*
X18697D01*
X18500Y33503D02*
Y33897D01*
X17303Y33700D02*
X17697D01*
X17500Y33503D02*
Y33897D01*
X17303Y37700D02*
X17697D01*
X17500Y37503D02*
Y37897D01*
X18303Y37700D02*
X18697D01*
X18500Y37503D02*
Y37897D01*
X19303Y37700D02*
X19697D01*
X19500Y37503D02*
Y37897D01*
X20303Y37700D02*
X20697D01*
X20500Y37503D02*
Y37897D01*
X21303Y37700D02*
X21697D01*
X21500Y37503D02*
Y37897D01*
X22303Y37700D02*
X22697D01*
X22500Y37503D02*
Y37897D01*
X29925Y30850D02*
X30275D01*
X30100Y30675D02*
Y31025D01*
X30925Y30850D02*
X31275D01*
X31100Y30675D02*
Y31025D01*
X31925Y30850D02*
X32275D01*
X32100Y30675D02*
Y31025D01*
X26475Y30800D02*
X26825D01*
X26650Y30625D02*
Y30975D01*
X27475Y30800D02*
X27825D01*
X27650Y30625D02*
Y30975D01*
X28475Y30800D02*
X28825D01*
X28650Y30625D02*
Y30975D01*
X32640Y29550D02*
X32960D01*
X32800Y29390D02*
Y29710D01*
X33640Y29550D02*
X33960D01*
X33800Y29390D02*
Y29710D01*
X30075Y27750D02*
X30425D01*
X30250Y27575D02*
Y27925D01*
X29075Y27750D02*
X29425D01*
X29250Y27575D02*
Y27925D01*
X28075Y27750D02*
X28425D01*
X28250Y27575D02*
Y27925D01*
X29675Y25450D02*
X30025D01*
X29850Y25275D02*
Y25625D01*
X29675Y23450D02*
X30025D01*
X29850Y23275D02*
Y23625D01*
X29675Y26450D02*
X30025D01*
X29850Y26275D02*
Y26625D01*
X29675Y24450D02*
X30025D01*
X29850Y24275D02*
Y24625D01*
X29690Y21150D02*
X30010D01*
X29850Y20990D02*
Y21310D01*
X29690Y22150D02*
X30010D01*
X29850Y21990D02*
Y22310D01*
X30990Y22050D02*
X31310D01*
X31150Y21890D02*
Y22210D01*
X30990Y21050D02*
X31310D01*
X31150Y20890D02*
Y21210D01*
X37789Y12800D02*
X38111D01*
X37950Y12639D02*
Y12961D01*
X36789Y12800D02*
X37111D01*
X36950Y12639D02*
Y12961D01*
X37789Y13800D02*
X38111D01*
X37950Y13639D02*
Y13961D01*
X36789Y13800D02*
X37111D01*
X36950Y13639D02*
Y13961D01*
X37789Y14800D02*
X38111D01*
X37950Y14639D02*
Y14961D01*
X36789Y14800D02*
X37111D01*
X36950Y14639D02*
Y14961D01*
X37789Y15800D02*
X38111D01*
X37950Y15639D02*
Y15961D01*
X36789Y15800D02*
X37111D01*
X36950Y15639D02*
Y15961D01*
X37789Y16800D02*
X38111D01*
X37950Y16639D02*
Y16961D01*
X36789Y16800D02*
X37111D01*
X36950Y16639D02*
Y16961D01*
X37789Y17800D02*
X38111D01*
X37950Y17639D02*
Y17961D01*
X36789Y17800D02*
X37111D01*
X36950Y17639D02*
Y17961D01*
X37789Y18800D02*
X38111D01*
X37950Y18639D02*
Y18961D01*
X36789Y18800D02*
X37111D01*
X36950Y18639D02*
Y18961D01*
X37789Y19800D02*
X38111D01*
X37950Y19639D02*
Y19961D01*
X36789Y19800D02*
X37111D01*
X36950Y19639D02*
Y19961D01*
X37789Y20800D02*
X38111D01*
X37950Y20639D02*
Y20961D01*
X36789Y20800D02*
X37111D01*
X36950Y20639D02*
Y20961D01*
X36789Y21800D02*
X37111D01*
X36950Y21639D02*
Y21961D01*
X37789Y21800D02*
X38111D01*
X37950Y21639D02*
Y21961D01*
X35427Y7950D02*
X35773D01*
X35600Y7777D02*
Y8123D01*
X35427Y9950D02*
X35773D01*
X35600Y9777D02*
Y10123D01*
X37927Y7950D02*
X38273D01*
X38100Y7777D02*
Y8123D01*
X37927Y9950D02*
X38273D01*
X38100Y9777D02*
Y10123D01*
X35477Y4300D02*
X35823D01*
X35650Y4127D02*
Y4473D01*
X35477Y6300D02*
X35823D01*
X35650Y6127D02*
Y6473D01*
X37977Y4300D02*
X38323D01*
X38150Y4127D02*
Y4473D01*
X37977Y6300D02*
X38323D01*
X38150Y6127D02*
Y6473D01*
X31377Y4400D02*
X31723D01*
X31550Y4227D02*
Y4573D01*
X31377Y6400D02*
X31723D01*
X31550Y6227D02*
Y6573D01*
X33877Y4400D02*
X34223D01*
X34050Y4227D02*
Y4573D01*
X33877Y6400D02*
X34223D01*
X34050Y6227D02*
Y6573D01*
X31377Y7900D02*
X31723D01*
X31550Y7727D02*
Y8073D01*
X31377Y9900D02*
X31723D01*
X31550Y9727D02*
Y10073D01*
X33877Y7900D02*
X34223D01*
X34050Y7727D02*
Y8073D01*
X33877Y9900D02*
X34223D01*
X34050Y9727D02*
Y10073D01*
X26993Y11500D02*
X27307D01*
X27150Y11343D02*
Y11657D01*
X26993Y12500D02*
X27307D01*
X27150Y12343D02*
Y12657D01*
X25993Y11500D02*
X26307D01*
X26150Y11343D02*
Y11657D01*
X25993Y12500D02*
X26307D01*
X26150Y12343D02*
Y12657D01*
X24993Y11500D02*
X25307D01*
X25150Y11343D02*
Y11657D01*
X24993Y12500D02*
X25307D01*
X25150Y12343D02*
Y12657D01*
X23993Y11500D02*
X24307D01*
X24150Y11343D02*
Y11657D01*
X23993Y12500D02*
X24307D01*
X24150Y12343D02*
Y12657D01*
X22993Y11500D02*
X23307D01*
X23150Y11343D02*
Y11657D01*
X22993Y12500D02*
X23307D01*
X23150Y12343D02*
Y12657D01*
X21993Y11500D02*
X22307D01*
X22150Y11343D02*
Y11657D01*
X21993Y12500D02*
X22307D01*
X22150Y12343D02*
Y12657D01*
X20993Y11500D02*
X21307D01*
X21150Y11343D02*
Y11657D01*
X20993Y12500D02*
X21307D01*
X21150Y12343D02*
Y12657D01*
X19993Y11500D02*
X20307D01*
X20150Y11343D02*
Y11657D01*
X19993Y12500D02*
X20307D01*
X20150Y12343D02*
Y12657D01*
X18993Y11500D02*
X19307D01*
X19150Y11343D02*
Y11657D01*
X18993Y12500D02*
X19307D01*
X19150Y12343D02*
Y12657D01*
X17993Y11500D02*
X18307D01*
X18150Y11343D02*
Y11657D01*
X17993Y12500D02*
X18307D01*
X18150Y12343D02*
Y12657D01*
X16993Y11500D02*
X17307D01*
X17150Y11343D02*
Y11657D01*
X16993Y12500D02*
X17307D01*
X17150Y12343D02*
Y12657D01*
X15993Y11500D02*
X16307D01*
X16150Y11343D02*
Y11657D01*
X15993Y12500D02*
X16307D01*
X16150Y12343D02*
Y12657D01*
X14993Y11500D02*
X15307D01*
X15150Y11343D02*
Y11657D01*
X14993Y12500D02*
X15307D01*
X15150Y12343D02*
Y12657D01*
X13993Y11500D02*
X14307D01*
X14150Y11343D02*
Y11657D01*
X13993Y12500D02*
X14307D01*
X14150Y12343D02*
Y12657D01*
X12993Y11500D02*
X13307D01*
X13150Y11343D02*
Y11657D01*
X12993Y12500D02*
X13307D01*
X13150Y12343D02*
Y12657D01*
X11993Y11500D02*
X12307D01*
X12150Y11343D02*
Y11657D01*
X11993Y12500D02*
X12307D01*
X12150Y12343D02*
Y12657D01*
X16790Y8000D02*
X17110D01*
X16950Y7840D02*
Y8160D01*
X16790Y7000D02*
X17110D01*
X16950Y6840D02*
Y7160D01*
X11090Y2950D02*
X11410D01*
X11250Y2790D02*
Y3110D01*
X10090Y2950D02*
X10410D01*
X10250Y2790D02*
Y3110D01*
X11583Y1433D02*
X11780D01*
X11681Y1335D02*
Y1532D01*
X10008Y1433D02*
X10205D01*
X10107Y1335D02*
Y1532D01*
X9703Y587D02*
X9861D01*
X9782Y508D02*
Y666D01*
X11928Y587D02*
X12085D01*
X12006Y508D02*
Y666D01*
X5695Y537D02*
X5853D01*
X5774Y458D02*
Y616D01*
X3471Y537D02*
X3628D01*
X3550Y458D02*
Y616D01*
X3776Y1383D02*
X3973D01*
X3874Y1285D02*
Y1482D01*
X5351Y1383D02*
X5548D01*
X5449Y1285D02*
Y1482D01*
X8400Y5850D02*
X8700D01*
X8550Y5700D02*
Y6000D01*
X8400Y3850D02*
X8700D01*
X8550Y3700D02*
Y4000D01*
X1125Y4700D02*
X1475D01*
X1300Y4525D02*
Y4875D01*
X1125Y2700D02*
X1475D01*
X1300Y2525D02*
Y2875D01*
X1125Y5700D02*
X1475D01*
X1300Y5525D02*
Y5875D01*
X1125Y3700D02*
X1475D01*
X1300Y3525D02*
Y3875D01*
X8741Y20700D02*
X9091D01*
X8916Y20525D02*
Y20875D01*
X8741Y19700D02*
X9091D01*
X8916Y19525D02*
Y19875D01*
X8741Y18700D02*
X9091D01*
X8916Y18525D02*
Y18875D01*
X8756Y26100D02*
X9076D01*
X8916Y25940D02*
Y26260D01*
X8756Y25100D02*
X9076D01*
X8916Y24940D02*
Y25260D01*
X1457Y25800D02*
X1890D01*
X1674Y25583D02*
Y26017D01*
X3426Y25800D02*
X3859D01*
X3642Y25583D02*
Y26017D01*
X14483Y4492D02*
X15667D01*
X15075Y3900D02*
Y5083D01*
X24325Y4492D02*
X25508D01*
X24917Y3900D02*
Y5083D01*
X21458Y3933D02*
X21808D01*
X21633Y3758D02*
Y4108D01*
X20367Y3933D02*
X20717D01*
X20542Y3758D02*
Y4108D01*
X19275Y3933D02*
X19625D01*
X19450Y3758D02*
Y4108D01*
X18183Y3933D02*
X18533D01*
X18358Y3758D02*
Y4108D01*
X22000Y5050D02*
X22350D01*
X22175Y4875D02*
Y5225D01*
X20908Y5050D02*
X21258D01*
X21083Y4875D02*
Y5225D01*
X19817Y5050D02*
X20167D01*
X19992Y4875D02*
Y5225D01*
X18725Y5050D02*
X19075D01*
X18900Y4875D02*
Y5225D01*
X17633Y5050D02*
X17983D01*
X17808Y4875D02*
Y5225D01*
X17290Y18050D02*
X17610D01*
X17450Y17890D02*
Y18210D01*
X17290Y17050D02*
X17610D01*
X17450Y16890D02*
Y17210D01*
X29740Y14400D02*
X30060D01*
X29900Y14240D02*
Y14560D01*
X29740Y13400D02*
X30060D01*
X29900Y13240D02*
Y13560D01*
X10677Y18400D02*
X11023D01*
X10850Y18227D02*
Y18573D01*
X10677Y17400D02*
X11023D01*
X10850Y17227D02*
Y17573D01*
X10677Y13400D02*
X11023D01*
X10850Y13227D02*
Y13573D01*
X10677Y11400D02*
X11023D01*
X10850Y11227D02*
Y11573D01*
X10677Y15400D02*
X11023D01*
X10850Y15227D02*
Y15573D01*
X10677Y14400D02*
X11023D01*
X10850Y14227D02*
Y14573D01*
X10677Y16400D02*
X11023D01*
X10850Y16227D02*
Y16573D01*
X10677Y12400D02*
X11023D01*
X10850Y12227D02*
Y12573D01*
X10677Y19400D02*
X11023D01*
X10850Y19227D02*
Y19573D01*
X10677Y20400D02*
X11023D01*
X10850Y20227D02*
Y20573D01*
X10677Y21400D02*
X11023D01*
X10850Y21227D02*
Y21573D01*
X10677Y22400D02*
X11023D01*
X10850Y22227D02*
Y22573D01*
X10677Y23400D02*
X11023D01*
X10850Y23227D02*
Y23573D01*
X10677Y24400D02*
X11023D01*
X10850Y24227D02*
Y24573D01*
X10677Y25400D02*
X11023D01*
X10850Y25227D02*
Y25573D01*
X10677Y26400D02*
X11023D01*
X10850Y26227D02*
Y26573D01*
X15500Y20050D02*
X15800D01*
X15650Y19900D02*
Y20200D01*
X15500Y22050D02*
X15800D01*
X15650Y21900D02*
Y22200D01*
X28427Y26450D02*
X28773D01*
X28600Y26277D02*
Y26623D01*
X28427Y25450D02*
X28773D01*
X28600Y25277D02*
Y25623D01*
X28427Y24450D02*
X28773D01*
X28600Y24277D02*
Y24623D01*
X28427Y23450D02*
X28773D01*
X28600Y23277D02*
Y23623D01*
X28427Y22450D02*
X28773D01*
X28600Y22277D02*
Y22623D01*
X28427Y21450D02*
X28773D01*
X28600Y21277D02*
Y21623D01*
X28427Y20450D02*
X28773D01*
X28600Y20277D02*
Y20623D01*
X28427Y19450D02*
X28773D01*
X28600Y19277D02*
Y19623D01*
X28427Y12450D02*
X28773D01*
X28600Y12277D02*
Y12623D01*
X28427Y16450D02*
X28773D01*
X28600Y16277D02*
Y16623D01*
X28427Y14450D02*
X28773D01*
X28600Y14277D02*
Y14623D01*
X28427Y15450D02*
X28773D01*
X28600Y15277D02*
Y15623D01*
X28427Y11450D02*
X28773D01*
X28600Y11277D02*
Y11623D01*
X28427Y13450D02*
X28773D01*
X28600Y13277D02*
Y13623D01*
X28427Y17450D02*
X28773D01*
X28600Y17277D02*
Y17623D01*
X28427Y18450D02*
X28773D01*
X28600Y18277D02*
Y18623D01*
X25932Y32380D02*
X26052D01*
X25992Y32320D02*
Y32440D01*
X25535Y29100D02*
X25655D01*
X25595Y29040D02*
Y29160D01*
X24310Y27820D02*
X24430D01*
X24370Y27760D02*
Y27880D01*
X25590Y27350D02*
X25710D01*
X25650Y27290D02*
Y27410D01*
X24040Y26900D02*
X24160D01*
X24100Y26840D02*
Y26960D01*
X24240Y23200D02*
X24360D01*
X24300Y23140D02*
Y23260D01*
X30930Y27780D02*
X31050D01*
X30990Y27720D02*
Y27840D01*
X30665Y27420D02*
X30785D01*
X30725Y27360D02*
Y27480D01*
X30385Y24540D02*
X30505D01*
X30445Y24480D02*
Y24600D01*
X15190Y24000D02*
X15310D01*
X15250Y23940D02*
Y24060D01*
X13540Y26200D02*
X13660D01*
X13600Y26140D02*
Y26260D01*
X22656Y5300D02*
X22776D01*
X22716Y5240D02*
Y5360D01*
X22540Y6050D02*
X22660D01*
X22600Y5990D02*
Y6110D01*
X17090Y3550D02*
X17210D01*
X17150Y3490D02*
Y3610D01*
X17090Y4200D02*
X17210D01*
X17150Y4140D02*
Y4260D01*
X12490Y1950D02*
X12610D01*
X12550Y1890D02*
Y2010D01*
X12090Y1950D02*
X12210D01*
X12150Y1890D02*
Y2010D01*
X6240Y1850D02*
X6360D01*
X6300Y1790D02*
Y1910D01*
X5865Y1850D02*
X5985D01*
X5925Y1790D02*
Y1910D01*
X11740Y1950D02*
X11860D01*
X11800Y1890D02*
Y2010D01*
X5490Y1850D02*
X5610D01*
X5550Y1790D02*
Y1910D01*
X2590Y3350D02*
X2710D01*
X2650Y3290D02*
Y3410D01*
X5940Y36150D02*
X6060D01*
X6000Y36090D02*
Y36210D01*
X2640Y37250D02*
X2760D01*
X2700Y37190D02*
Y37310D01*
X4099Y2950D02*
X4219D01*
X4159Y2890D02*
Y3010D01*
X3970Y2540D02*
X4090D01*
X4030Y2480D02*
Y2600D01*
X4849Y2950D02*
X4969D01*
X4909Y2890D02*
Y3010D01*
X20740Y24200D02*
X20860D01*
X20800Y24140D02*
Y24260D01*
X22568Y21672D02*
X22688D01*
X22628Y21612D02*
Y21732D01*
X23090Y22150D02*
X23210D01*
X23150Y22090D02*
Y22210D01*
X23290Y21900D02*
X23410D01*
X23350Y21840D02*
Y21960D01*
X22840Y22500D02*
X22960D01*
X22900Y22440D02*
Y22560D01*
X23190Y17350D02*
X23310D01*
X23250Y17290D02*
Y17410D01*
X23740Y14450D02*
X23860D01*
X23800Y14390D02*
Y14510D01*
X20740Y20500D02*
X20860D01*
X20800Y20440D02*
Y20560D01*
X21041Y21049D02*
X21161D01*
X21101Y20989D02*
Y21109D01*
X21740Y24600D02*
X21860D01*
X21800Y24540D02*
Y24660D01*
X21740Y23950D02*
X21860D01*
X21800Y23890D02*
Y24010D01*
X22190Y23900D02*
X22310D01*
X22250Y23840D02*
Y23960D01*
X3450Y1860D02*
X3570D01*
X3510Y1800D02*
Y1920D01*
X3450Y2220D02*
X3570D01*
X3510Y2160D02*
Y2280D01*
X3450Y2540D02*
X3570D01*
X3510Y2480D02*
Y2600D01*
X7930Y14860D02*
X8050D01*
X7990Y14800D02*
Y14920D01*
X7530Y14860D02*
X7650D01*
X7590Y14800D02*
Y14920D01*
X7090Y14860D02*
X7210D01*
X7150Y14800D02*
Y14920D01*
X6650Y14860D02*
X6770D01*
X6710Y14800D02*
Y14920D01*
X19590Y20250D02*
X19710D01*
X19650Y20190D02*
Y20310D01*
X18940Y20900D02*
X19060D01*
X19000Y20840D02*
Y20960D01*
X17840Y18900D02*
X17960D01*
X17900Y18840D02*
Y18960D01*
X17105Y19085D02*
X17225D01*
X17165Y19025D02*
Y19145D01*
X17596Y20045D02*
X17716D01*
X17656Y19985D02*
Y20105D01*
X17640Y19350D02*
X17760D01*
X17700Y19290D02*
Y19410D01*
X16490Y18800D02*
X16610D01*
X16550Y18740D02*
Y18860D01*
X7190Y6500D02*
X7310D01*
X7250Y6440D02*
Y6560D01*
X30890Y36820D02*
X31010D01*
X30950Y36760D02*
Y36880D01*
X31450Y36820D02*
X31570D01*
X31510Y36760D02*
Y36880D01*
X31450Y37180D02*
X31570D01*
X31510Y37120D02*
Y37240D01*
X30890Y37180D02*
X31010D01*
X30950Y37120D02*
Y37240D01*
X31050Y32900D02*
X31170D01*
X31110Y32840D02*
Y32960D01*
X30670Y32900D02*
X30790D01*
X30730Y32840D02*
Y32960D01*
X30290Y32900D02*
X30410D01*
X30350Y32840D02*
Y32960D01*
X31690Y34100D02*
X31810D01*
X31750Y34040D02*
Y34160D01*
X31330Y34100D02*
X31450D01*
X31390Y34040D02*
Y34160D01*
X30970Y34100D02*
X31090D01*
X31030Y34040D02*
Y34160D01*
X6090Y25450D02*
X6210D01*
X6150Y25390D02*
Y25510D01*
X29340Y16950D02*
X29460D01*
X29400Y16890D02*
Y17010D01*
X16340Y17450D02*
X16460D01*
X16400Y17390D02*
Y17510D01*
X16240Y13500D02*
X16360D01*
X16300Y13440D02*
Y13560D01*
X15940Y13800D02*
X16060D01*
X16000Y13740D02*
Y13860D01*
X16490Y13250D02*
X16610D01*
X16550Y13190D02*
Y13310D01*
X22017Y21405D02*
X22137D01*
X22077Y21345D02*
Y21465D01*
X20490Y14450D02*
X20610D01*
X20550Y14390D02*
Y14510D01*
X20040Y21550D02*
X20160D01*
X20100Y21490D02*
Y21610D01*
X26240Y25159D02*
X26360D01*
X26300Y25099D02*
Y25219D01*
X21940Y22750D02*
X22060D01*
X22000Y22690D02*
Y22810D01*
X22290Y22750D02*
X22410D01*
X22350Y22690D02*
Y22810D01*
X22101Y19911D02*
X22221D01*
X22161Y19851D02*
Y19971D01*
X22940Y23125D02*
X23060D01*
X23000Y23065D02*
Y23185D01*
X22890Y23550D02*
X23010D01*
X22950Y23490D02*
Y23610D01*
X10890Y36200D02*
X11010D01*
X10950Y36140D02*
Y36260D01*
X11140Y32900D02*
X11260D01*
X11200Y32840D02*
Y32960D01*
X18590Y32950D02*
X18710D01*
X18650Y32890D02*
Y33010D01*
X17590Y31350D02*
X17710D01*
X17650Y31290D02*
Y31410D01*
X24740Y32600D02*
X24860D01*
X24800Y32540D02*
Y32660D01*
X24240Y32600D02*
X24360D01*
X24300Y32540D02*
Y32660D01*
X23740Y32600D02*
X23860D01*
X23800Y32540D02*
Y32660D01*
X18090Y32650D02*
X18210D01*
X18150Y32590D02*
Y32710D01*
X17090Y31350D02*
X17210D01*
X17150Y31290D02*
Y31410D01*
X16590Y31350D02*
X16710D01*
X16650Y31290D02*
Y31410D01*
X16090Y32650D02*
X16210D01*
X16150Y32590D02*
Y32710D01*
X15590Y32650D02*
X15710D01*
X15650Y32590D02*
Y32710D01*
X19010Y9300D02*
X19290D01*
X19150Y9160D02*
Y9440D01*
X17857Y21682D02*
X17977D01*
X17917Y21622D02*
Y21742D01*
X17640Y22250D02*
X17760D01*
X17700Y22190D02*
Y22310D01*
X22690Y23800D02*
X22810D01*
X22750Y23740D02*
Y23860D01*
X27860Y28900D02*
X28140D01*
X28000Y28760D02*
Y29040D01*
X4655Y29900D02*
X4775D01*
X4715Y29840D02*
Y29960D01*
X4040Y32515D02*
X4160D01*
X4100Y32455D02*
Y32575D01*
X3610Y32850D02*
X3890D01*
X3750Y32710D02*
Y32990D01*
X17240Y29400D02*
X17360D01*
X17300Y29340D02*
Y29460D01*
X18590Y29400D02*
X18710D01*
X18650Y29340D02*
Y29460D01*
X21790Y30800D02*
X21910D01*
X21850Y30740D02*
Y30860D01*
X26640Y25150D02*
X26760D01*
X26700Y25090D02*
Y25210D01*
X27440Y25200D02*
X27560D01*
X27500Y25140D02*
Y25260D01*
X27066Y25150D02*
X27186D01*
X27126Y25090D02*
Y25210D01*
X32090Y26250D02*
X32210D01*
X32150Y26190D02*
Y26310D01*
X25690Y25000D02*
X25810D01*
X25750Y24940D02*
Y25060D01*
X16190Y30600D02*
X16310D01*
X16250Y30540D02*
Y30660D01*
X15390Y30600D02*
X15510D01*
X15450Y30540D02*
Y30660D01*
X24540Y30650D02*
X24660D01*
X24600Y30590D02*
Y30710D01*
X23240Y30600D02*
X23360D01*
X23300Y30540D02*
Y30660D01*
X22240Y29350D02*
X22360D01*
X22300Y29290D02*
Y29410D01*
X22740Y29369D02*
X22860D01*
X22800Y29309D02*
Y29429D01*
X23740Y29350D02*
X23860D01*
X23800Y29290D02*
Y29410D01*
X18190Y29400D02*
X18310D01*
X18250Y29340D02*
Y29460D01*
X15090Y29350D02*
X15210D01*
X15150Y29290D02*
Y29410D01*
X15590Y29350D02*
X15710D01*
X15650Y29290D02*
Y29410D01*
X21190Y26450D02*
X21310D01*
X21250Y26390D02*
Y26510D01*
X18540Y26500D02*
X18660D01*
X18600Y26440D02*
Y26560D01*
X17465Y25425D02*
X17585D01*
X17525Y25365D02*
Y25485D01*
X17465Y23845D02*
X17585D01*
X17525Y23785D02*
Y23905D01*
X15084Y22391D02*
X15204D01*
X15144Y22331D02*
Y22451D01*
X13290Y14600D02*
X13410D01*
X13350Y14540D02*
Y14660D01*
X20740Y18550D02*
X20860D01*
X20800Y18490D02*
Y18610D01*
X19290Y24950D02*
X19410D01*
X19350Y24890D02*
Y25010D01*
X12490Y4400D02*
X12610D01*
X12550Y4340D02*
Y4460D01*
X5415Y4075D02*
X5535D01*
X5475Y4015D02*
Y4135D01*
X4840Y4050D02*
X4960D01*
X4900Y3990D02*
Y4110D01*
X5565Y4372D02*
X5685D01*
X5625Y4312D02*
Y4432D01*
X6590Y2900D02*
X6710D01*
X6650Y2840D02*
Y2960D01*
X3690Y6050D02*
X3810D01*
X3750Y5990D02*
Y6110D01*
X2440Y5500D02*
X2560D01*
X2500Y5440D02*
Y5560D01*
X6540Y6350D02*
X6660D01*
X6600Y6290D02*
Y6410D01*
X7540Y10100D02*
X7660D01*
X7600Y10040D02*
Y10160D01*
X7940Y9700D02*
X8060D01*
X8000Y9640D02*
Y9760D01*
X7940Y10100D02*
X8060D01*
X8000Y10040D02*
Y10160D01*
X4590Y10950D02*
X4710D01*
X4650Y10890D02*
Y11010D01*
X5290Y11300D02*
X5410D01*
X5350Y11240D02*
Y11360D01*
X4990Y11300D02*
X5110D01*
X5050Y11240D02*
Y11360D01*
X4590Y11300D02*
X4710D01*
X4650Y11240D02*
Y11360D01*
X7140Y10100D02*
X7260D01*
X7200Y10040D02*
Y10160D01*
X4490Y15660D02*
X4610D01*
X4550Y15600D02*
Y15720D01*
X5490Y14950D02*
X5610D01*
X5550Y14890D02*
Y15010D01*
X4890Y14950D02*
X5010D01*
X4950Y14890D02*
Y15010D01*
X4490Y14950D02*
X4610D01*
X4550Y14890D02*
Y15010D01*
X6640Y8400D02*
X6760D01*
X6700Y8340D02*
Y8460D01*
X3740Y10800D02*
X3860D01*
X3800Y10740D02*
Y10860D01*
X5590Y23800D02*
X5710D01*
X5650Y23740D02*
Y23860D01*
X5090Y27250D02*
X5210D01*
X5150Y27190D02*
Y27310D01*
X9040Y21850D02*
X9160D01*
X9100Y21790D02*
Y21910D01*
X9040Y22950D02*
X9160D01*
X9100Y22890D02*
Y23010D01*
X7090Y21800D02*
X7210D01*
X7150Y21740D02*
Y21860D01*
X5590Y22550D02*
X5710D01*
X5650Y22490D02*
Y22610D01*
X7940Y32400D02*
X8060D01*
X8000Y32340D02*
Y32460D01*
X5860Y32500D02*
X6140D01*
X6000Y32360D02*
Y32640D01*
X8440Y28335D02*
X8560D01*
X8500Y28275D02*
Y28395D01*
X7940Y28285D02*
X8060D01*
X8000Y28225D02*
Y28345D01*
X8440Y32400D02*
X8560D01*
X8500Y32340D02*
Y32460D01*
X7440Y32350D02*
X7560D01*
X7500Y32290D02*
Y32410D01*
X13380Y27180D02*
X13500D01*
X13440Y27120D02*
Y27240D01*
X13430Y28480D02*
X13550D01*
X13490Y28420D02*
Y28540D01*
X13380Y29730D02*
X13500D01*
X13440Y29670D02*
Y29790D01*
X13380Y30980D02*
X13500D01*
X13440Y30920D02*
Y31040D01*
X10240Y27840D02*
X10360D01*
X10300Y27780D02*
Y27900D01*
X10240Y29150D02*
X10360D01*
X10300Y29090D02*
Y29210D01*
X10190Y30400D02*
X10310D01*
X10250Y30340D02*
Y30460D01*
X10240Y31650D02*
X10360D01*
X10300Y31590D02*
Y31710D01*
X28340Y32800D02*
X28460D01*
X28400Y32740D02*
Y32860D01*
X13440Y36250D02*
X13560D01*
X13500Y36190D02*
Y36310D01*
X13340Y32850D02*
X13460D01*
X13400Y32790D02*
Y32910D01*
X30310Y28850D02*
X30590D01*
X30450Y28710D02*
Y28990D01*
X33444Y26116D02*
X33724D01*
X33584Y25976D02*
Y26256D01*
X31860Y24100D02*
X32140D01*
X32000Y23960D02*
Y24240D01*
X30860Y24100D02*
X31140D01*
X31000Y23960D02*
Y24240D01*
X6860Y32500D02*
X7140D01*
X7000Y32360D02*
Y32640D01*
X4410Y36500D02*
X4690D01*
X4550Y36360D02*
Y36640D01*
X19810Y9300D02*
X20090D01*
X19950Y9160D02*
Y9440D01*
X21510Y9300D02*
X21790D01*
X21650Y9160D02*
Y9440D01*
X20710Y9300D02*
X20990D01*
X20850Y9160D02*
Y9440D01*
X24660Y7100D02*
X24940D01*
X24800Y6960D02*
Y7240D01*
X23810Y7100D02*
X24090D01*
X23950Y6960D02*
Y7240D01*
X21110Y5900D02*
X21390D01*
X21250Y5760D02*
Y6040D01*
X591Y38219D02*
X1772D01*
X1181Y37628D02*
Y38809D01*
X37528Y38219D02*
X38709D01*
X38119Y37628D02*
Y38809D01*
X37528Y1181D02*
X38709D01*
X38119Y591D02*
Y1772D01*
X591Y1181D02*
X1772D01*
X1181Y591D02*
Y1772D01*
M02*
